{"glyphs":{"0":{"ha":1512,"x_min":0,"x_max":972,"o":"m 347 0 q 298 20 318 0 q 277 69 277 41 q 298 118 277 98 q 347 138 318 138 q 396 118 376 138 q 416 69 416 98 q 396 20 416 41 q 347 0 376 0 m 486 0 q 437 20 457 0 q 416 69 416 41 q 437 118 416 98 q 486 138 457 138 q 535 118 515 138 q 555 69 555 98 q 535 20 555 41 q 486 0 515 0 m 625 0 q 576 20 596 0 q 555 69 555 41 q 576 118 555 98 q 625 138 596 138 q 674 118 653 138 q 694 69 694 98 q 674 20 694 41 q 625 0 653 0 m 208 138 q 159 159 179 138 q 138 208 138 179 q 159 257 138 237 q 208 277 179 277 q 257 257 237 277 q 277 208 277 237 q 257 159 277 179 q 208 138 237 138 m 347 138 q 298 159 318 138 q 277 208 277 179 q 298 257 277 237 q 347 277 318 277 q 396 257 376 277 q 416 208 416 237 q 396 159 416 179 q 347 138 376 138 m 486 138 q 437 159 457 138 q 416 208 416 179 q 437 257 416 237 q 486 277 457 277 q 535 257 515 277 q 555 208 555 237 q 535 159 555 179 q 486 138 515 138 m 625 138 q 576 159 596 138 q 555 208 555 179 q 576 257 555 237 q 625 277 596 277 q 674 257 653 277 q 694 208 694 237 q 674 159 694 179 q 625 138 653 138 m 764 138 q 714 159 735 138 q 694 208 694 179 q 714 257 694 237 q 764 277 735 277 q 812 257 792 277 q 833 208 833 237 q 812 159 833 179 q 764 138 792 138 m 69 277 q 20 298 41 277 q 0 347 0 318 q 20 396 0 376 q 69 416 41 416 q 118 396 98 416 q 138 347 138 376 q 118 298 138 318 q 69 277 98 277 m 208 277 q 159 298 179 277 q 138 347 138 318 q 159 396 138 376 q 208 416 179 416 q 257 396 237 416 q 277 347 277 376 q 257 298 277 318 q 208 277 237 277 m 764 277 q 714 298 735 277 q 694 347 694 318 q 714 396 694 376 q 764 416 735 416 q 812 396 792 416 q 833 347 833 376 q 812 298 833 318 q 764 277 792 277 m 903 277 q 853 298 873 277 q 833 347 833 318 q 853 396 833 376 q 903 416 873 416 q 951 396 931 416 q 972 347 972 376 q 951 298 972 318 q 903 277 931 277 m 69 416 q 20 437 41 416 q 0 486 0 457 q 20 535 0 515 q 69 555 41 555 q 118 535 98 555 q 138 486 138 515 q 118 437 138 457 q 69 416 98 416 m 208 416 q 159 437 179 416 q 138 486 138 457 q 159 535 138 515 q 208 555 179 555 q 257 535 237 555 q 277 486 277 515 q 257 437 277 457 q 208 416 237 416 m 764 416 q 714 437 735 416 q 694 486 694 457 q 714 535 694 515 q 764 555 735 555 q 812 535 792 555 q 833 486 833 515 q 812 437 833 457 q 764 416 792 416 m 903 416 q 853 437 873 416 q 833 486 833 457 q 853 535 833 515 q 903 555 873 555 q 951 535 931 555 q 972 486 972 515 q 951 437 972 457 q 903 416 931 416 m 69 555 q 20 576 41 555 q 0 625 0 596 q 20 674 0 653 q 69 694 41 694 q 118 674 98 694 q 138 625 138 653 q 118 576 138 596 q 69 555 98 555 m 208 555 q 159 576 179 555 q 138 625 138 596 q 159 674 138 653 q 208 694 179 694 q 257 674 237 694 q 277 625 277 653 q 257 576 277 596 q 208 555 237 555 m 764 555 q 714 576 735 555 q 694 625 694 596 q 714 674 694 653 q 764 694 735 694 q 812 674 792 694 q 833 625 833 653 q 812 576 833 596 q 764 555 792 555 m 903 555 q 853 576 873 555 q 833 625 833 596 q 853 674 833 653 q 903 694 873 694 q 951 674 931 694 q 972 625 972 653 q 951 576 972 596 q 903 555 931 555 m 69 694 q 20 714 41 694 q 0 764 0 735 q 20 812 0 792 q 69 833 41 833 q 118 812 98 833 q 138 764 138 792 q 118 714 138 735 q 69 694 98 694 m 208 694 q 159 714 179 694 q 138 764 138 735 q 159 812 138 792 q 208 833 179 833 q 257 812 237 833 q 277 764 277 792 q 257 714 277 735 q 208 694 237 694 m 764 694 q 714 714 735 694 q 694 764 694 735 q 714 812 694 792 q 764 833 735 833 q 812 812 792 833 q 833 764 833 792 q 812 714 833 735 q 764 694 792 694 m 903 694 q 853 714 873 694 q 833 764 833 735 q 853 812 833 792 q 903 833 873 833 q 951 812 931 833 q 972 764 972 792 q 951 714 972 735 q 903 694 931 694 m 69 833 q 20 853 41 833 q 0 903 0 873 q 20 951 0 931 q 69 972 41 972 q 118 951 98 972 q 138 903 138 931 q 118 853 138 873 q 69 833 98 833 m 208 833 q 159 853 179 833 q 138 903 138 873 q 159 951 138 931 q 208 972 179 972 q 257 951 237 972 q 277 903 277 931 q 257 853 277 873 q 208 833 237 833 m 764 833 q 714 853 735 833 q 694 903 694 873 q 714 951 694 931 q 764 972 735 972 q 812 951 792 972 q 833 903 833 931 q 812 853 833 873 q 764 833 792 833 m 903 833 q 853 853 873 833 q 833 903 833 873 q 853 951 833 931 q 903 972 873 972 q 951 951 931 972 q 972 903 972 931 q 951 853 972 873 q 903 833 931 833 m 69 972 q 20 992 41 972 q 0 1042 0 1013 q 20 1090 0 1070 q 69 1111 41 1111 q 118 1090 98 1111 q 138 1042 138 1070 q 118 992 138 1013 q 69 972 98 972 m 208 972 q 159 992 179 972 q 138 1042 138 1013 q 159 1090 138 1070 q 208 1111 179 1111 q 257 1090 237 1111 q 277 1042 277 1070 q 257 992 277 1013 q 208 972 237 972 m 764 972 q 714 992 735 972 q 694 1042 694 1013 q 714 1090 694 1070 q 764 1111 735 1111 q 812 1090 792 1111 q 833 1042 833 1070 q 812 992 833 1013 q 764 972 792 972 m 903 972 q 853 992 873 972 q 833 1042 833 1013 q 853 1090 833 1070 q 903 1111 873 1111 q 951 1090 931 1111 q 972 1042 972 1070 q 951 992 972 1013 q 903 972 931 972 m 208 1111 q 159 1131 179 1111 q 138 1180 138 1152 q 159 1230 138 1209 q 208 1250 179 1250 q 257 1230 237 1250 q 277 1180 277 1209 q 257 1131 277 1152 q 208 1111 237 1111 m 347 1111 q 298 1131 318 1111 q 277 1180 277 1152 q 298 1230 277 1209 q 347 1250 318 1250 q 396 1230 376 1250 q 416 1180 416 1209 q 396 1131 416 1152 q 347 1111 376 1111 m 486 1111 q 437 1131 457 1111 q 416 1180 416 1152 q 437 1230 416 1209 q 486 1250 457 1250 q 535 1230 515 1250 q 555 1180 555 1209 q 535 1131 555 1152 q 486 1111 515 1111 m 625 1111 q 576 1131 596 1111 q 555 1180 555 1152 q 576 1230 555 1209 q 625 1250 596 1250 q 674 1230 653 1250 q 694 1180 694 1209 q 674 1131 694 1152 q 625 1111 653 1111 m 764 1111 q 714 1131 735 1111 q 694 1180 694 1152 q 714 1230 694 1209 q 764 1250 735 1250 q 812 1230 792 1250 q 833 1180 833 1209 q 812 1131 833 1152 q 764 1111 792 1111 m 347 1250 q 298 1270 318 1250 q 277 1319 277 1291 q 298 1369 277 1348 q 347 1389 318 1389 q 396 1369 376 1389 q 416 1319 416 1348 q 396 1270 416 1291 q 347 1250 376 1250 m 486 1250 q 437 1270 457 1250 q 416 1319 416 1291 q 437 1369 416 1348 q 486 1389 457 1389 q 535 1369 515 1389 q 555 1319 555 1348 q 535 1270 555 1291 q 486 1250 515 1250 m 625 1250 q 576 1270 596 1250 q 555 1319 555 1291 q 576 1369 555 1348 q 625 1389 596 1389 q 674 1369 653 1389 q 694 1319 694 1348 q 674 1270 694 1291 q 625 1250 653 1250 z "},"1":{"ha":1095,"x_min":0,"x_max":555,"o":"m 347 0 q 298 20 318 0 q 277 69 277 41 q 298 118 277 98 q 347 138 318 138 q 396 118 376 138 q 416 69 416 98 q 396 20 416 41 q 347 0 376 0 m 486 0 q 437 20 457 0 q 416 69 416 41 q 437 118 416 98 q 486 138 457 138 q 535 118 515 138 q 555 69 555 98 q 535 20 555 41 q 486 0 515 0 m 347 138 q 298 159 318 138 q 277 208 277 179 q 298 257 277 237 q 347 277 318 277 q 396 257 376 277 q 416 208 416 237 q 396 159 416 179 q 347 138 376 138 m 486 138 q 437 159 457 138 q 416 208 416 179 q 437 257 416 237 q 486 277 457 277 q 535 257 515 277 q 555 208 555 237 q 535 159 555 179 q 486 138 515 138 m 347 277 q 298 298 318 277 q 277 347 277 318 q 298 396 277 376 q 347 416 318 416 q 396 396 376 416 q 416 347 416 376 q 396 298 416 318 q 347 277 376 277 m 486 277 q 437 298 457 277 q 416 347 416 318 q 437 396 416 376 q 486 416 457 416 q 535 396 515 416 q 555 347 555 376 q 535 298 555 318 q 486 277 515 277 m 347 416 q 298 437 318 416 q 277 486 277 457 q 298 535 277 515 q 347 555 318 555 q 396 535 376 555 q 416 486 416 515 q 396 437 416 457 q 347 416 376 416 m 486 416 q 437 437 457 416 q 416 486 416 457 q 437 535 416 515 q 486 555 457 555 q 535 535 515 555 q 555 486 555 515 q 535 437 555 457 q 486 416 515 416 m 347 555 q 298 576 318 555 q 277 625 277 596 q 298 674 277 653 q 347 694 318 694 q 396 674 376 694 q 416 625 416 653 q 396 576 416 596 q 347 555 376 555 m 486 555 q 437 576 457 555 q 416 625 416 596 q 437 674 416 653 q 486 694 457 694 q 535 674 515 694 q 555 625 555 653 q 535 576 555 596 q 486 555 515 555 m 347 694 q 298 714 318 694 q 277 764 277 735 q 298 812 277 792 q 347 833 318 833 q 396 812 376 833 q 416 764 416 792 q 396 714 416 735 q 347 694 376 694 m 486 694 q 437 714 457 694 q 416 764 416 735 q 437 812 416 792 q 486 833 457 833 q 535 812 515 833 q 555 764 555 792 q 535 714 555 735 q 486 694 515 694 m 347 833 q 298 853 318 833 q 277 903 277 873 q 298 951 277 931 q 347 972 318 972 q 396 951 376 972 q 416 903 416 931 q 396 853 416 873 q 347 833 376 833 m 486 833 q 437 853 457 833 q 416 903 416 873 q 437 951 416 931 q 486 972 457 972 q 535 951 515 972 q 555 903 555 931 q 535 853 555 873 q 486 833 515 833 m 69 972 q 20 992 41 972 q 0 1042 0 1013 q 20 1090 0 1070 q 69 1111 41 1111 q 118 1090 98 1111 q 138 1042 138 1070 q 118 992 138 1013 q 69 972 98 972 m 208 972 q 159 992 179 972 q 138 1042 138 1013 q 159 1090 138 1070 q 208 1111 179 1111 q 257 1090 237 1111 q 277 1042 277 1070 q 257 992 277 1013 q 208 972 237 972 m 347 972 q 298 992 318 972 q 277 1042 277 1013 q 298 1090 277 1070 q 347 1111 318 1111 q 396 1090 376 1111 q 416 1042 416 1070 q 396 992 416 1013 q 347 972 376 972 m 486 972 q 437 992 457 972 q 416 1042 416 1013 q 437 1090 416 1070 q 486 1111 457 1111 q 535 1090 515 1111 q 555 1042 555 1070 q 535 992 555 1013 q 486 972 515 972 m 208 1111 q 159 1131 179 1111 q 138 1180 138 1152 q 159 1230 138 1209 q 208 1250 179 1250 q 257 1230 237 1250 q 277 1180 277 1209 q 257 1131 277 1152 q 208 1111 237 1111 m 347 1111 q 298 1131 318 1111 q 277 1180 277 1152 q 298 1230 277 1209 q 347 1250 318 1250 q 396 1230 376 1250 q 416 1180 416 1209 q 396 1131 416 1152 q 347 1111 376 1111 m 486 1111 q 437 1131 457 1111 q 416 1180 416 1152 q 437 1230 416 1209 q 486 1250 457 1250 q 535 1230 515 1250 q 555 1180 555 1209 q 535 1131 555 1152 q 486 1111 515 1111 m 347 1250 q 298 1270 318 1250 q 277 1319 277 1291 q 298 1369 277 1348 q 347 1389 318 1389 q 396 1369 376 1389 q 416 1319 416 1348 q 396 1270 416 1291 q 347 1250 376 1250 m 486 1250 q 437 1270 457 1250 q 416 1319 416 1291 q 437 1369 416 1348 q 486 1389 457 1389 q 535 1369 515 1389 q 555 1319 555 1348 q 535 1270 555 1291 q 486 1250 515 1250 z "},"2":{"ha":1512,"x_min":0,"x_max":972,"o":"m 69 0 q 20 20 41 0 q 0 69 0 41 q 20 118 0 98 q 69 138 41 138 q 118 118 98 138 q 138 69 138 98 q 118 20 138 41 q 69 0 98 0 m 208 0 q 159 20 179 0 q 138 69 138 41 q 159 118 138 98 q 208 138 179 138 q 257 118 237 138 q 277 69 277 98 q 257 20 277 41 q 208 0 237 0 m 347 0 q 298 20 318 0 q 277 69 277 41 q 298 118 277 98 q 347 138 318 138 q 396 118 376 138 q 416 69 416 98 q 396 20 416 41 q 347 0 376 0 m 486 0 q 437 20 457 0 q 416 69 416 41 q 437 118 416 98 q 486 138 457 138 q 535 118 515 138 q 555 69 555 98 q 535 20 555 41 q 486 0 515 0 m 625 0 q 576 20 596 0 q 555 69 555 41 q 576 118 555 98 q 625 138 596 138 q 674 118 653 138 q 694 69 694 98 q 674 20 694 41 q 625 0 653 0 m 764 0 q 714 20 735 0 q 694 69 694 41 q 714 118 694 98 q 764 138 735 138 q 812 118 792 138 q 833 69 833 98 q 812 20 833 41 q 764 0 792 0 m 903 0 q 853 20 873 0 q 833 69 833 41 q 853 118 833 98 q 903 138 873 138 q 951 118 931 138 q 972 69 972 98 q 951 20 972 41 q 903 0 931 0 m 69 138 q 20 159 41 138 q 0 208 0 179 q 20 257 0 237 q 69 277 41 277 q 118 257 98 277 q 138 208 138 237 q 118 159 138 179 q 69 138 98 138 m 208 138 q 159 159 179 138 q 138 208 138 179 q 159 257 138 237 q 208 277 179 277 q 257 257 237 277 q 277 208 277 237 q 257 159 277 179 q 208 138 237 138 m 347 138 q 298 159 318 138 q 277 208 277 179 q 298 257 277 237 q 347 277 318 277 q 396 257 376 277 q 416 208 416 237 q 396 159 416 179 q 347 138 376 138 m 486 138 q 437 159 457 138 q 416 208 416 179 q 437 257 416 237 q 486 277 457 277 q 535 257 515 277 q 555 208 555 237 q 535 159 555 179 q 486 138 515 138 m 625 138 q 576 159 596 138 q 555 208 555 179 q 576 257 555 237 q 625 277 596 277 q 674 257 653 277 q 694 208 694 237 q 674 159 694 179 q 625 138 653 138 m 764 138 q 714 159 735 138 q 694 208 694 179 q 714 257 694 237 q 764 277 735 277 q 812 257 792 277 q 833 208 833 237 q 812 159 833 179 q 764 138 792 138 m 903 138 q 853 159 873 138 q 833 208 833 179 q 853 257 833 237 q 903 277 873 277 q 951 257 931 277 q 972 208 972 237 q 951 159 972 179 q 903 138 931 138 m 208 277 q 159 298 179 277 q 138 347 138 318 q 159 396 138 376 q 208 416 179 416 q 257 396 237 416 q 277 347 277 376 q 257 298 277 318 q 208 277 237 277 m 347 277 q 298 298 318 277 q 277 347 277 318 q 298 396 277 376 q 347 416 318 416 q 396 396 376 416 q 416 347 416 376 q 396 298 416 318 q 347 277 376 277 m 347 416 q 298 437 318 416 q 277 486 277 457 q 298 535 277 515 q 347 555 318 555 q 396 535 376 555 q 416 486 416 515 q 396 437 416 457 q 347 416 376 416 m 486 416 q 437 437 457 416 q 416 486 416 457 q 437 535 416 515 q 486 555 457 555 q 535 535 515 555 q 555 486 555 515 q 535 437 555 457 q 486 416 515 416 m 486 555 q 437 576 457 555 q 416 625 416 596 q 437 674 416 653 q 486 694 457 694 q 535 674 515 694 q 555 625 555 653 q 535 576 555 596 q 486 555 515 555 m 625 555 q 576 576 596 555 q 555 625 555 596 q 576 674 555 653 q 625 694 596 694 q 674 674 653 694 q 694 625 694 653 q 674 576 694 596 q 625 555 653 555 m 625 694 q 576 714 596 694 q 555 764 555 735 q 576 812 555 792 q 625 833 596 833 q 674 812 653 833 q 694 764 694 792 q 674 714 694 735 q 625 694 653 694 m 764 694 q 714 714 735 694 q 694 764 694 735 q 714 812 694 792 q 764 833 735 833 q 812 812 792 833 q 833 764 833 792 q 812 714 833 735 q 764 694 792 694 m 764 833 q 714 853 735 833 q 694 903 694 873 q 714 951 694 931 q 764 972 735 972 q 812 951 792 972 q 833 903 833 931 q 812 853 833 873 q 764 833 792 833 m 903 833 q 853 853 873 833 q 833 903 833 873 q 853 951 833 931 q 903 972 873 972 q 951 951 931 972 q 972 903 972 931 q 951 853 972 873 q 903 833 931 833 m 69 972 q 20 992 41 972 q 0 1042 0 1013 q 20 1090 0 1070 q 69 1111 41 1111 q 118 1090 98 1111 q 138 1042 138 1070 q 118 992 138 1013 q 69 972 98 972 m 208 972 q 159 992 179 972 q 138 1042 138 1013 q 159 1090 138 1070 q 208 1111 179 1111 q 257 1090 237 1111 q 277 1042 277 1070 q 257 992 277 1013 q 208 972 237 972 m 764 972 q 714 992 735 972 q 694 1042 694 1013 q 714 1090 694 1070 q 764 1111 735 1111 q 812 1090 792 1111 q 833 1042 833 1070 q 812 992 833 1013 q 764 972 792 972 m 903 972 q 853 992 873 972 q 833 1042 833 1013 q 853 1090 833 1070 q 903 1111 873 1111 q 951 1090 931 1111 q 972 1042 972 1070 q 951 992 972 1013 q 903 972 931 972 m 208 1111 q 159 1131 179 1111 q 138 1180 138 1152 q 159 1230 138 1209 q 208 1250 179 1250 q 257 1230 237 1250 q 277 1180 277 1209 q 257 1131 277 1152 q 208 1111 237 1111 m 347 1111 q 298 1131 318 1111 q 277 1180 277 1152 q 298 1230 277 1209 q 347 1250 318 1250 q 396 1230 376 1250 q 416 1180 416 1209 q 396 1131 416 1152 q 347 1111 376 1111 m 486 1111 q 437 1131 457 1111 q 416 1180 416 1152 q 437 1230 416 1209 q 486 1250 457 1250 q 535 1230 515 1250 q 555 1180 555 1209 q 535 1131 555 1152 q 486 1111 515 1111 m 625 1111 q 576 1131 596 1111 q 555 1180 555 1152 q 576 1230 555 1209 q 625 1250 596 1250 q 674 1230 653 1250 q 694 1180 694 1209 q 674 1131 694 1152 q 625 1111 653 1111 m 764 1111 q 714 1131 735 1111 q 694 1180 694 1152 q 714 1230 694 1209 q 764 1250 735 1250 q 812 1230 792 1250 q 833 1180 833 1209 q 812 1131 833 1152 q 764 1111 792 1111 m 347 1250 q 298 1270 318 1250 q 277 1319 277 1291 q 298 1369 277 1348 q 347 1389 318 1389 q 396 1369 376 1389 q 416 1319 416 1348 q 396 1270 416 1291 q 347 1250 376 1250 m 486 1250 q 437 1270 457 1250 q 416 1319 416 1291 q 437 1369 416 1348 q 486 1389 457 1389 q 535 1369 515 1389 q 555 1319 555 1348 q 535 1270 555 1291 q 486 1250 515 1250 m 625 1250 q 576 1270 596 1250 q 555 1319 555 1291 q 576 1369 555 1348 q 625 1389 596 1389 q 674 1369 653 1389 q 694 1319 694 1348 q 674 1270 694 1291 q 625 1250 653 1250 z "},"3":{"ha":1512,"x_min":0,"x_max":972,"o":"m 347 0 q 298 20 318 0 q 277 69 277 41 q 298 118 277 98 q 347 138 318 138 q 396 118 376 138 q 416 69 416 98 q 396 20 416 41 q 347 0 376 0 m 486 0 q 437 20 457 0 q 416 69 416 41 q 437 118 416 98 q 486 138 457 138 q 535 118 515 138 q 555 69 555 98 q 535 20 555 41 q 486 0 515 0 m 625 0 q 576 20 596 0 q 555 69 555 41 q 576 118 555 98 q 625 138 596 138 q 674 118 653 138 q 694 69 694 98 q 674 20 694 41 q 625 0 653 0 m 208 138 q 159 159 179 138 q 138 208 138 179 q 159 257 138 237 q 208 277 179 277 q 257 257 237 277 q 277 208 277 237 q 257 159 277 179 q 208 138 237 138 m 347 138 q 298 159 318 138 q 277 208 277 179 q 298 257 277 237 q 347 277 318 277 q 396 257 376 277 q 416 208 416 237 q 396 159 416 179 q 347 138 376 138 m 486 138 q 437 159 457 138 q 416 208 416 179 q 437 257 416 237 q 486 277 457 277 q 535 257 515 277 q 555 208 555 237 q 535 159 555 179 q 486 138 515 138 m 625 138 q 576 159 596 138 q 555 208 555 179 q 576 257 555 237 q 625 277 596 277 q 674 257 653 277 q 694 208 694 237 q 674 159 694 179 q 625 138 653 138 m 764 138 q 714 159 735 138 q 694 208 694 179 q 714 257 694 237 q 764 277 735 277 q 812 257 792 277 q 833 208 833 237 q 812 159 833 179 q 764 138 792 138 m 69 277 q 20 298 41 277 q 0 347 0 318 q 20 396 0 376 q 69 416 41 416 q 118 396 98 416 q 138 347 138 376 q 118 298 138 318 q 69 277 98 277 m 208 277 q 159 298 179 277 q 138 347 138 318 q 159 396 138 376 q 208 416 179 416 q 257 396 237 416 q 277 347 277 376 q 257 298 277 318 q 208 277 237 277 m 764 277 q 714 298 735 277 q 694 347 694 318 q 714 396 694 376 q 764 416 735 416 q 812 396 792 416 q 833 347 833 376 q 812 298 833 318 q 764 277 792 277 m 903 277 q 853 298 873 277 q 833 347 833 318 q 853 396 833 376 q 903 416 873 416 q 951 396 931 416 q 972 347 972 376 q 951 298 972 318 q 903 277 931 277 m 69 416 q 20 437 41 416 q 0 486 0 457 q 20 535 0 515 q 69 555 41 555 q 118 535 98 555 q 138 486 138 515 q 118 437 138 457 q 69 416 98 416 m 764 416 q 714 437 735 416 q 694 486 694 457 q 714 535 694 515 q 764 555 735 555 q 812 535 792 555 q 833 486 833 515 q 812 437 833 457 q 764 416 792 416 m 903 416 q 853 437 873 416 q 833 486 833 457 q 853 535 833 515 q 903 555 873 555 q 951 535 931 555 q 972 486 972 515 q 951 437 972 457 q 903 416 931 416 m 625 555 q 576 576 596 555 q 555 625 555 596 q 576 674 555 653 q 625 694 596 694 q 674 674 653 694 q 694 625 694 653 q 674 576 694 596 q 625 555 653 555 m 764 555 q 714 576 735 555 q 694 625 694 596 q 714 674 694 653 q 764 694 735 694 q 812 674 792 694 q 833 625 833 653 q 812 576 833 596 q 764 555 792 555 m 347 694 q 298 714 318 694 q 277 764 277 735 q 298 812 277 792 q 347 833 318 833 q 396 812 376 833 q 416 764 416 792 q 396 714 416 735 q 347 694 376 694 m 486 694 q 437 714 457 694 q 416 764 416 735 q 437 812 416 792 q 486 833 457 833 q 535 812 515 833 q 555 764 555 792 q 535 714 555 735 q 486 694 515 694 m 625 694 q 576 714 596 694 q 555 764 555 735 q 576 812 555 792 q 625 833 596 833 q 674 812 653 833 q 694 764 694 792 q 674 714 694 735 q 625 694 653 694 m 69 833 q 20 853 41 833 q 0 903 0 873 q 20 951 0 931 q 69 972 41 972 q 118 951 98 972 q 138 903 138 931 q 118 853 138 873 q 69 833 98 833 m 625 833 q 576 853 596 833 q 555 903 555 873 q 576 951 555 931 q 625 972 596 972 q 674 951 653 972 q 694 903 694 931 q 674 853 694 873 q 625 833 653 833 m 764 833 q 714 853 735 833 q 694 903 694 873 q 714 951 694 931 q 764 972 735 972 q 812 951 792 972 q 833 903 833 931 q 812 853 833 873 q 764 833 792 833 m 69 972 q 20 992 41 972 q 0 1042 0 1013 q 20 1090 0 1070 q 69 1111 41 1111 q 118 1090 98 1111 q 138 1042 138 1070 q 118 992 138 1013 q 69 972 98 972 m 208 972 q 159 992 179 972 q 138 1042 138 1013 q 159 1090 138 1070 q 208 1111 179 1111 q 257 1090 237 1111 q 277 1042 277 1070 q 257 992 277 1013 q 208 972 237 972 m 764 972 q 714 992 735 972 q 694 1042 694 1013 q 714 1090 694 1070 q 764 1111 735 1111 q 812 1090 792 1111 q 833 1042 833 1070 q 812 992 833 1013 q 764 972 792 972 m 903 972 q 853 992 873 972 q 833 1042 833 1013 q 853 1090 833 1070 q 903 1111 873 1111 q 951 1090 931 1111 q 972 1042 972 1070 q 951 992 972 1013 q 903 972 931 972 m 208 1111 q 159 1131 179 1111 q 138 1180 138 1152 q 159 1230 138 1209 q 208 1250 179 1250 q 257 1230 237 1250 q 277 1180 277 1209 q 257 1131 277 1152 q 208 1111 237 1111 m 347 1111 q 298 1131 318 1111 q 277 1180 277 1152 q 298 1230 277 1209 q 347 1250 318 1250 q 396 1230 376 1250 q 416 1180 416 1209 q 396 1131 416 1152 q 347 1111 376 1111 m 486 1111 q 437 1131 457 1111 q 416 1180 416 1152 q 437 1230 416 1209 q 486 1250 457 1250 q 535 1230 515 1250 q 555 1180 555 1209 q 535 1131 555 1152 q 486 1111 515 1111 m 625 1111 q 576 1131 596 1111 q 555 1180 555 1152 q 576 1230 555 1209 q 625 1250 596 1250 q 674 1230 653 1250 q 694 1180 694 1209 q 674 1131 694 1152 q 625 1111 653 1111 m 764 1111 q 714 1131 735 1111 q 694 1180 694 1152 q 714 1230 694 1209 q 764 1250 735 1250 q 812 1230 792 1250 q 833 1180 833 1209 q 812 1131 833 1152 q 764 1111 792 1111 m 347 1250 q 298 1270 318 1250 q 277 1319 277 1291 q 298 1369 277 1348 q 347 1389 318 1389 q 396 1369 376 1389 q 416 1319 416 1348 q 396 1270 416 1291 q 347 1250 376 1250 m 486 1250 q 437 1270 457 1250 q 416 1319 416 1291 q 437 1369 416 1348 q 486 1389 457 1389 q 535 1369 515 1389 q 555 1319 555 1348 q 535 1270 555 1291 q 486 1250 515 1250 m 625 1250 q 576 1270 596 1250 q 555 1319 555 1291 q 576 1369 555 1348 q 625 1389 596 1389 q 674 1369 653 1389 q 694 1319 694 1348 q 674 1270 694 1291 q 625 1250 653 1250 z "},"4":{"ha":1512,"x_min":0,"x_max":972,"o":"m 625 0 q 576 20 596 0 q 555 69 555 41 q 576 118 555 98 q 625 138 596 138 q 674 118 653 138 q 694 69 694 98 q 674 20 694 41 q 625 0 653 0 m 764 0 q 714 20 735 0 q 694 69 694 41 q 714 118 694 98 q 764 138 735 138 q 812 118 792 138 q 833 69 833 98 q 812 20 833 41 q 764 0 792 0 m 625 138 q 576 159 596 138 q 555 208 555 179 q 576 257 555 237 q 625 277 596 277 q 674 257 653 277 q 694 208 694 237 q 674 159 694 179 q 625 138 653 138 m 764 138 q 714 159 735 138 q 694 208 694 179 q 714 257 694 237 q 764 277 735 277 q 812 257 792 277 q 833 208 833 237 q 812 159 833 179 q 764 138 792 138 m 625 277 q 576 298 596 277 q 555 347 555 318 q 576 396 555 376 q 625 416 596 416 q 674 396 653 416 q 694 347 694 376 q 674 298 694 318 q 625 277 653 277 m 764 277 q 714 298 735 277 q 694 347 694 318 q 714 396 694 376 q 764 416 735 416 q 812 396 792 416 q 833 347 833 376 q 812 298 833 318 q 764 277 792 277 m 69 416 q 20 437 41 416 q 0 486 0 457 q 20 535 0 515 q 69 555 41 555 q 118 535 98 555 q 138 486 138 515 q 118 437 138 457 q 69 416 98 416 m 208 416 q 159 437 179 416 q 138 486 138 457 q 159 535 138 515 q 208 555 179 555 q 257 535 237 555 q 277 486 277 515 q 257 437 277 457 q 208 416 237 416 m 347 416 q 298 437 318 416 q 277 486 277 457 q 298 535 277 515 q 347 555 318 555 q 396 535 376 555 q 416 486 416 515 q 396 437 416 457 q 347 416 376 416 m 486 416 q 437 437 457 416 q 416 486 416 457 q 437 535 416 515 q 486 555 457 555 q 535 535 515 555 q 555 486 555 515 q 535 437 555 457 q 486 416 515 416 m 625 416 q 576 437 596 416 q 555 486 555 457 q 576 535 555 515 q 625 555 596 555 q 674 535 653 555 q 694 486 694 515 q 674 437 694 457 q 625 416 653 416 m 764 416 q 714 437 735 416 q 694 486 694 457 q 714 535 694 515 q 764 555 735 555 q 812 535 792 555 q 833 486 833 515 q 812 437 833 457 q 764 416 792 416 m 903 416 q 853 437 873 416 q 833 486 833 457 q 853 535 833 515 q 903 555 873 555 q 951 535 931 555 q 972 486 972 515 q 951 437 972 457 q 903 416 931 416 m 69 555 q 20 576 41 555 q 0 625 0 596 q 20 674 0 653 q 69 694 41 694 q 118 674 98 694 q 138 625 138 653 q 118 576 138 596 q 69 555 98 555 m 208 555 q 159 576 179 555 q 138 625 138 596 q 159 674 138 653 q 208 694 179 694 q 257 674 237 694 q 277 625 277 653 q 257 576 277 596 q 208 555 237 555 m 347 555 q 298 576 318 555 q 277 625 277 596 q 298 674 277 653 q 347 694 318 694 q 396 674 376 694 q 416 625 416 653 q 396 576 416 596 q 347 555 376 555 m 486 555 q 437 576 457 555 q 416 625 416 596 q 437 674 416 653 q 486 694 457 694 q 535 674 515 694 q 555 625 555 653 q 535 576 555 596 q 486 555 515 555 m 625 555 q 576 576 596 555 q 555 625 555 596 q 576 674 555 653 q 625 694 596 694 q 674 674 653 694 q 694 625 694 653 q 674 576 694 596 q 625 555 653 555 m 764 555 q 714 576 735 555 q 694 625 694 596 q 714 674 694 653 q 764 694 735 694 q 812 674 792 694 q 833 625 833 653 q 812 576 833 596 q 764 555 792 555 m 903 555 q 853 576 873 555 q 833 625 833 596 q 853 674 833 653 q 903 694 873 694 q 951 674 931 694 q 972 625 972 653 q 951 576 972 596 q 903 555 931 555 m 69 694 q 20 714 41 694 q 0 764 0 735 q 20 812 0 792 q 69 833 41 833 q 118 812 98 833 q 138 764 138 792 q 118 714 138 735 q 69 694 98 694 m 208 694 q 159 714 179 694 q 138 764 138 735 q 159 812 138 792 q 208 833 179 833 q 257 812 237 833 q 277 764 277 792 q 257 714 277 735 q 208 694 237 694 m 625 694 q 576 714 596 694 q 555 764 555 735 q 576 812 555 792 q 625 833 596 833 q 674 812 653 833 q 694 764 694 792 q 674 714 694 735 q 625 694 653 694 m 764 694 q 714 714 735 694 q 694 764 694 735 q 714 812 694 792 q 764 833 735 833 q 812 812 792 833 q 833 764 833 792 q 812 714 833 735 q 764 694 792 694 m 208 833 q 159 853 179 833 q 138 903 138 873 q 159 951 138 931 q 208 972 179 972 q 257 951 237 972 q 277 903 277 931 q 257 853 277 873 q 208 833 237 833 m 347 833 q 298 853 318 833 q 277 903 277 873 q 298 951 277 931 q 347 972 318 972 q 396 951 376 972 q 416 903 416 931 q 396 853 416 873 q 347 833 376 833 m 625 833 q 576 853 596 833 q 555 903 555 873 q 576 951 555 931 q 625 972 596 972 q 674 951 653 972 q 694 903 694 931 q 674 853 694 873 q 625 833 653 833 m 764 833 q 714 853 735 833 q 694 903 694 873 q 714 951 694 931 q 764 972 735 972 q 812 951 792 972 q 833 903 833 931 q 812 853 833 873 q 764 833 792 833 m 347 972 q 298 992 318 972 q 277 1042 277 1013 q 298 1090 277 1070 q 347 1111 318 1111 q 396 1090 376 1111 q 416 1042 416 1070 q 396 992 416 1013 q 347 972 376 972 m 486 972 q 437 992 457 972 q 416 1042 416 1013 q 437 1090 416 1070 q 486 1111 457 1111 q 535 1090 515 1111 q 555 1042 555 1070 q 535 992 555 1013 q 486 972 515 972 m 625 972 q 576 992 596 972 q 555 1042 555 1013 q 576 1090 555 1070 q 625 1111 596 1111 q 674 1090 653 1111 q 694 1042 694 1070 q 674 992 694 1013 q 625 972 653 972 m 764 972 q 714 992 735 972 q 694 1042 694 1013 q 714 1090 694 1070 q 764 1111 735 1111 q 812 1090 792 1111 q 833 1042 833 1070 q 812 992 833 1013 q 764 972 792 972 m 486 1111 q 437 1131 457 1111 q 416 1180 416 1152 q 437 1230 416 1209 q 486 1250 457 1250 q 535 1230 515 1250 q 555 1180 555 1209 q 535 1131 555 1152 q 486 1111 515 1111 m 625 1111 q 576 1131 596 1111 q 555 1180 555 1152 q 576 1230 555 1209 q 625 1250 596 1250 q 674 1230 653 1250 q 694 1180 694 1209 q 674 1131 694 1152 q 625 1111 653 1111 m 764 1111 q 714 1131 735 1111 q 694 1180 694 1152 q 714 1230 694 1209 q 764 1250 735 1250 q 812 1230 792 1250 q 833 1180 833 1209 q 812 1131 833 1152 q 764 1111 792 1111 m 625 1250 q 576 1270 596 1250 q 555 1319 555 1291 q 576 1369 555 1348 q 625 1389 596 1389 q 674 1369 653 1389 q 694 1319 694 1348 q 674 1270 694 1291 q 625 1250 653 1250 m 764 1250 q 714 1270 735 1250 q 694 1319 694 1291 q 714 1369 694 1348 q 764 1389 735 1389 q 812 1369 792 1389 q 833 1319 833 1348 q 812 1270 833 1291 q 764 1250 792 1250 z "},"5":{"ha":1512,"x_min":0,"x_max":972,"o":"m 347 0 q 298 20 318 0 q 277 69 277 41 q 298 118 277 98 q 347 138 318 138 q 396 118 376 138 q 416 69 416 98 q 396 20 416 41 q 347 0 376 0 m 486 0 q 437 20 457 0 q 416 69 416 41 q 437 118 416 98 q 486 138 457 138 q 535 118 515 138 q 555 69 555 98 q 535 20 555 41 q 486 0 515 0 m 625 0 q 576 20 596 0 q 555 69 555 41 q 576 118 555 98 q 625 138 596 138 q 674 118 653 138 q 694 69 694 98 q 674 20 694 41 q 625 0 653 0 m 208 138 q 159 159 179 138 q 138 208 138 179 q 159 257 138 237 q 208 277 179 277 q 257 257 237 277 q 277 208 277 237 q 257 159 277 179 q 208 138 237 138 m 347 138 q 298 159 318 138 q 277 208 277 179 q 298 257 277 237 q 347 277 318 277 q 396 257 376 277 q 416 208 416 237 q 396 159 416 179 q 347 138 376 138 m 486 138 q 437 159 457 138 q 416 208 416 179 q 437 257 416 237 q 486 277 457 277 q 535 257 515 277 q 555 208 555 237 q 535 159 555 179 q 486 138 515 138 m 625 138 q 576 159 596 138 q 555 208 555 179 q 576 257 555 237 q 625 277 596 277 q 674 257 653 277 q 694 208 694 237 q 674 159 694 179 q 625 138 653 138 m 764 138 q 714 159 735 138 q 694 208 694 179 q 714 257 694 237 q 764 277 735 277 q 812 257 792 277 q 833 208 833 237 q 812 159 833 179 q 764 138 792 138 m 69 277 q 20 298 41 277 q 0 347 0 318 q 20 396 0 376 q 69 416 41 416 q 118 396 98 416 q 138 347 138 376 q 118 298 138 318 q 69 277 98 277 m 208 277 q 159 298 179 277 q 138 347 138 318 q 159 396 138 376 q 208 416 179 416 q 257 396 237 416 q 277 347 277 376 q 257 298 277 318 q 208 277 237 277 m 764 277 q 714 298 735 277 q 694 347 694 318 q 714 396 694 376 q 764 416 735 416 q 812 396 792 416 q 833 347 833 376 q 812 298 833 318 q 764 277 792 277 m 903 277 q 853 298 873 277 q 833 347 833 318 q 853 396 833 376 q 903 416 873 416 q 951 396 931 416 q 972 347 972 376 q 951 298 972 318 q 903 277 931 277 m 764 416 q 714 437 735 416 q 694 486 694 457 q 714 535 694 515 q 764 555 735 555 q 812 535 792 555 q 833 486 833 515 q 812 437 833 457 q 764 416 792 416 m 903 416 q 853 437 873 416 q 833 486 833 457 q 853 535 833 515 q 903 555 873 555 q 951 535 931 555 q 972 486 972 515 q 951 437 972 457 q 903 416 931 416 m 69 555 q 20 576 41 555 q 0 625 0 596 q 20 674 0 653 q 69 694 41 694 q 118 674 98 694 q 138 625 138 653 q 118 576 138 596 q 69 555 98 555 m 208 555 q 159 576 179 555 q 138 625 138 596 q 159 674 138 653 q 208 694 179 694 q 257 674 237 694 q 277 625 277 653 q 257 576 277 596 q 208 555 237 555 m 347 555 q 298 576 318 555 q 277 625 277 596 q 298 674 277 653 q 347 694 318 694 q 396 674 376 694 q 416 625 416 653 q 396 576 416 596 q 347 555 376 555 m 486 555 q 437 576 457 555 q 416 625 416 596 q 437 674 416 653 q 486 694 457 694 q 535 674 515 694 q 555 625 555 653 q 535 576 555 596 q 486 555 515 555 m 625 555 q 576 576 596 555 q 555 625 555 596 q 576 674 555 653 q 625 694 596 694 q 674 674 653 694 q 694 625 694 653 q 674 576 694 596 q 625 555 653 555 m 764 555 q 714 576 735 555 q 694 625 694 596 q 714 674 694 653 q 764 694 735 694 q 812 674 792 694 q 833 625 833 653 q 812 576 833 596 q 764 555 792 555 m 69 694 q 20 714 41 694 q 0 764 0 735 q 20 812 0 792 q 69 833 41 833 q 118 812 98 833 q 138 764 138 792 q 118 714 138 735 q 69 694 98 694 m 208 694 q 159 714 179 694 q 138 764 138 735 q 159 812 138 792 q 208 833 179 833 q 257 812 237 833 q 277 764 277 792 q 257 714 277 735 q 208 694 237 694 m 347 694 q 298 714 318 694 q 277 764 277 735 q 298 812 277 792 q 347 833 318 833 q 396 812 376 833 q 416 764 416 792 q 396 714 416 735 q 347 694 376 694 m 486 694 q 437 714 457 694 q 416 764 416 735 q 437 812 416 792 q 486 833 457 833 q 535 812 515 833 q 555 764 555 792 q 535 714 555 735 q 486 694 515 694 m 625 694 q 576 714 596 694 q 555 764 555 735 q 576 812 555 792 q 625 833 596 833 q 674 812 653 833 q 694 764 694 792 q 674 714 694 735 q 625 694 653 694 m 69 833 q 20 853 41 833 q 0 903 0 873 q 20 951 0 931 q 69 972 41 972 q 118 951 98 972 q 138 903 138 931 q 118 853 138 873 q 69 833 98 833 m 208 833 q 159 853 179 833 q 138 903 138 873 q 159 951 138 931 q 208 972 179 972 q 257 951 237 972 q 277 903 277 931 q 257 853 277 873 q 208 833 237 833 m 69 972 q 20 992 41 972 q 0 1042 0 1013 q 20 1090 0 1070 q 69 1111 41 1111 q 118 1090 98 1111 q 138 1042 138 1070 q 118 992 138 1013 q 69 972 98 972 m 208 972 q 159 992 179 972 q 138 1042 138 1013 q 159 1090 138 1070 q 208 1111 179 1111 q 257 1090 237 1111 q 277 1042 277 1070 q 257 992 277 1013 q 208 972 237 972 m 69 1111 q 20 1131 41 1111 q 0 1180 0 1152 q 20 1230 0 1209 q 69 1250 41 1250 q 118 1230 98 1250 q 138 1180 138 1209 q 118 1131 138 1152 q 69 1111 98 1111 m 208 1111 q 159 1131 179 1111 q 138 1180 138 1152 q 159 1230 138 1209 q 208 1250 179 1250 q 257 1230 237 1250 q 277 1180 277 1209 q 257 1131 277 1152 q 208 1111 237 1111 m 347 1111 q 298 1131 318 1111 q 277 1180 277 1152 q 298 1230 277 1209 q 347 1250 318 1250 q 396 1230 376 1250 q 416 1180 416 1209 q 396 1131 416 1152 q 347 1111 376 1111 m 486 1111 q 437 1131 457 1111 q 416 1180 416 1152 q 437 1230 416 1209 q 486 1250 457 1250 q 535 1230 515 1250 q 555 1180 555 1209 q 535 1131 555 1152 q 486 1111 515 1111 m 625 1111 q 576 1131 596 1111 q 555 1180 555 1152 q 576 1230 555 1209 q 625 1250 596 1250 q 674 1230 653 1250 q 694 1180 694 1209 q 674 1131 694 1152 q 625 1111 653 1111 m 764 1111 q 714 1131 735 1111 q 694 1180 694 1152 q 714 1230 694 1209 q 764 1250 735 1250 q 812 1230 792 1250 q 833 1180 833 1209 q 812 1131 833 1152 q 764 1111 792 1111 m 903 1111 q 853 1131 873 1111 q 833 1180 833 1152 q 853 1230 833 1209 q 903 1250 873 1250 q 951 1230 931 1250 q 972 1180 972 1209 q 951 1131 972 1152 q 903 1111 931 1111 m 69 1250 q 20 1270 41 1250 q 0 1319 0 1291 q 20 1369 0 1348 q 69 1389 41 1389 q 118 1369 98 1389 q 138 1319 138 1348 q 118 1270 138 1291 q 69 1250 98 1250 m 208 1250 q 159 1270 179 1250 q 138 1319 138 1291 q 159 1369 138 1348 q 208 1389 179 1389 q 257 1369 237 1389 q 277 1319 277 1348 q 257 1270 277 1291 q 208 1250 237 1250 m 347 1250 q 298 1270 318 1250 q 277 1319 277 1291 q 298 1369 277 1348 q 347 1389 318 1389 q 396 1369 376 1389 q 416 1319 416 1348 q 396 1270 416 1291 q 347 1250 376 1250 m 486 1250 q 437 1270 457 1250 q 416 1319 416 1291 q 437 1369 416 1348 q 486 1389 457 1389 q 535 1369 515 1389 q 555 1319 555 1348 q 535 1270 555 1291 q 486 1250 515 1250 m 625 1250 q 576 1270 596 1250 q 555 1319 555 1291 q 576 1369 555 1348 q 625 1389 596 1389 q 674 1369 653 1389 q 694 1319 694 1348 q 674 1270 694 1291 q 625 1250 653 1250 m 764 1250 q 714 1270 735 1250 q 694 1319 694 1291 q 714 1369 694 1348 q 764 1389 735 1389 q 812 1369 792 1389 q 833 1319 833 1348 q 812 1270 833 1291 q 764 1250 792 1250 m 903 1250 q 853 1270 873 1250 q 833 1319 833 1291 q 853 1369 833 1348 q 903 1389 873 1389 q 951 1369 931 1389 q 972 1319 972 1348 q 951 1270 972 1291 q 903 1250 931 1250 z "},"6":{"ha":1512,"x_min":0,"x_max":972,"o":"m 347 0 q 298 20 318 0 q 277 69 277 41 q 298 118 277 98 q 347 138 318 138 q 396 118 376 138 q 416 69 416 98 q 396 20 416 41 q 347 0 376 0 m 486 0 q 437 20 457 0 q 416 69 416 41 q 437 118 416 98 q 486 138 457 138 q 535 118 515 138 q 555 69 555 98 q 535 20 555 41 q 486 0 515 0 m 625 0 q 576 20 596 0 q 555 69 555 41 q 576 118 555 98 q 625 138 596 138 q 674 118 653 138 q 694 69 694 98 q 674 20 694 41 q 625 0 653 0 m 208 138 q 159 159 179 138 q 138 208 138 179 q 159 257 138 237 q 208 277 179 277 q 257 257 237 277 q 277 208 277 237 q 257 159 277 179 q 208 138 237 138 m 347 138 q 298 159 318 138 q 277 208 277 179 q 298 257 277 237 q 347 277 318 277 q 396 257 376 277 q 416 208 416 237 q 396 159 416 179 q 347 138 376 138 m 486 138 q 437 159 457 138 q 416 208 416 179 q 437 257 416 237 q 486 277 457 277 q 535 257 515 277 q 555 208 555 237 q 535 159 555 179 q 486 138 515 138 m 625 138 q 576 159 596 138 q 555 208 555 179 q 576 257 555 237 q 625 277 596 277 q 674 257 653 277 q 694 208 694 237 q 674 159 694 179 q 625 138 653 138 m 764 138 q 714 159 735 138 q 694 208 694 179 q 714 257 694 237 q 764 277 735 277 q 812 257 792 277 q 833 208 833 237 q 812 159 833 179 q 764 138 792 138 m 69 277 q 20 298 41 277 q 0 347 0 318 q 20 396 0 376 q 69 416 41 416 q 118 396 98 416 q 138 347 138 376 q 118 298 138 318 q 69 277 98 277 m 208 277 q 159 298 179 277 q 138 347 138 318 q 159 396 138 376 q 208 416 179 416 q 257 396 237 416 q 277 347 277 376 q 257 298 277 318 q 208 277 237 277 m 764 277 q 714 298 735 277 q 694 347 694 318 q 714 396 694 376 q 764 416 735 416 q 812 396 792 416 q 833 347 833 376 q 812 298 833 318 q 764 277 792 277 m 903 277 q 853 298 873 277 q 833 347 833 318 q 853 396 833 376 q 903 416 873 416 q 951 396 931 416 q 972 347 972 376 q 951 298 972 318 q 903 277 931 277 m 69 416 q 20 437 41 416 q 0 486 0 457 q 20 535 0 515 q 69 555 41 555 q 118 535 98 555 q 138 486 138 515 q 118 437 138 457 q 69 416 98 416 m 208 416 q 159 437 179 416 q 138 486 138 457 q 159 535 138 515 q 208 555 179 555 q 257 535 237 555 q 277 486 277 515 q 257 437 277 457 q 208 416 237 416 m 764 416 q 714 437 735 416 q 694 486 694 457 q 714 535 694 515 q 764 555 735 555 q 812 535 792 555 q 833 486 833 515 q 812 437 833 457 q 764 416 792 416 m 903 416 q 853 437 873 416 q 833 486 833 457 q 853 535 833 515 q 903 555 873 555 q 951 535 931 555 q 972 486 972 515 q 951 437 972 457 q 903 416 931 416 m 69 555 q 20 576 41 555 q 0 625 0 596 q 20 674 0 653 q 69 694 41 694 q 118 674 98 694 q 138 625 138 653 q 118 576 138 596 q 69 555 98 555 m 208 555 q 159 576 179 555 q 138 625 138 596 q 159 674 138 653 q 208 694 179 694 q 257 674 237 694 q 277 625 277 653 q 257 576 277 596 q 208 555 237 555 m 764 555 q 714 576 735 555 q 694 625 694 596 q 714 674 694 653 q 764 694 735 694 q 812 674 792 694 q 833 625 833 653 q 812 576 833 596 q 764 555 792 555 m 69 694 q 20 714 41 694 q 0 764 0 735 q 20 812 0 792 q 69 833 41 833 q 118 812 98 833 q 138 764 138 792 q 118 714 138 735 q 69 694 98 694 m 208 694 q 159 714 179 694 q 138 764 138 735 q 159 812 138 792 q 208 833 179 833 q 257 812 237 833 q 277 764 277 792 q 257 714 277 735 q 208 694 237 694 m 347 694 q 298 714 318 694 q 277 764 277 735 q 298 812 277 792 q 347 833 318 833 q 396 812 376 833 q 416 764 416 792 q 396 714 416 735 q 347 694 376 694 m 486 694 q 437 714 457 694 q 416 764 416 735 q 437 812 416 792 q 486 833 457 833 q 535 812 515 833 q 555 764 555 792 q 535 714 555 735 q 486 694 515 694 m 625 694 q 576 714 596 694 q 555 764 555 735 q 576 812 555 792 q 625 833 596 833 q 674 812 653 833 q 694 764 694 792 q 674 714 694 735 q 625 694 653 694 m 69 833 q 20 853 41 833 q 0 903 0 873 q 20 951 0 931 q 69 972 41 972 q 118 951 98 972 q 138 903 138 931 q 118 853 138 873 q 69 833 98 833 m 208 833 q 159 853 179 833 q 138 903 138 873 q 159 951 138 931 q 208 972 179 972 q 257 951 237 972 q 277 903 277 931 q 257 853 277 873 q 208 833 237 833 m 69 972 q 20 992 41 972 q 0 1042 0 1013 q 20 1090 0 1070 q 69 1111 41 1111 q 118 1090 98 1111 q 138 1042 138 1070 q 118 992 138 1013 q 69 972 98 972 m 208 972 q 159 992 179 972 q 138 1042 138 1013 q 159 1090 138 1070 q 208 1111 179 1111 q 257 1090 237 1111 q 277 1042 277 1070 q 257 992 277 1013 q 208 972 237 972 m 208 1111 q 159 1131 179 1111 q 138 1180 138 1152 q 159 1230 138 1209 q 208 1250 179 1250 q 257 1230 237 1250 q 277 1180 277 1209 q 257 1131 277 1152 q 208 1111 237 1111 m 347 1111 q 298 1131 318 1111 q 277 1180 277 1152 q 298 1230 277 1209 q 347 1250 318 1250 q 396 1230 376 1250 q 416 1180 416 1209 q 396 1131 416 1152 q 347 1111 376 1111 m 486 1111 q 437 1131 457 1111 q 416 1180 416 1152 q 437 1230 416 1209 q 486 1250 457 1250 q 535 1230 515 1250 q 555 1180 555 1209 q 535 1131 555 1152 q 486 1111 515 1111 m 625 1111 q 576 1131 596 1111 q 555 1180 555 1152 q 576 1230 555 1209 q 625 1250 596 1250 q 674 1230 653 1250 q 694 1180 694 1209 q 674 1131 694 1152 q 625 1111 653 1111 m 764 1111 q 714 1131 735 1111 q 694 1180 694 1152 q 714 1230 694 1209 q 764 1250 735 1250 q 812 1230 792 1250 q 833 1180 833 1209 q 812 1131 833 1152 q 764 1111 792 1111 m 903 1111 q 853 1131 873 1111 q 833 1180 833 1152 q 853 1230 833 1209 q 903 1250 873 1250 q 951 1230 931 1250 q 972 1180 972 1209 q 951 1131 972 1152 q 903 1111 931 1111 m 347 1250 q 298 1270 318 1250 q 277 1319 277 1291 q 298 1369 277 1348 q 347 1389 318 1389 q 396 1369 376 1389 q 416 1319 416 1348 q 396 1270 416 1291 q 347 1250 376 1250 m 486 1250 q 437 1270 457 1250 q 416 1319 416 1291 q 437 1369 416 1348 q 486 1389 457 1389 q 535 1369 515 1389 q 555 1319 555 1348 q 535 1270 555 1291 q 486 1250 515 1250 m 625 1250 q 576 1270 596 1250 q 555 1319 555 1291 q 576 1369 555 1348 q 625 1389 596 1389 q 674 1369 653 1389 q 694 1319 694 1348 q 674 1270 694 1291 q 625 1250 653 1250 m 764 1250 q 714 1270 735 1250 q 694 1319 694 1291 q 714 1369 694 1348 q 764 1389 735 1389 q 812 1369 792 1389 q 833 1319 833 1348 q 812 1270 833 1291 q 764 1250 792 1250 z "},"7":{"ha":1512,"x_min":0,"x_max":972,"o":"m 347 0 q 298 20 318 0 q 277 69 277 41 q 298 118 277 98 q 347 138 318 138 q 396 118 376 138 q 416 69 416 98 q 396 20 416 41 q 347 0 376 0 m 486 0 q 437 20 457 0 q 416 69 416 41 q 437 118 416 98 q 486 138 457 138 q 535 118 515 138 q 555 69 555 98 q 535 20 555 41 q 486 0 515 0 m 347 138 q 298 159 318 138 q 277 208 277 179 q 298 257 277 237 q 347 277 318 277 q 396 257 376 277 q 416 208 416 237 q 396 159 416 179 q 347 138 376 138 m 486 138 q 437 159 457 138 q 416 208 416 179 q 437 257 416 237 q 486 277 457 277 q 535 257 515 277 q 555 208 555 237 q 535 159 555 179 q 486 138 515 138 m 486 277 q 437 298 457 277 q 416 347 416 318 q 437 396 416 376 q 486 416 457 416 q 535 396 515 416 q 555 347 555 376 q 535 298 555 318 q 486 277 515 277 m 625 277 q 576 298 596 277 q 555 347 555 318 q 576 396 555 376 q 625 416 596 416 q 674 396 653 416 q 694 347 694 376 q 674 298 694 318 q 625 277 653 277 m 486 416 q 437 437 457 416 q 416 486 416 457 q 437 535 416 515 q 486 555 457 555 q 535 535 515 555 q 555 486 555 515 q 535 437 555 457 q 486 416 515 416 m 625 416 q 576 437 596 416 q 555 486 555 457 q 576 535 555 515 q 625 555 596 555 q 674 535 653 555 q 694 486 694 515 q 674 437 694 457 q 625 416 653 416 m 625 555 q 576 576 596 555 q 555 625 555 596 q 576 674 555 653 q 625 694 596 694 q 674 674 653 694 q 694 625 694 653 q 674 576 694 596 q 625 555 653 555 m 764 555 q 714 576 735 555 q 694 625 694 596 q 714 674 694 653 q 764 694 735 694 q 812 674 792 694 q 833 625 833 653 q 812 576 833 596 q 764 555 792 555 m 625 694 q 576 714 596 694 q 555 764 555 735 q 576 812 555 792 q 625 833 596 833 q 674 812 653 833 q 694 764 694 792 q 674 714 694 735 q 625 694 653 694 m 764 694 q 714 714 735 694 q 694 764 694 735 q 714 812 694 792 q 764 833 735 833 q 812 812 792 833 q 833 764 833 792 q 812 714 833 735 q 764 694 792 694 m 764 833 q 714 853 735 833 q 694 903 694 873 q 714 951 694 931 q 764 972 735 972 q 812 951 792 972 q 833 903 833 931 q 812 853 833 873 q 764 833 792 833 m 903 833 q 853 853 873 833 q 833 903 833 873 q 853 951 833 931 q 903 972 873 972 q 951 951 931 972 q 972 903 972 931 q 951 853 972 873 q 903 833 931 833 m 764 972 q 714 992 735 972 q 694 1042 694 1013 q 714 1090 694 1070 q 764 1111 735 1111 q 812 1090 792 1111 q 833 1042 833 1070 q 812 992 833 1013 q 764 972 792 972 m 903 972 q 853 992 873 972 q 833 1042 833 1013 q 853 1090 833 1070 q 903 1111 873 1111 q 951 1090 931 1111 q 972 1042 972 1070 q 951 992 972 1013 q 903 972 931 972 m 69 1111 q 20 1131 41 1111 q 0 1180 0 1152 q 20 1230 0 1209 q 69 1250 41 1250 q 118 1230 98 1250 q 138 1180 138 1209 q 118 1131 138 1152 q 69 1111 98 1111 m 208 1111 q 159 1131 179 1111 q 138 1180 138 1152 q 159 1230 138 1209 q 208 1250 179 1250 q 257 1230 237 1250 q 277 1180 277 1209 q 257 1131 277 1152 q 208 1111 237 1111 m 347 1111 q 298 1131 318 1111 q 277 1180 277 1152 q 298 1230 277 1209 q 347 1250 318 1250 q 396 1230 376 1250 q 416 1180 416 1209 q 396 1131 416 1152 q 347 1111 376 1111 m 486 1111 q 437 1131 457 1111 q 416 1180 416 1152 q 437 1230 416 1209 q 486 1250 457 1250 q 535 1230 515 1250 q 555 1180 555 1209 q 535 1131 555 1152 q 486 1111 515 1111 m 625 1111 q 576 1131 596 1111 q 555 1180 555 1152 q 576 1230 555 1209 q 625 1250 596 1250 q 674 1230 653 1250 q 694 1180 694 1209 q 674 1131 694 1152 q 625 1111 653 1111 m 764 1111 q 714 1131 735 1111 q 694 1180 694 1152 q 714 1230 694 1209 q 764 1250 735 1250 q 812 1230 792 1250 q 833 1180 833 1209 q 812 1131 833 1152 q 764 1111 792 1111 m 903 1111 q 853 1131 873 1111 q 833 1180 833 1152 q 853 1230 833 1209 q 903 1250 873 1250 q 951 1230 931 1250 q 972 1180 972 1209 q 951 1131 972 1152 q 903 1111 931 1111 m 69 1250 q 20 1270 41 1250 q 0 1319 0 1291 q 20 1369 0 1348 q 69 1389 41 1389 q 118 1369 98 1389 q 138 1319 138 1348 q 118 1270 138 1291 q 69 1250 98 1250 m 208 1250 q 159 1270 179 1250 q 138 1319 138 1291 q 159 1369 138 1348 q 208 1389 179 1389 q 257 1369 237 1389 q 277 1319 277 1348 q 257 1270 277 1291 q 208 1250 237 1250 m 347 1250 q 298 1270 318 1250 q 277 1319 277 1291 q 298 1369 277 1348 q 347 1389 318 1389 q 396 1369 376 1389 q 416 1319 416 1348 q 396 1270 416 1291 q 347 1250 376 1250 m 486 1250 q 437 1270 457 1250 q 416 1319 416 1291 q 437 1369 416 1348 q 486 1389 457 1389 q 535 1369 515 1389 q 555 1319 555 1348 q 535 1270 555 1291 q 486 1250 515 1250 m 625 1250 q 576 1270 596 1250 q 555 1319 555 1291 q 576 1369 555 1348 q 625 1389 596 1389 q 674 1369 653 1389 q 694 1319 694 1348 q 674 1270 694 1291 q 625 1250 653 1250 m 764 1250 q 714 1270 735 1250 q 694 1319 694 1291 q 714 1369 694 1348 q 764 1389 735 1389 q 812 1369 792 1389 q 833 1319 833 1348 q 812 1270 833 1291 q 764 1250 792 1250 m 903 1250 q 853 1270 873 1250 q 833 1319 833 1291 q 853 1369 833 1348 q 903 1389 873 1389 q 951 1369 931 1389 q 972 1319 972 1348 q 951 1270 972 1291 q 903 1250 931 1250 z "},"8":{"ha":1512,"x_min":0,"x_max":972,"o":"m 347 0 q 298 20 318 0 q 277 69 277 41 q 298 118 277 98 q 347 138 318 138 q 396 118 376 138 q 416 69 416 98 q 396 20 416 41 q 347 0 376 0 m 486 0 q 437 20 457 0 q 416 69 416 41 q 437 118 416 98 q 486 138 457 138 q 535 118 515 138 q 555 69 555 98 q 535 20 555 41 q 486 0 515 0 m 625 0 q 576 20 596 0 q 555 69 555 41 q 576 118 555 98 q 625 138 596 138 q 674 118 653 138 q 694 69 694 98 q 674 20 694 41 q 625 0 653 0 m 208 138 q 159 159 179 138 q 138 208 138 179 q 159 257 138 237 q 208 277 179 277 q 257 257 237 277 q 277 208 277 237 q 257 159 277 179 q 208 138 237 138 m 347 138 q 298 159 318 138 q 277 208 277 179 q 298 257 277 237 q 347 277 318 277 q 396 257 376 277 q 416 208 416 237 q 396 159 416 179 q 347 138 376 138 m 486 138 q 437 159 457 138 q 416 208 416 179 q 437 257 416 237 q 486 277 457 277 q 535 257 515 277 q 555 208 555 237 q 535 159 555 179 q 486 138 515 138 m 625 138 q 576 159 596 138 q 555 208 555 179 q 576 257 555 237 q 625 277 596 277 q 674 257 653 277 q 694 208 694 237 q 674 159 694 179 q 625 138 653 138 m 764 138 q 714 159 735 138 q 694 208 694 179 q 714 257 694 237 q 764 277 735 277 q 812 257 792 277 q 833 208 833 237 q 812 159 833 179 q 764 138 792 138 m 69 277 q 20 298 41 277 q 0 347 0 318 q 20 396 0 376 q 69 416 41 416 q 118 396 98 416 q 138 347 138 376 q 118 298 138 318 q 69 277 98 277 m 208 277 q 159 298 179 277 q 138 347 138 318 q 159 396 138 376 q 208 416 179 416 q 257 396 237 416 q 277 347 277 376 q 257 298 277 318 q 208 277 237 277 m 764 277 q 714 298 735 277 q 694 347 694 318 q 714 396 694 376 q 764 416 735 416 q 812 396 792 416 q 833 347 833 376 q 812 298 833 318 q 764 277 792 277 m 903 277 q 853 298 873 277 q 833 347 833 318 q 853 396 833 376 q 903 416 873 416 q 951 396 931 416 q 972 347 972 376 q 951 298 972 318 q 903 277 931 277 m 69 416 q 20 437 41 416 q 0 486 0 457 q 20 535 0 515 q 69 555 41 555 q 118 535 98 555 q 138 486 138 515 q 118 437 138 457 q 69 416 98 416 m 208 416 q 159 437 179 416 q 138 486 138 457 q 159 535 138 515 q 208 555 179 555 q 257 535 237 555 q 277 486 277 515 q 257 437 277 457 q 208 416 237 416 m 764 416 q 714 437 735 416 q 694 486 694 457 q 714 535 694 515 q 764 555 735 555 q 812 535 792 555 q 833 486 833 515 q 812 437 833 457 q 764 416 792 416 m 903 416 q 853 437 873 416 q 833 486 833 457 q 853 535 833 515 q 903 555 873 555 q 951 535 931 555 q 972 486 972 515 q 951 437 972 457 q 903 416 931 416 m 903 555 q 951 576 931 555 q 972 625 972 596 l 972 555 l 903 555 m 208 555 q 159 576 179 555 q 138 625 138 596 q 159 674 138 653 q 208 694 179 694 q 257 674 237 694 q 277 625 277 653 q 257 576 277 596 q 208 555 237 555 m 347 555 q 298 576 318 555 q 277 625 277 596 q 298 674 277 653 q 347 694 318 694 q 396 674 376 694 q 416 625 416 653 q 396 576 416 596 q 347 555 376 555 m 486 555 q 437 576 457 555 q 416 625 416 596 q 437 674 416 653 q 486 694 457 694 q 535 674 515 694 q 555 625 555 653 q 535 576 555 596 q 486 555 515 555 m 625 555 q 576 576 596 555 q 555 625 555 596 q 576 674 555 653 q 625 694 596 694 q 674 674 653 694 q 694 625 694 653 q 674 576 694 596 q 625 555 653 555 m 764 555 q 714 576 735 555 q 694 625 694 596 q 714 674 694 653 q 764 694 735 694 q 812 674 792 694 q 833 625 833 653 q 812 576 833 596 q 764 555 792 555 m 208 694 q 159 714 179 694 q 138 764 138 735 q 159 812 138 792 q 208 833 179 833 q 257 812 237 833 q 277 764 277 792 q 257 714 277 735 q 208 694 237 694 m 347 694 q 298 714 318 694 q 277 764 277 735 q 298 812 277 792 q 347 833 318 833 q 396 812 376 833 q 416 764 416 792 q 396 714 416 735 q 347 694 376 694 m 486 694 q 437 714 457 694 q 416 764 416 735 q 437 812 416 792 q 486 833 457 833 q 535 812 515 833 q 555 764 555 792 q 535 714 555 735 q 486 694 515 694 m 625 694 q 576 714 596 694 q 555 764 555 735 q 576 812 555 792 q 625 833 596 833 q 674 812 653 833 q 694 764 694 792 q 674 714 694 735 q 625 694 653 694 m 764 694 q 714 714 735 694 q 694 764 694 735 q 714 812 694 792 q 764 833 735 833 q 812 812 792 833 q 833 764 833 792 q 812 714 833 735 q 764 694 792 694 m 69 833 q 20 853 41 833 q 0 903 0 873 q 20 951 0 931 q 69 972 41 972 q 118 951 98 972 q 138 903 138 931 q 118 853 138 873 q 69 833 98 833 m 208 833 q 159 853 179 833 q 138 903 138 873 q 159 951 138 931 q 208 972 179 972 q 257 951 237 972 q 277 903 277 931 q 257 853 277 873 q 208 833 237 833 m 764 833 q 714 853 735 833 q 694 903 694 873 q 714 951 694 931 q 764 972 735 972 q 812 951 792 972 q 833 903 833 931 q 812 853 833 873 q 764 833 792 833 m 903 833 q 853 853 873 833 q 833 903 833 873 q 853 951 833 931 q 903 972 873 972 q 951 951 931 972 q 972 903 972 931 q 951 853 972 873 q 903 833 931 833 m 69 972 q 20 992 41 972 q 0 1042 0 1013 q 20 1090 0 1070 q 69 1111 41 1111 q 118 1090 98 1111 q 138 1042 138 1070 q 118 992 138 1013 q 69 972 98 972 m 208 972 q 159 992 179 972 q 138 1042 138 1013 q 159 1090 138 1070 q 208 1111 179 1111 q 257 1090 237 1111 q 277 1042 277 1070 q 257 992 277 1013 q 208 972 237 972 m 764 972 q 714 992 735 972 q 694 1042 694 1013 q 714 1090 694 1070 q 764 1111 735 1111 q 812 1090 792 1111 q 833 1042 833 1070 q 812 992 833 1013 q 764 972 792 972 m 903 972 q 853 992 873 972 q 833 1042 833 1013 q 853 1090 833 1070 q 903 1111 873 1111 q 951 1090 931 1111 q 972 1042 972 1070 q 951 992 972 1013 q 903 972 931 972 m 208 1111 q 159 1131 179 1111 q 138 1180 138 1152 q 159 1230 138 1209 q 208 1250 179 1250 q 257 1230 237 1250 q 277 1180 277 1209 q 257 1131 277 1152 q 208 1111 237 1111 m 347 1111 q 298 1131 318 1111 q 277 1180 277 1152 q 298 1230 277 1209 q 347 1250 318 1250 q 396 1230 376 1250 q 416 1180 416 1209 q 396 1131 416 1152 q 347 1111 376 1111 m 486 1111 q 437 1131 457 1111 q 416 1180 416 1152 q 437 1230 416 1209 q 486 1250 457 1250 q 535 1230 515 1250 q 555 1180 555 1209 q 535 1131 555 1152 q 486 1111 515 1111 m 625 1111 q 576 1131 596 1111 q 555 1180 555 1152 q 576 1230 555 1209 q 625 1250 596 1250 q 674 1230 653 1250 q 694 1180 694 1209 q 674 1131 694 1152 q 625 1111 653 1111 m 764 1111 q 714 1131 735 1111 q 694 1180 694 1152 q 714 1230 694 1209 q 764 1250 735 1250 q 812 1230 792 1250 q 833 1180 833 1209 q 812 1131 833 1152 q 764 1111 792 1111 m 347 1250 q 298 1270 318 1250 q 277 1319 277 1291 q 298 1369 277 1348 q 347 1389 318 1389 q 396 1369 376 1389 q 416 1319 416 1348 q 396 1270 416 1291 q 347 1250 376 1250 m 486 1250 q 437 1270 457 1250 q 416 1319 416 1291 q 437 1369 416 1348 q 486 1389 457 1389 q 535 1369 515 1389 q 555 1319 555 1348 q 535 1270 555 1291 q 486 1250 515 1250 m 625 1250 q 576 1270 596 1250 q 555 1319 555 1291 q 576 1369 555 1348 q 625 1389 596 1389 q 674 1369 653 1389 q 694 1319 694 1348 q 674 1270 694 1291 q 625 1250 653 1250 z "},"9":{"ha":1512,"x_min":0,"x_max":972,"o":"m 208 0 q 159 20 179 0 q 138 69 138 41 q 159 118 138 98 q 208 138 179 138 q 257 118 237 138 q 277 69 277 98 q 257 20 277 41 q 208 0 237 0 m 347 0 q 298 20 318 0 q 277 69 277 41 q 298 118 277 98 q 347 138 318 138 q 396 118 376 138 q 416 69 416 98 q 396 20 416 41 q 347 0 376 0 m 486 0 q 437 20 457 0 q 416 69 416 41 q 437 118 416 98 q 486 138 457 138 q 535 118 515 138 q 555 69 555 98 q 535 20 555 41 q 486 0 515 0 m 625 0 q 576 20 596 0 q 555 69 555 41 q 576 118 555 98 q 625 138 596 138 q 674 118 653 138 q 694 69 694 98 q 674 20 694 41 q 625 0 653 0 m 69 138 q 20 159 41 138 q 0 208 0 179 q 20 257 0 237 q 69 277 41 277 q 118 257 98 277 q 138 208 138 237 q 118 159 138 179 q 69 138 98 138 m 208 138 q 159 159 179 138 q 138 208 138 179 q 159 257 138 237 q 208 277 179 277 q 257 257 237 277 q 277 208 277 237 q 257 159 277 179 q 208 138 237 138 m 347 138 q 298 159 318 138 q 277 208 277 179 q 298 257 277 237 q 347 277 318 277 q 396 257 376 277 q 416 208 416 237 q 396 159 416 179 q 347 138 376 138 m 486 138 q 437 159 457 138 q 416 208 416 179 q 437 257 416 237 q 486 277 457 277 q 535 257 515 277 q 555 208 555 237 q 535 159 555 179 q 486 138 515 138 m 625 138 q 576 159 596 138 q 555 208 555 179 q 576 257 555 237 q 625 277 596 277 q 674 257 653 277 q 694 208 694 237 q 674 159 694 179 q 625 138 653 138 m 764 138 q 714 159 735 138 q 694 208 694 179 q 714 257 694 237 q 764 277 735 277 q 812 257 792 277 q 833 208 833 237 q 812 159 833 179 q 764 138 792 138 m 764 277 q 714 298 735 277 q 694 347 694 318 q 714 396 694 376 q 764 416 735 416 q 812 396 792 416 q 833 347 833 376 q 812 298 833 318 q 764 277 792 277 m 903 277 q 853 298 873 277 q 833 347 833 318 q 853 396 833 376 q 903 416 873 416 q 951 396 931 416 q 972 347 972 376 q 951 298 972 318 q 903 277 931 277 m 764 416 q 714 437 735 416 q 694 486 694 457 q 714 535 694 515 q 764 555 735 555 q 812 535 792 555 q 833 486 833 515 q 812 437 833 457 q 764 416 792 416 m 903 416 q 853 437 873 416 q 833 486 833 457 q 853 535 833 515 q 903 555 873 555 q 951 535 931 555 q 972 486 972 515 q 951 437 972 457 q 903 416 931 416 m 347 555 q 298 576 318 555 q 277 625 277 596 q 298 674 277 653 q 347 694 318 694 q 396 674 376 694 q 416 625 416 653 q 396 576 416 596 q 347 555 376 555 m 486 555 q 437 576 457 555 q 416 625 416 596 q 437 674 416 653 q 486 694 457 694 q 535 674 515 694 q 555 625 555 653 q 535 576 555 596 q 486 555 515 555 m 625 555 q 576 576 596 555 q 555 625 555 596 q 576 674 555 653 q 625 694 596 694 q 674 674 653 694 q 694 625 694 653 q 674 576 694 596 q 625 555 653 555 m 764 555 q 714 576 735 555 q 694 625 694 596 q 714 674 694 653 q 764 694 735 694 q 812 674 792 694 q 833 625 833 653 q 812 576 833 596 q 764 555 792 555 m 903 555 q 853 576 873 555 q 833 625 833 596 q 853 674 833 653 q 903 694 873 694 q 951 674 931 694 q 972 625 972 653 q 951 576 972 596 q 903 555 931 555 m 208 694 q 159 714 179 694 q 138 764 138 735 q 159 812 138 792 q 208 833 179 833 q 257 812 237 833 q 277 764 277 792 q 257 714 277 735 q 208 694 237 694 m 764 694 q 714 714 735 694 q 694 764 694 735 q 714 812 694 792 q 764 833 735 833 q 812 812 792 833 q 833 764 833 792 q 812 714 833 735 q 764 694 792 694 m 903 694 q 853 714 873 694 q 833 764 833 735 q 853 812 833 792 q 903 833 873 833 q 951 812 931 833 q 972 764 972 792 q 951 714 972 735 q 903 694 931 694 m 69 833 q 20 853 41 833 q 0 903 0 873 q 20 951 0 931 q 69 972 41 972 q 118 951 98 972 q 138 903 138 931 q 118 853 138 873 q 69 833 98 833 m 208 833 q 159 853 179 833 q 138 903 138 873 q 159 951 138 931 q 208 972 179 972 q 257 951 237 972 q 277 903 277 931 q 257 853 277 873 q 208 833 237 833 m 764 833 q 714 853 735 833 q 694 903 694 873 q 714 951 694 931 q 764 972 735 972 q 812 951 792 972 q 833 903 833 931 q 812 853 833 873 q 764 833 792 833 m 903 833 q 853 853 873 833 q 833 903 833 873 q 853 951 833 931 q 903 972 873 972 q 951 951 931 972 q 972 903 972 931 q 951 853 972 873 q 903 833 931 833 m 69 972 q 20 992 41 972 q 0 1042 0 1013 q 20 1090 0 1070 q 69 1111 41 1111 q 118 1090 98 1111 q 138 1042 138 1070 q 118 992 138 1013 q 69 972 98 972 m 208 972 q 159 992 179 972 q 138 1042 138 1013 q 159 1090 138 1070 q 208 1111 179 1111 q 257 1090 237 1111 q 277 1042 277 1070 q 257 992 277 1013 q 208 972 237 972 m 764 972 q 714 992 735 972 q 694 1042 694 1013 q 714 1090 694 1070 q 764 1111 735 1111 q 812 1090 792 1111 q 833 1042 833 1070 q 812 992 833 1013 q 764 972 792 972 m 903 972 q 853 992 873 972 q 833 1042 833 1013 q 853 1090 833 1070 q 903 1111 873 1111 q 951 1090 931 1111 q 972 1042 972 1070 q 951 992 972 1013 q 903 972 931 972 m 208 1111 q 159 1131 179 1111 q 138 1180 138 1152 q 159 1230 138 1209 q 208 1250 179 1250 q 257 1230 237 1250 q 277 1180 277 1209 q 257 1131 277 1152 q 208 1111 237 1111 m 347 1111 q 298 1131 318 1111 q 277 1180 277 1152 q 298 1230 277 1209 q 347 1250 318 1250 q 396 1230 376 1250 q 416 1180 416 1209 q 396 1131 416 1152 q 347 1111 376 1111 m 486 1111 q 437 1131 457 1111 q 416 1180 416 1152 q 437 1230 416 1209 q 486 1250 457 1250 q 535 1230 515 1250 q 555 1180 555 1209 q 535 1131 555 1152 q 486 1111 515 1111 m 625 1111 q 576 1131 596 1111 q 555 1180 555 1152 q 576 1230 555 1209 q 625 1250 596 1250 q 674 1230 653 1250 q 694 1180 694 1209 q 674 1131 694 1152 q 625 1111 653 1111 m 764 1111 q 714 1131 735 1111 q 694 1180 694 1152 q 714 1230 694 1209 q 764 1250 735 1250 q 812 1230 792 1250 q 833 1180 833 1209 q 812 1131 833 1152 q 764 1111 792 1111 m 347 1250 q 298 1270 318 1250 q 277 1319 277 1291 q 298 1369 277 1348 q 347 1389 318 1389 q 396 1369 376 1389 q 416 1319 416 1348 q 396 1270 416 1291 q 347 1250 376 1250 m 486 1250 q 437 1270 457 1250 q 416 1319 416 1291 q 437 1369 416 1348 q 486 1389 457 1389 q 535 1369 515 1389 q 555 1319 555 1348 q 535 1270 555 1291 q 486 1250 515 1250 m 625 1250 q 576 1270 596 1250 q 555 1319 555 1291 q 576 1369 555 1348 q 625 1389 596 1389 q 674 1369 653 1389 q 694 1319 694 1348 q 674 1270 694 1291 q 625 1250 653 1250 z "}," ":{"ha":679,"x_min":69,"x_max":138,"o":"m 69 0 q 118 20 98 0 q 138 69 138 41 l 138 0 l 69 0 z "},"!":{"ha":1095,"x_min":277,"x_max":555,"o":"m 347 0 q 298 20 318 0 q 277 69 277 41 q 298 118 277 98 q 347 138 318 138 q 396 118 376 138 q 416 69 416 98 q 396 20 416 41 q 347 0 376 0 m 486 0 q 437 20 457 0 q 416 69 416 41 q 437 118 416 98 q 486 138 457 138 q 535 118 515 138 q 555 69 555 98 q 535 20 555 41 q 486 0 515 0 m 347 138 q 298 159 318 138 q 277 208 277 179 q 298 257 277 237 q 347 277 318 277 q 396 257 376 277 q 416 208 416 237 q 396 159 416 179 q 347 138 376 138 m 486 138 q 437 159 457 138 q 416 208 416 179 q 437 257 416 237 q 486 277 457 277 q 535 257 515 277 q 555 208 555 237 q 535 159 555 179 q 486 138 515 138 m 347 416 q 298 437 318 416 q 277 486 277 457 q 298 535 277 515 q 347 555 318 555 q 396 535 376 555 q 416 486 416 515 q 396 437 416 457 q 347 416 376 416 m 486 416 q 437 437 457 416 q 416 486 416 457 q 437 535 416 515 q 486 555 457 555 q 535 535 515 555 q 555 486 555 515 q 535 437 555 457 q 486 416 515 416 m 347 555 q 298 576 318 555 q 277 625 277 596 q 298 674 277 653 q 347 694 318 694 q 396 674 376 694 q 416 625 416 653 q 396 576 416 596 q 347 555 376 555 m 486 555 q 437 576 457 555 q 416 625 416 596 q 437 674 416 653 q 486 694 457 694 q 535 674 515 694 q 555 625 555 653 q 535 576 555 596 q 486 555 515 555 m 347 694 q 298 714 318 694 q 277 764 277 735 q 298 812 277 792 q 347 833 318 833 q 396 812 376 833 q 416 764 416 792 q 396 714 416 735 q 347 694 376 694 m 486 694 q 437 714 457 694 q 416 764 416 735 q 437 812 416 792 q 486 833 457 833 q 535 812 515 833 q 555 764 555 792 q 535 714 555 735 q 486 694 515 694 m 347 833 q 298 853 318 833 q 277 903 277 873 q 298 951 277 931 q 347 972 318 972 q 396 951 376 972 q 416 903 416 931 q 396 853 416 873 q 347 833 376 833 m 486 833 q 437 853 457 833 q 416 903 416 873 q 437 951 416 931 q 486 972 457 972 q 535 951 515 972 q 555 903 555 931 q 535 853 555 873 q 486 833 515 833 m 347 972 q 298 992 318 972 q 277 1042 277 1013 q 298 1090 277 1070 q 347 1111 318 1111 q 396 1090 376 1111 q 416 1042 416 1070 q 396 992 416 1013 q 347 972 376 972 m 486 972 q 437 992 457 972 q 416 1042 416 1013 q 437 1090 416 1070 q 486 1111 457 1111 q 535 1090 515 1111 q 555 1042 555 1070 q 535 992 555 1013 q 486 972 515 972 m 347 1111 q 298 1131 318 1111 q 277 1180 277 1152 q 298 1230 277 1209 q 347 1250 318 1250 q 396 1230 376 1250 q 416 1180 416 1209 q 396 1131 416 1152 q 347 1111 376 1111 m 486 1111 q 437 1131 457 1111 q 416 1180 416 1152 q 437 1230 416 1209 q 486 1250 457 1250 q 535 1230 515 1250 q 555 1180 555 1209 q 535 1131 555 1152 q 486 1111 515 1111 m 347 1250 q 298 1270 318 1250 q 277 1319 277 1291 q 298 1369 277 1348 q 347 1389 318 1389 q 396 1369 376 1389 q 416 1319 416 1348 q 396 1270 416 1291 q 347 1250 376 1250 m 486 1250 q 437 1270 457 1250 q 416 1319 416 1291 q 437 1369 416 1348 q 486 1389 457 1389 q 535 1369 515 1389 q 555 1319 555 1348 q 535 1270 555 1291 q 486 1250 515 1250 z "},"\"":{"ha":1512,"x_min":277,"x_max":972,"o":"m 347 972 q 298 992 318 972 q 277 1042 277 1013 q 298 1090 277 1070 q 347 1111 318 1111 q 396 1090 376 1111 q 416 1042 416 1070 q 396 992 416 1013 q 347 972 376 972 m 486 972 q 437 992 457 972 q 416 1042 416 1013 q 437 1090 416 1070 q 486 1111 457 1111 q 535 1090 515 1111 q 555 1042 555 1070 q 535 992 555 1013 q 486 972 515 972 m 764 972 q 714 992 735 972 q 694 1042 694 1013 q 714 1090 694 1070 q 764 1111 735 1111 q 812 1090 792 1111 q 833 1042 833 1070 q 812 992 833 1013 q 764 972 792 972 m 903 972 q 853 992 873 972 q 833 1042 833 1013 q 853 1090 833 1070 q 903 1111 873 1111 q 951 1090 931 1111 q 972 1042 972 1070 q 951 992 972 1013 q 903 972 931 972 m 347 1111 q 298 1131 318 1111 q 277 1180 277 1152 q 298 1230 277 1209 q 347 1250 318 1250 q 396 1230 376 1250 q 416 1180 416 1209 q 396 1131 416 1152 q 347 1111 376 1111 m 486 1111 q 437 1131 457 1111 q 416 1180 416 1152 q 437 1230 416 1209 q 486 1250 457 1250 q 535 1230 515 1250 q 555 1180 555 1209 q 535 1131 555 1152 q 486 1111 515 1111 m 764 1111 q 714 1131 735 1111 q 694 1180 694 1152 q 714 1230 694 1209 q 764 1250 735 1250 q 812 1230 792 1250 q 833 1180 833 1209 q 812 1131 833 1152 q 764 1111 792 1111 m 903 1111 q 853 1131 873 1111 q 833 1180 833 1152 q 853 1230 833 1209 q 903 1250 873 1250 q 951 1230 931 1250 q 972 1180 972 1209 q 951 1131 972 1152 q 903 1111 931 1111 m 347 1250 q 298 1270 318 1250 q 277 1319 277 1291 q 298 1369 277 1348 q 347 1389 318 1389 q 396 1369 376 1389 q 416 1319 416 1348 q 396 1270 416 1291 q 347 1250 376 1250 m 486 1250 q 437 1270 457 1250 q 416 1319 416 1291 q 437 1369 416 1348 q 486 1389 457 1389 q 535 1369 515 1389 q 555 1319 555 1348 q 535 1270 555 1291 q 486 1250 515 1250 m 764 1250 q 714 1270 735 1250 q 694 1319 694 1291 q 714 1369 694 1348 q 764 1389 735 1389 q 812 1369 792 1389 q 833 1319 833 1348 q 812 1270 833 1291 q 764 1250 792 1250 m 903 1250 q 853 1270 873 1250 q 833 1319 833 1291 q 853 1369 833 1348 q 903 1389 873 1389 q 951 1369 931 1389 q 972 1319 972 1348 q 951 1270 972 1291 q 903 1250 931 1250 m 347 1389 q 298 1409 318 1389 q 277 1458 277 1430 q 298 1507 277 1487 q 347 1527 318 1527 q 396 1507 376 1527 q 416 1458 416 1487 q 396 1409 416 1430 q 347 1389 376 1389 m 486 1389 q 437 1409 457 1389 q 416 1458 416 1430 q 437 1507 416 1487 q 486 1527 457 1527 q 535 1507 515 1527 q 555 1458 555 1487 q 535 1409 555 1430 q 486 1389 515 1389 m 764 1389 q 714 1409 735 1389 q 694 1458 694 1430 q 714 1507 694 1487 q 764 1527 735 1527 q 812 1507 792 1527 q 833 1458 833 1487 q 812 1409 833 1430 q 764 1389 792 1389 m 903 1389 q 853 1409 873 1389 q 833 1458 833 1430 q 853 1507 833 1487 q 903 1527 873 1527 q 951 1507 931 1527 q 972 1458 972 1487 q 951 1409 972 1430 q 903 1389 931 1389 z "},"#":{"ha":1512,"x_min":0,"x_max":972,"o":"m 208 0 q 159 20 179 0 q 138 69 138 41 q 159 118 138 98 q 208 138 179 138 q 257 118 237 138 q 277 69 277 98 q 257 20 277 41 q 208 0 237 0 m 347 0 q 298 20 318 0 q 277 69 277 41 q 298 118 277 98 q 347 138 318 138 q 396 118 376 138 q 416 69 416 98 q 396 20 416 41 q 347 0 376 0 m 625 0 q 576 20 596 0 q 555 69 555 41 q 576 118 555 98 q 625 138 596 138 q 674 118 653 138 q 694 69 694 98 q 674 20 694 41 q 625 0 653 0 m 764 0 q 714 20 735 0 q 694 69 694 41 q 714 118 694 98 q 764 138 735 138 q 812 118 792 138 q 833 69 833 98 q 812 20 833 41 q 764 0 792 0 m 208 138 q 159 159 179 138 q 138 208 138 179 q 159 257 138 237 q 208 277 179 277 q 257 257 237 277 q 277 208 277 237 q 257 159 277 179 q 208 138 237 138 m 347 138 q 298 159 318 138 q 277 208 277 179 q 298 257 277 237 q 347 277 318 277 q 396 257 376 277 q 416 208 416 237 q 396 159 416 179 q 347 138 376 138 m 625 138 q 576 159 596 138 q 555 208 555 179 q 576 257 555 237 q 625 277 596 277 q 674 257 653 277 q 694 208 694 237 q 674 159 694 179 q 625 138 653 138 m 764 138 q 714 159 735 138 q 694 208 694 179 q 714 257 694 237 q 764 277 735 277 q 812 257 792 277 q 833 208 833 237 q 812 159 833 179 q 764 138 792 138 m 69 277 q 20 298 41 277 q 0 347 0 318 q 20 396 0 376 q 69 416 41 416 q 118 396 98 416 q 138 347 138 376 q 118 298 138 318 q 69 277 98 277 m 208 277 q 159 298 179 277 q 138 347 138 318 q 159 396 138 376 q 208 416 179 416 q 257 396 237 416 q 277 347 277 376 q 257 298 277 318 q 208 277 237 277 m 347 277 q 298 298 318 277 q 277 347 277 318 q 298 396 277 376 q 347 416 318 416 q 396 396 376 416 q 416 347 416 376 q 396 298 416 318 q 347 277 376 277 m 486 277 q 437 298 457 277 q 416 347 416 318 q 437 396 416 376 q 486 416 457 416 q 535 396 515 416 q 555 347 555 376 q 535 298 555 318 q 486 277 515 277 m 625 277 q 576 298 596 277 q 555 347 555 318 q 576 396 555 376 q 625 416 596 416 q 674 396 653 416 q 694 347 694 376 q 674 298 694 318 q 625 277 653 277 m 764 277 q 714 298 735 277 q 694 347 694 318 q 714 396 694 376 q 764 416 735 416 q 812 396 792 416 q 833 347 833 376 q 812 298 833 318 q 764 277 792 277 m 903 277 q 853 298 873 277 q 833 347 833 318 q 853 396 833 376 q 903 416 873 416 q 951 396 931 416 q 972 347 972 376 q 951 298 972 318 q 903 277 931 277 m 69 416 q 20 437 41 416 q 0 486 0 457 q 20 535 0 515 q 69 555 41 555 q 118 535 98 555 q 138 486 138 515 q 118 437 138 457 q 69 416 98 416 m 208 416 q 159 437 179 416 q 138 486 138 457 q 159 535 138 515 q 208 555 179 555 q 257 535 237 555 q 277 486 277 515 q 257 437 277 457 q 208 416 237 416 m 347 416 q 298 437 318 416 q 277 486 277 457 q 298 535 277 515 q 347 555 318 555 q 396 535 376 555 q 416 486 416 515 q 396 437 416 457 q 347 416 376 416 m 486 416 q 437 437 457 416 q 416 486 416 457 q 437 535 416 515 q 486 555 457 555 q 535 535 515 555 q 555 486 555 515 q 535 437 555 457 q 486 416 515 416 m 625 416 q 576 437 596 416 q 555 486 555 457 q 576 535 555 515 q 625 555 596 555 q 674 535 653 555 q 694 486 694 515 q 674 437 694 457 q 625 416 653 416 m 764 416 q 714 437 735 416 q 694 486 694 457 q 714 535 694 515 q 764 555 735 555 q 812 535 792 555 q 833 486 833 515 q 812 437 833 457 q 764 416 792 416 m 903 416 q 853 437 873 416 q 833 486 833 457 q 853 535 833 515 q 903 555 873 555 q 951 535 931 555 q 972 486 972 515 q 951 437 972 457 q 903 416 931 416 m 208 555 q 159 576 179 555 q 138 625 138 596 q 159 674 138 653 q 208 694 179 694 q 257 674 237 694 q 277 625 277 653 q 257 576 277 596 q 208 555 237 555 m 347 555 q 298 576 318 555 q 277 625 277 596 q 298 674 277 653 q 347 694 318 694 q 396 674 376 694 q 416 625 416 653 q 396 576 416 596 q 347 555 376 555 m 625 555 q 576 576 596 555 q 555 625 555 596 q 576 674 555 653 q 625 694 596 694 q 674 674 653 694 q 694 625 694 653 q 674 576 694 596 q 625 555 653 555 m 764 555 q 714 576 735 555 q 694 625 694 596 q 714 674 694 653 q 764 694 735 694 q 812 674 792 694 q 833 625 833 653 q 812 576 833 596 q 764 555 792 555 m 208 694 q 159 714 179 694 q 138 764 138 735 q 159 812 138 792 q 208 833 179 833 q 257 812 237 833 q 277 764 277 792 q 257 714 277 735 q 208 694 237 694 m 347 694 q 298 714 318 694 q 277 764 277 735 q 298 812 277 792 q 347 833 318 833 q 396 812 376 833 q 416 764 416 792 q 396 714 416 735 q 347 694 376 694 m 625 694 q 576 714 596 694 q 555 764 555 735 q 576 812 555 792 q 625 833 596 833 q 674 812 653 833 q 694 764 694 792 q 674 714 694 735 q 625 694 653 694 m 764 694 q 714 714 735 694 q 694 764 694 735 q 714 812 694 792 q 764 833 735 833 q 812 812 792 833 q 833 764 833 792 q 812 714 833 735 q 764 694 792 694 m 69 833 q 20 853 41 833 q 0 903 0 873 q 20 951 0 931 q 69 972 41 972 q 118 951 98 972 q 138 903 138 931 q 118 853 138 873 q 69 833 98 833 m 208 833 q 159 853 179 833 q 138 903 138 873 q 159 951 138 931 q 208 972 179 972 q 257 951 237 972 q 277 903 277 931 q 257 853 277 873 q 208 833 237 833 m 347 833 q 298 853 318 833 q 277 903 277 873 q 298 951 277 931 q 347 972 318 972 q 396 951 376 972 q 416 903 416 931 q 396 853 416 873 q 347 833 376 833 m 486 833 q 437 853 457 833 q 416 903 416 873 q 437 951 416 931 q 486 972 457 972 q 535 951 515 972 q 555 903 555 931 q 535 853 555 873 q 486 833 515 833 m 625 833 q 576 853 596 833 q 555 903 555 873 q 576 951 555 931 q 625 972 596 972 q 674 951 653 972 q 694 903 694 931 q 674 853 694 873 q 625 833 653 833 m 764 833 q 714 853 735 833 q 694 903 694 873 q 714 951 694 931 q 764 972 735 972 q 812 951 792 972 q 833 903 833 931 q 812 853 833 873 q 764 833 792 833 m 903 833 q 853 853 873 833 q 833 903 833 873 q 853 951 833 931 q 903 972 873 972 q 951 951 931 972 q 972 903 972 931 q 951 853 972 873 q 903 833 931 833 m 69 972 q 20 992 41 972 q 0 1042 0 1013 q 20 1090 0 1070 q 69 1111 41 1111 q 118 1090 98 1111 q 138 1042 138 1070 q 118 992 138 1013 q 69 972 98 972 m 208 972 q 159 992 179 972 q 138 1042 138 1013 q 159 1090 138 1070 q 208 1111 179 1111 q 257 1090 237 1111 q 277 1042 277 1070 q 257 992 277 1013 q 208 972 237 972 m 347 972 q 298 992 318 972 q 277 1042 277 1013 q 298 1090 277 1070 q 347 1111 318 1111 q 396 1090 376 1111 q 416 1042 416 1070 q 396 992 416 1013 q 347 972 376 972 m 486 972 q 437 992 457 972 q 416 1042 416 1013 q 437 1090 416 1070 q 486 1111 457 1111 q 535 1090 515 1111 q 555 1042 555 1070 q 535 992 555 1013 q 486 972 515 972 m 625 972 q 576 992 596 972 q 555 1042 555 1013 q 576 1090 555 1070 q 625 1111 596 1111 q 674 1090 653 1111 q 694 1042 694 1070 q 674 992 694 1013 q 625 972 653 972 m 764 972 q 714 992 735 972 q 694 1042 694 1013 q 714 1090 694 1070 q 764 1111 735 1111 q 812 1090 792 1111 q 833 1042 833 1070 q 812 992 833 1013 q 764 972 792 972 m 903 972 q 853 992 873 972 q 833 1042 833 1013 q 853 1090 833 1070 q 903 1111 873 1111 q 951 1090 931 1111 q 972 1042 972 1070 q 951 992 972 1013 q 903 972 931 972 m 208 1111 q 159 1131 179 1111 q 138 1180 138 1152 q 159 1230 138 1209 q 208 1250 179 1250 q 257 1230 237 1250 q 277 1180 277 1209 q 257 1131 277 1152 q 208 1111 237 1111 m 347 1111 q 298 1131 318 1111 q 277 1180 277 1152 q 298 1230 277 1209 q 347 1250 318 1250 q 396 1230 376 1250 q 416 1180 416 1209 q 396 1131 416 1152 q 347 1111 376 1111 m 625 1111 q 576 1131 596 1111 q 555 1180 555 1152 q 576 1230 555 1209 q 625 1250 596 1250 q 674 1230 653 1250 q 694 1180 694 1209 q 674 1131 694 1152 q 625 1111 653 1111 m 764 1111 q 714 1131 735 1111 q 694 1180 694 1152 q 714 1230 694 1209 q 764 1250 735 1250 q 812 1230 792 1250 q 833 1180 833 1209 q 812 1131 833 1152 q 764 1111 792 1111 m 208 1250 q 159 1270 179 1250 q 138 1319 138 1291 q 159 1369 138 1348 q 208 1389 179 1389 q 257 1369 237 1389 q 277 1319 277 1348 q 257 1270 277 1291 q 208 1250 237 1250 m 347 1250 q 298 1270 318 1250 q 277 1319 277 1291 q 298 1369 277 1348 q 347 1389 318 1389 q 396 1369 376 1389 q 416 1319 416 1348 q 396 1270 416 1291 q 347 1250 376 1250 m 625 1250 q 576 1270 596 1250 q 555 1319 555 1291 q 576 1369 555 1348 q 625 1389 596 1389 q 674 1369 653 1389 q 694 1319 694 1348 q 674 1270 694 1291 q 625 1250 653 1250 m 764 1250 q 714 1270 735 1250 q 694 1319 694 1291 q 714 1369 694 1348 q 764 1389 735 1389 q 812 1369 792 1389 q 833 1319 833 1348 q 812 1270 833 1291 q 764 1250 792 1250 z "},"$":{"ha":1512,"x_min":0,"x_max":972,"o":"m 486 0 q 437 20 457 0 q 416 69 416 41 q 437 118 416 98 q 486 138 457 138 q 535 118 515 138 q 555 69 555 98 q 535 20 555 41 q 486 0 515 0 m 208 138 q 159 159 179 138 q 138 208 138 179 q 159 257 138 237 q 208 277 179 277 q 257 257 237 277 q 277 208 277 237 q 257 159 277 179 q 208 138 237 138 m 347 138 q 298 159 318 138 q 277 208 277 179 q 298 257 277 237 q 347 277 318 277 q 396 257 376 277 q 416 208 416 237 q 396 159 416 179 q 347 138 376 138 m 486 138 q 437 159 457 138 q 416 208 416 179 q 437 257 416 237 q 486 277 457 277 q 535 257 515 277 q 555 208 555 237 q 535 159 555 179 q 486 138 515 138 m 625 138 q 576 159 596 138 q 555 208 555 179 q 576 257 555 237 q 625 277 596 277 q 674 257 653 277 q 694 208 694 237 q 674 159 694 179 q 625 138 653 138 m 764 138 q 714 159 735 138 q 694 208 694 179 q 714 257 694 237 q 764 277 735 277 q 812 257 792 277 q 833 208 833 237 q 812 159 833 179 q 764 138 792 138 m 69 277 q 20 298 41 277 q 0 347 0 318 q 20 396 0 376 q 69 416 41 416 q 118 396 98 416 q 138 347 138 376 q 118 298 138 318 q 69 277 98 277 m 208 277 q 159 298 179 277 q 138 347 138 318 q 159 396 138 376 q 208 416 179 416 q 257 396 237 416 q 277 347 277 376 q 257 298 277 318 q 208 277 237 277 m 347 277 q 298 298 318 277 q 277 347 277 318 q 298 396 277 376 q 347 416 318 416 q 396 396 376 416 q 416 347 416 376 q 396 298 416 318 q 347 277 376 277 m 486 277 q 437 298 457 277 q 416 347 416 318 q 437 396 416 376 q 486 416 457 416 q 535 396 515 416 q 555 347 555 376 q 535 298 555 318 q 486 277 515 277 m 625 277 q 576 298 596 277 q 555 347 555 318 q 576 396 555 376 q 625 416 596 416 q 674 396 653 416 q 694 347 694 376 q 674 298 694 318 q 625 277 653 277 m 764 277 q 714 298 735 277 q 694 347 694 318 q 714 396 694 376 q 764 416 735 416 q 812 396 792 416 q 833 347 833 376 q 812 298 833 318 q 764 277 792 277 m 903 277 q 853 298 873 277 q 833 347 833 318 q 853 396 833 376 q 903 416 873 416 q 951 396 931 416 q 972 347 972 376 q 951 298 972 318 q 903 277 931 277 m 486 416 q 437 437 457 416 q 416 486 416 457 q 437 535 416 515 q 486 555 457 555 q 535 535 515 555 q 555 486 555 515 q 535 437 555 457 q 486 416 515 416 m 764 416 q 714 437 735 416 q 694 486 694 457 q 714 535 694 515 q 764 555 735 555 q 812 535 792 555 q 833 486 833 515 q 812 437 833 457 q 764 416 792 416 m 903 416 q 853 437 873 416 q 833 486 833 457 q 853 535 833 515 q 903 555 873 555 q 951 535 931 555 q 972 486 972 515 q 951 437 972 457 q 903 416 931 416 m 208 555 q 159 576 179 555 q 138 625 138 596 q 159 674 138 653 q 208 694 179 694 q 257 674 237 694 q 277 625 277 653 q 257 576 277 596 q 208 555 237 555 m 347 555 q 298 576 318 555 q 277 625 277 596 q 298 674 277 653 q 347 694 318 694 q 396 674 376 694 q 416 625 416 653 q 396 576 416 596 q 347 555 376 555 m 486 555 q 437 576 457 555 q 416 625 416 596 q 437 674 416 653 q 486 694 457 694 q 535 674 515 694 q 555 625 555 653 q 535 576 555 596 q 486 555 515 555 m 625 555 q 576 576 596 555 q 555 625 555 596 q 576 674 555 653 q 625 694 596 694 q 674 674 653 694 q 694 625 694 653 q 674 576 694 596 q 625 555 653 555 m 764 555 q 714 576 735 555 q 694 625 694 596 q 714 674 694 653 q 764 694 735 694 q 812 674 792 694 q 833 625 833 653 q 812 576 833 596 q 764 555 792 555 m 903 555 q 853 576 873 555 q 833 625 833 596 q 853 674 833 653 q 903 694 873 694 q 951 674 931 694 q 972 625 972 653 q 951 576 972 596 q 903 555 931 555 m 208 694 q 159 714 179 694 q 138 764 138 735 q 159 812 138 792 q 208 833 179 833 q 257 812 237 833 q 277 764 277 792 q 257 714 277 735 q 208 694 237 694 m 347 694 q 298 714 318 694 q 277 764 277 735 q 298 812 277 792 q 347 833 318 833 q 396 812 376 833 q 416 764 416 792 q 396 714 416 735 q 347 694 376 694 m 486 694 q 437 714 457 694 q 416 764 416 735 q 437 812 416 792 q 486 833 457 833 q 535 812 515 833 q 555 764 555 792 q 535 714 555 735 q 486 694 515 694 m 625 694 q 576 714 596 694 q 555 764 555 735 q 576 812 555 792 q 625 833 596 833 q 674 812 653 833 q 694 764 694 792 q 674 714 694 735 q 625 694 653 694 m 764 694 q 714 714 735 694 q 694 764 694 735 q 714 812 694 792 q 764 833 735 833 q 812 812 792 833 q 833 764 833 792 q 812 714 833 735 q 764 694 792 694 m 69 833 q 20 853 41 833 q 0 903 0 873 q 20 951 0 931 q 69 972 41 972 q 118 951 98 972 q 138 903 138 931 q 118 853 138 873 q 69 833 98 833 m 208 833 q 159 853 179 833 q 138 903 138 873 q 159 951 138 931 q 208 972 179 972 q 257 951 237 972 q 277 903 277 931 q 257 853 277 873 q 208 833 237 833 m 486 833 q 437 853 457 833 q 416 903 416 873 q 437 951 416 931 q 486 972 457 972 q 535 951 515 972 q 555 903 555 931 q 535 853 555 873 q 486 833 515 833 m 69 972 q 20 992 41 972 q 0 1042 0 1013 q 20 1090 0 1070 q 69 1111 41 1111 q 118 1090 98 1111 q 138 1042 138 1070 q 118 992 138 1013 q 69 972 98 972 m 208 972 q 159 992 179 972 q 138 1042 138 1013 q 159 1090 138 1070 q 208 1111 179 1111 q 257 1090 237 1111 q 277 1042 277 1070 q 257 992 277 1013 q 208 972 237 972 m 347 972 q 298 992 318 972 q 277 1042 277 1013 q 298 1090 277 1070 q 347 1111 318 1111 q 396 1090 376 1111 q 416 1042 416 1070 q 396 992 416 1013 q 347 972 376 972 m 486 972 q 437 992 457 972 q 416 1042 416 1013 q 437 1090 416 1070 q 486 1111 457 1111 q 535 1090 515 1111 q 555 1042 555 1070 q 535 992 555 1013 q 486 972 515 972 m 625 972 q 576 992 596 972 q 555 1042 555 1013 q 576 1090 555 1070 q 625 1111 596 1111 q 674 1090 653 1111 q 694 1042 694 1070 q 674 992 694 1013 q 625 972 653 972 m 764 972 q 714 992 735 972 q 694 1042 694 1013 q 714 1090 694 1070 q 764 1111 735 1111 q 812 1090 792 1111 q 833 1042 833 1070 q 812 992 833 1013 q 764 972 792 972 m 903 972 q 853 992 873 972 q 833 1042 833 1013 q 853 1090 833 1070 q 903 1111 873 1111 q 951 1090 931 1111 q 972 1042 972 1070 q 951 992 972 1013 q 903 972 931 972 m 208 1111 q 159 1131 179 1111 q 138 1180 138 1152 q 159 1230 138 1209 q 208 1250 179 1250 q 257 1230 237 1250 q 277 1180 277 1209 q 257 1131 277 1152 q 208 1111 237 1111 m 347 1111 q 298 1131 318 1111 q 277 1180 277 1152 q 298 1230 277 1209 q 347 1250 318 1250 q 396 1230 376 1250 q 416 1180 416 1209 q 396 1131 416 1152 q 347 1111 376 1111 m 486 1111 q 437 1131 457 1111 q 416 1180 416 1152 q 437 1230 416 1209 q 486 1250 457 1250 q 535 1230 515 1250 q 555 1180 555 1209 q 535 1131 555 1152 q 486 1111 515 1111 m 625 1111 q 576 1131 596 1111 q 555 1180 555 1152 q 576 1230 555 1209 q 625 1250 596 1250 q 674 1230 653 1250 q 694 1180 694 1209 q 674 1131 694 1152 q 625 1111 653 1111 m 764 1111 q 714 1131 735 1111 q 694 1180 694 1152 q 714 1230 694 1209 q 764 1250 735 1250 q 812 1230 792 1250 q 833 1180 833 1209 q 812 1131 833 1152 q 764 1111 792 1111 m 486 1250 q 437 1270 457 1250 q 416 1319 416 1291 q 437 1369 416 1348 q 486 1389 457 1389 q 535 1369 515 1389 q 555 1319 555 1348 q 535 1270 555 1291 q 486 1250 515 1250 z "},"%":{"ha":1512,"x_min":0,"x_max":972,"o":"m 69 0 q 20 20 41 0 q 0 69 0 41 q 20 118 0 98 q 69 138 41 138 q 118 118 98 138 q 138 69 138 98 q 118 20 138 41 q 69 0 98 0 m 208 0 q 159 20 179 0 q 138 69 138 41 q 159 118 138 98 q 208 138 179 138 q 257 118 237 138 q 277 69 277 98 q 257 20 277 41 q 208 0 237 0 m 764 0 q 714 20 735 0 q 694 69 694 41 q 714 118 694 98 q 764 138 735 138 q 812 118 792 138 q 833 69 833 98 q 812 20 833 41 q 764 0 792 0 m 903 0 q 853 20 873 0 q 833 69 833 41 q 853 118 833 98 q 903 138 873 138 q 951 118 931 138 q 972 69 972 98 q 951 20 972 41 q 903 0 931 0 m 69 138 q 20 159 41 138 q 0 208 0 179 q 20 257 0 237 q 69 277 41 277 q 118 257 98 277 q 138 208 138 237 q 118 159 138 179 q 69 138 98 138 m 208 138 q 159 159 179 138 q 138 208 138 179 q 159 257 138 237 q 208 277 179 277 q 257 257 237 277 q 277 208 277 237 q 257 159 277 179 q 208 138 237 138 m 764 138 q 714 159 735 138 q 694 208 694 179 q 714 257 694 237 q 764 277 735 277 q 812 257 792 277 q 833 208 833 237 q 812 159 833 179 q 764 138 792 138 m 903 138 q 853 159 873 138 q 833 208 833 179 q 853 257 833 237 q 903 277 873 277 q 951 257 931 277 q 972 208 972 237 q 951 159 972 179 q 903 138 931 138 m 69 277 q 20 298 41 277 q 0 347 0 318 q 20 396 0 376 q 69 416 41 416 q 118 396 98 416 q 138 347 138 376 q 118 298 138 318 q 69 277 98 277 m 208 277 q 159 298 179 277 q 138 347 138 318 q 159 396 138 376 q 208 416 179 416 q 257 396 237 416 q 277 347 277 376 q 257 298 277 318 q 208 277 237 277 m 208 416 q 159 437 179 416 q 138 486 138 457 q 159 535 138 515 q 208 555 179 555 q 257 535 237 555 q 277 486 277 515 q 257 437 277 457 q 208 416 237 416 m 347 416 q 298 437 318 416 q 277 486 277 457 q 298 535 277 515 q 347 555 318 555 q 396 535 376 555 q 416 486 416 515 q 396 437 416 457 q 347 416 376 416 m 347 555 q 298 576 318 555 q 277 625 277 596 q 298 674 277 653 q 347 694 318 694 q 396 674 376 694 q 416 625 416 653 q 396 576 416 596 q 347 555 376 555 m 486 555 q 437 576 457 555 q 416 625 416 596 q 437 674 416 653 q 486 694 457 694 q 535 674 515 694 q 555 625 555 653 q 535 576 555 596 q 486 555 515 555 m 486 694 q 437 714 457 694 q 416 764 416 735 q 437 812 416 792 q 486 833 457 833 q 535 812 515 833 q 555 764 555 792 q 535 714 555 735 q 486 694 515 694 m 625 694 q 576 714 596 694 q 555 764 555 735 q 576 812 555 792 q 625 833 596 833 q 674 812 653 833 q 694 764 694 792 q 674 714 694 735 q 625 694 653 694 m 625 833 q 576 853 596 833 q 555 903 555 873 q 576 951 555 931 q 625 972 596 972 q 674 951 653 972 q 694 903 694 931 q 674 853 694 873 q 625 833 653 833 m 764 833 q 714 853 735 833 q 694 903 694 873 q 714 951 694 931 q 764 972 735 972 q 812 951 792 972 q 833 903 833 931 q 812 853 833 873 q 764 833 792 833 m 764 972 q 714 992 735 972 q 694 1042 694 1013 q 714 1090 694 1070 q 764 1111 735 1111 q 812 1090 792 1111 q 833 1042 833 1070 q 812 992 833 1013 q 764 972 792 972 m 903 972 q 853 992 873 972 q 833 1042 833 1013 q 853 1090 833 1070 q 903 1111 873 1111 q 951 1090 931 1111 q 972 1042 972 1070 q 951 992 972 1013 q 903 972 931 972 m 69 1111 q 20 1131 41 1111 q 0 1180 0 1152 q 20 1230 0 1209 q 69 1250 41 1250 q 118 1230 98 1250 q 138 1180 138 1209 q 118 1131 138 1152 q 69 1111 98 1111 m 208 1111 q 159 1131 179 1111 q 138 1180 138 1152 q 159 1230 138 1209 q 208 1250 179 1250 q 257 1230 237 1250 q 277 1180 277 1209 q 257 1131 277 1152 q 208 1111 237 1111 m 764 1111 q 714 1131 735 1111 q 694 1180 694 1152 q 714 1230 694 1209 q 764 1250 735 1250 q 812 1230 792 1250 q 833 1180 833 1209 q 812 1131 833 1152 q 764 1111 792 1111 m 903 1111 q 853 1131 873 1111 q 833 1180 833 1152 q 853 1230 833 1209 q 903 1250 873 1250 q 951 1230 931 1250 q 972 1180 972 1209 q 951 1131 972 1152 q 903 1111 931 1111 m 69 1250 q 20 1270 41 1250 q 0 1319 0 1291 q 20 1369 0 1348 q 69 1389 41 1389 q 118 1369 98 1389 q 138 1319 138 1348 q 118 1270 138 1291 q 69 1250 98 1250 m 208 1250 q 159 1270 179 1250 q 138 1319 138 1291 q 159 1369 138 1348 q 208 1389 179 1389 q 257 1369 237 1389 q 277 1319 277 1348 q 257 1270 277 1291 q 208 1250 237 1250 m 764 1250 q 714 1270 735 1250 q 694 1319 694 1291 q 714 1369 694 1348 q 764 1389 735 1389 q 812 1369 792 1389 q 833 1319 833 1348 q 812 1270 833 1291 q 764 1250 792 1250 m 903 1250 q 853 1270 873 1250 q 833 1319 833 1291 q 853 1369 833 1348 q 903 1389 873 1389 q 951 1369 931 1389 q 972 1319 972 1348 q 951 1270 972 1291 q 903 1250 931 1250 z "},"&":{"ha":1512,"x_min":0,"x_max":972,"o":"m 208 0 q 159 20 179 0 q 138 69 138 41 q 159 118 138 98 q 208 138 179 138 q 257 118 237 138 q 277 69 277 98 q 257 20 277 41 q 208 0 237 0 m 347 0 q 298 20 318 0 q 277 69 277 41 q 298 118 277 98 q 347 138 318 138 q 396 118 376 138 q 416 69 416 98 q 396 20 416 41 q 347 0 376 0 m 486 0 q 437 20 457 0 q 416 69 416 41 q 437 118 416 98 q 486 138 457 138 q 535 118 515 138 q 555 69 555 98 q 535 20 555 41 q 486 0 515 0 m 764 0 q 714 20 735 0 q 694 69 694 41 q 714 118 694 98 q 764 138 735 138 q 812 118 792 138 q 833 69 833 98 q 812 20 833 41 q 764 0 792 0 m 903 0 q 853 20 873 0 q 833 69 833 41 q 853 118 833 98 q 903 138 873 138 q 951 118 931 138 q 972 69 972 98 q 951 20 972 41 q 903 0 931 0 m 69 138 q 20 159 41 138 q 0 208 0 179 q 20 257 0 237 q 69 277 41 277 q 118 257 98 277 q 138 208 138 237 q 118 159 138 179 q 69 138 98 138 m 208 138 q 159 159 179 138 q 138 208 138 179 q 159 257 138 237 q 208 277 179 277 q 257 257 237 277 q 277 208 277 237 q 257 159 277 179 q 208 138 237 138 m 347 138 q 298 159 318 138 q 277 208 277 179 q 298 257 277 237 q 347 277 318 277 q 396 257 376 277 q 416 208 416 237 q 396 159 416 179 q 347 138 376 138 m 486 138 q 437 159 457 138 q 416 208 416 179 q 437 257 416 237 q 486 277 457 277 q 535 257 515 277 q 555 208 555 237 q 535 159 555 179 q 486 138 515 138 m 625 138 q 576 159 596 138 q 555 208 555 179 q 576 257 555 237 q 625 277 596 277 q 674 257 653 277 q 694 208 694 237 q 674 159 694 179 q 625 138 653 138 m 764 138 q 714 159 735 138 q 694 208 694 179 q 714 257 694 237 q 764 277 735 277 q 812 257 792 277 q 833 208 833 237 q 812 159 833 179 q 764 138 792 138 m 903 138 q 853 159 873 138 q 833 208 833 179 q 853 257 833 237 q 903 277 873 277 q 951 257 931 277 q 972 208 972 237 q 951 159 972 179 q 903 138 931 138 m 69 277 q 20 298 41 277 q 0 347 0 318 q 20 396 0 376 q 69 416 41 416 q 118 396 98 416 q 138 347 138 376 q 118 298 138 318 q 69 277 98 277 m 208 277 q 159 298 179 277 q 138 347 138 318 q 159 396 138 376 q 208 416 179 416 q 257 396 237 416 q 277 347 277 376 q 257 298 277 318 q 208 277 237 277 m 625 277 q 576 298 596 277 q 555 347 555 318 q 576 396 555 376 q 625 416 596 416 q 674 396 653 416 q 694 347 694 376 q 674 298 694 318 q 625 277 653 277 m 764 277 q 714 298 735 277 q 694 347 694 318 q 714 396 694 376 q 764 416 735 416 q 812 396 792 416 q 833 347 833 376 q 812 298 833 318 q 764 277 792 277 m 69 416 q 20 437 41 416 q 0 486 0 457 q 20 535 0 515 q 69 555 41 555 q 118 535 98 555 q 138 486 138 515 q 118 437 138 457 q 69 416 98 416 m 208 416 q 159 437 179 416 q 138 486 138 457 q 159 535 138 515 q 208 555 179 555 q 257 535 237 555 q 277 486 277 515 q 257 437 277 457 q 208 416 237 416 m 486 416 q 437 437 457 416 q 416 486 416 457 q 437 535 416 515 q 486 555 457 555 q 535 535 515 555 q 555 486 555 515 q 535 437 555 457 q 486 416 515 416 m 625 416 q 576 437 596 416 q 555 486 555 457 q 576 535 555 515 q 625 555 596 555 q 674 535 653 555 q 694 486 694 515 q 674 437 694 457 q 625 416 653 416 m 764 416 q 714 437 735 416 q 694 486 694 457 q 714 535 694 515 q 764 555 735 555 q 812 535 792 555 q 833 486 833 515 q 812 437 833 457 q 764 416 792 416 m 903 416 q 853 437 873 416 q 833 486 833 457 q 853 535 833 515 q 903 555 873 555 q 951 535 931 555 q 972 486 972 515 q 951 437 972 457 q 903 416 931 416 m 69 555 q 20 576 41 555 q 0 625 0 596 q 20 674 0 653 q 69 694 41 694 q 118 674 98 694 q 138 625 138 653 q 118 576 138 596 q 69 555 98 555 m 208 555 q 159 576 179 555 q 138 625 138 596 q 159 674 138 653 q 208 694 179 694 q 257 674 237 694 q 277 625 277 653 q 257 576 277 596 q 208 555 237 555 m 347 555 q 298 576 318 555 q 277 625 277 596 q 298 674 277 653 q 347 694 318 694 q 396 674 376 694 q 416 625 416 653 q 396 576 416 596 q 347 555 376 555 m 486 555 q 437 576 457 555 q 416 625 416 596 q 437 674 416 653 q 486 694 457 694 q 535 674 515 694 q 555 625 555 653 q 535 576 555 596 q 486 555 515 555 m 625 555 q 576 576 596 555 q 555 625 555 596 q 576 674 555 653 q 625 694 596 694 q 674 674 653 694 q 694 625 694 653 q 674 576 694 596 q 625 555 653 555 m 903 555 q 853 576 873 555 q 833 625 833 596 q 853 674 833 653 q 903 694 873 694 q 951 674 931 694 q 972 625 972 653 q 951 576 972 596 q 903 555 931 555 m 208 694 q 159 714 179 694 q 138 764 138 735 q 159 812 138 792 q 208 833 179 833 q 257 812 237 833 q 277 764 277 792 q 257 714 277 735 q 208 694 237 694 m 347 694 q 298 714 318 694 q 277 764 277 735 q 298 812 277 792 q 347 833 318 833 q 396 812 376 833 q 416 764 416 792 q 396 714 416 735 q 347 694 376 694 m 486 694 q 437 714 457 694 q 416 764 416 735 q 437 812 416 792 q 486 833 457 833 q 535 812 515 833 q 555 764 555 792 q 535 714 555 735 q 486 694 515 694 m 625 694 q 576 714 596 694 q 555 764 555 735 q 576 812 555 792 q 625 833 596 833 q 674 812 653 833 q 694 764 694 792 q 674 714 694 735 q 625 694 653 694 m 764 694 q 714 714 735 694 q 694 764 694 735 q 714 812 694 792 q 764 833 735 833 q 812 812 792 833 q 833 764 833 792 q 812 714 833 735 q 764 694 792 694 m 69 833 q 20 853 41 833 q 0 903 0 873 q 20 951 0 931 q 69 972 41 972 q 118 951 98 972 q 138 903 138 931 q 118 853 138 873 q 69 833 98 833 m 208 833 q 159 853 179 833 q 138 903 138 873 q 159 951 138 931 q 208 972 179 972 q 257 951 237 972 q 277 903 277 931 q 257 853 277 873 q 208 833 237 833 m 625 833 q 576 853 596 833 q 555 903 555 873 q 576 951 555 931 q 625 972 596 972 q 674 951 653 972 q 694 903 694 931 q 674 853 694 873 q 625 833 653 833 m 764 833 q 714 853 735 833 q 694 903 694 873 q 714 951 694 931 q 764 972 735 972 q 812 951 792 972 q 833 903 833 931 q 812 853 833 873 q 764 833 792 833 m 903 833 q 853 853 873 833 q 833 903 833 873 q 853 951 833 931 q 903 972 873 972 q 951 951 931 972 q 972 903 972 931 q 951 853 972 873 q 903 833 931 833 m 69 972 q 20 992 41 972 q 0 1042 0 1013 q 20 1090 0 1070 q 69 1111 41 1111 q 118 1090 98 1111 q 138 1042 138 1070 q 118 992 138 1013 q 69 972 98 972 m 208 972 q 159 992 179 972 q 138 1042 138 1013 q 159 1090 138 1070 q 208 1111 179 1111 q 257 1090 237 1111 q 277 1042 277 1070 q 257 992 277 1013 q 208 972 237 972 m 764 972 q 714 992 735 972 q 694 1042 694 1013 q 714 1090 694 1070 q 764 1111 735 1111 q 812 1090 792 1111 q 833 1042 833 1070 q 812 992 833 1013 q 764 972 792 972 m 903 972 q 853 992 873 972 q 833 1042 833 1013 q 853 1090 833 1070 q 903 1111 873 1111 q 951 1090 931 1111 q 972 1042 972 1070 q 951 992 972 1013 q 903 972 931 972 m 69 1111 q 20 1131 41 1111 q 0 1180 0 1152 q 20 1230 0 1209 q 69 1250 41 1250 q 118 1230 98 1250 q 138 1180 138 1209 q 118 1131 138 1152 q 69 1111 98 1111 m 208 1111 q 159 1131 179 1111 q 138 1180 138 1152 q 159 1230 138 1209 q 208 1250 179 1250 q 257 1230 237 1250 q 277 1180 277 1209 q 257 1131 277 1152 q 208 1111 237 1111 m 347 1111 q 298 1131 318 1111 q 277 1180 277 1152 q 298 1230 277 1209 q 347 1250 318 1250 q 396 1230 376 1250 q 416 1180 416 1209 q 396 1131 416 1152 q 347 1111 376 1111 m 486 1111 q 437 1131 457 1111 q 416 1180 416 1152 q 437 1230 416 1209 q 486 1250 457 1250 q 535 1230 515 1250 q 555 1180 555 1209 q 535 1131 555 1152 q 486 1111 515 1111 m 625 1111 q 576 1131 596 1111 q 555 1180 555 1152 q 576 1230 555 1209 q 625 1250 596 1250 q 674 1230 653 1250 q 694 1180 694 1209 q 674 1131 694 1152 q 625 1111 653 1111 m 764 1111 q 714 1131 735 1111 q 694 1180 694 1152 q 714 1230 694 1209 q 764 1250 735 1250 q 812 1230 792 1250 q 833 1180 833 1209 q 812 1131 833 1152 q 764 1111 792 1111 m 903 1111 q 853 1131 873 1111 q 833 1180 833 1152 q 853 1230 833 1209 q 903 1250 873 1250 q 951 1230 931 1250 q 972 1180 972 1209 q 951 1131 972 1152 q 903 1111 931 1111 m 208 1250 q 159 1270 179 1250 q 138 1319 138 1291 q 159 1369 138 1348 q 208 1389 179 1389 q 257 1369 237 1389 q 277 1319 277 1348 q 257 1270 277 1291 q 208 1250 237 1250 m 347 1250 q 298 1270 318 1250 q 277 1319 277 1291 q 298 1369 277 1348 q 347 1389 318 1389 q 396 1369 376 1389 q 416 1319 416 1348 q 396 1270 416 1291 q 347 1250 376 1250 m 486 1250 q 437 1270 457 1250 q 416 1319 416 1291 q 437 1369 416 1348 q 486 1389 457 1389 q 535 1369 515 1389 q 555 1319 555 1348 q 535 1270 555 1291 q 486 1250 515 1250 m 625 1250 q 576 1270 596 1250 q 555 1319 555 1291 q 576 1369 555 1348 q 625 1389 596 1389 q 674 1369 653 1389 q 694 1319 694 1348 q 674 1270 694 1291 q 625 1250 653 1250 m 764 1250 q 714 1270 735 1250 q 694 1319 694 1291 q 714 1369 694 1348 q 764 1389 735 1389 q 812 1369 792 1389 q 833 1319 833 1348 q 812 1270 833 1291 q 764 1250 792 1250 z "},"'":{"ha":1234,"x_min":416,"x_max":694,"o":"m 486 972 q 437 992 457 972 q 416 1042 416 1013 q 437 1090 416 1070 q 486 1111 457 1111 q 535 1090 515 1111 q 555 1042 555 1070 q 535 992 555 1013 q 486 972 515 972 m 625 972 q 576 992 596 972 q 555 1042 555 1013 q 576 1090 555 1070 q 625 1111 596 1111 q 674 1090 653 1111 q 694 1042 694 1070 q 674 992 694 1013 q 625 972 653 972 m 486 1111 q 437 1131 457 1111 q 416 1180 416 1152 q 437 1230 416 1209 q 486 1250 457 1250 q 535 1230 515 1250 q 555 1180 555 1209 q 535 1131 555 1152 q 486 1111 515 1111 m 625 1111 q 576 1131 596 1111 q 555 1180 555 1152 q 576 1230 555 1209 q 625 1250 596 1250 q 674 1230 653 1250 q 694 1180 694 1209 q 674 1131 694 1152 q 625 1111 653 1111 m 486 1250 q 437 1270 457 1250 q 416 1319 416 1291 q 437 1369 416 1348 q 486 1389 457 1389 q 535 1369 515 1389 q 555 1319 555 1348 q 535 1270 555 1291 q 486 1250 515 1250 m 625 1250 q 576 1270 596 1250 q 555 1319 555 1291 q 576 1369 555 1348 q 625 1389 596 1389 q 674 1369 653 1389 q 694 1319 694 1348 q 674 1270 694 1291 q 625 1250 653 1250 m 486 1389 q 437 1409 457 1389 q 416 1458 416 1430 q 437 1507 416 1487 q 486 1527 457 1527 q 535 1507 515 1527 q 555 1458 555 1487 q 535 1409 555 1430 q 486 1389 515 1389 m 625 1389 q 576 1409 596 1389 q 555 1458 555 1430 q 576 1507 555 1487 q 625 1527 596 1527 q 674 1507 653 1527 q 694 1458 694 1487 q 674 1409 694 1430 q 625 1389 653 1389 z "},"(":{"ha":1512,"x_min":0,"x_max":972,"o":"m 347 277 q 298 298 318 277 q 277 347 277 318 q 298 396 277 376 q 347 416 318 416 q 396 396 376 416 q 416 347 416 376 q 396 298 416 318 q 347 277 376 277 m 486 277 q 437 298 457 277 q 416 347 416 318 q 437 396 416 376 q 486 416 457 416 q 535 396 515 416 q 555 347 555 376 q 535 298 555 318 q 486 277 515 277 m 625 277 q 576 298 596 277 q 555 347 555 318 q 576 396 555 376 q 625 416 596 416 q 674 396 653 416 q 694 347 694 376 q 674 298 694 318 q 625 277 653 277 m 347 416 q 298 437 318 416 q 277 486 277 457 q 298 535 277 515 q 347 555 318 555 q 396 535 376 555 q 416 486 416 515 q 396 437 416 457 q 347 416 376 416 m 486 416 q 437 437 457 416 q 416 486 416 457 q 437 535 416 515 q 486 555 457 555 q 535 535 515 555 q 555 486 555 515 q 535 437 555 457 q 486 416 515 416 m 625 416 q 576 437 596 416 q 555 486 555 457 q 576 535 555 515 q 625 555 596 555 q 674 535 653 555 q 694 486 694 515 q 674 437 694 457 q 625 416 653 416 m 69 555 q 20 576 41 555 q 0 625 0 596 q 20 674 0 653 q 69 694 41 694 q 118 674 98 694 q 138 625 138 653 q 118 576 138 596 q 69 555 98 555 m 208 555 q 159 576 179 555 q 138 625 138 596 q 159 674 138 653 q 208 694 179 694 q 257 674 237 694 q 277 625 277 653 q 257 576 277 596 q 208 555 237 555 m 347 555 q 298 576 318 555 q 277 625 277 596 q 298 674 277 653 q 347 694 318 694 q 396 674 376 694 q 416 625 416 653 q 396 576 416 596 q 347 555 376 555 m 486 555 q 437 576 457 555 q 416 625 416 596 q 437 674 416 653 q 486 694 457 694 q 535 674 515 694 q 555 625 555 653 q 535 576 555 596 q 486 555 515 555 m 625 555 q 576 576 596 555 q 555 625 555 596 q 576 674 555 653 q 625 694 596 694 q 674 674 653 694 q 694 625 694 653 q 674 576 694 596 q 625 555 653 555 m 764 555 q 714 576 735 555 q 694 625 694 596 q 714 674 694 653 q 764 694 735 694 q 812 674 792 694 q 833 625 833 653 q 812 576 833 596 q 764 555 792 555 m 903 555 q 853 576 873 555 q 833 625 833 596 q 853 674 833 653 q 903 694 873 694 q 951 674 931 694 q 972 625 972 653 q 951 576 972 596 q 903 555 931 555 m 208 694 q 159 714 179 694 q 138 764 138 735 q 159 812 138 792 q 208 833 179 833 q 257 812 237 833 q 277 764 277 792 q 257 714 277 735 q 208 694 237 694 m 347 694 q 298 714 318 694 q 277 764 277 735 q 298 812 277 792 q 347 833 318 833 q 396 812 376 833 q 416 764 416 792 q 396 714 416 735 q 347 694 376 694 m 486 694 q 437 714 457 694 q 416 764 416 735 q 437 812 416 792 q 486 833 457 833 q 535 812 515 833 q 555 764 555 792 q 535 714 555 735 q 486 694 515 694 m 625 694 q 576 714 596 694 q 555 764 555 735 q 576 812 555 792 q 625 833 596 833 q 674 812 653 833 q 694 764 694 792 q 674 714 694 735 q 625 694 653 694 m 764 694 q 714 714 735 694 q 694 764 694 735 q 714 812 694 792 q 764 833 735 833 q 812 812 792 833 q 833 764 833 792 q 812 714 833 735 q 764 694 792 694 m 347 833 q 298 853 318 833 q 277 903 277 873 q 298 951 277 931 q 347 972 318 972 q 396 951 376 972 q 416 903 416 931 q 396 853 416 873 q 347 833 376 833 m 486 833 q 437 853 457 833 q 416 903 416 873 q 437 951 416 931 q 486 972 457 972 q 535 951 515 972 q 555 903 555 931 q 535 853 555 873 q 486 833 515 833 m 625 833 q 576 853 596 833 q 555 903 555 873 q 576 951 555 931 q 625 972 596 972 q 674 951 653 972 q 694 903 694 931 q 674 853 694 873 q 625 833 653 833 m 486 972 q 437 992 457 972 q 416 1042 416 1013 q 437 1090 416 1070 q 486 1111 457 1111 q 535 1090 515 1111 q 555 1042 555 1070 q 535 992 555 1013 q 486 972 515 972 z "},")":{"ha":1512,"x_min":0,"x_max":972,"o":"m 486 555 q 437 576 457 555 q 416 625 416 596 q 437 674 416 653 q 486 694 457 694 q 535 674 515 694 q 555 625 555 653 q 535 576 555 596 q 486 555 515 555 m 347 694 q 298 714 318 694 q 277 764 277 735 q 298 812 277 792 q 347 833 318 833 q 396 812 376 833 q 416 764 416 792 q 396 714 416 735 q 347 694 376 694 m 486 694 q 437 714 457 694 q 416 764 416 735 q 437 812 416 792 q 486 833 457 833 q 535 812 515 833 q 555 764 555 792 q 535 714 555 735 q 486 694 515 694 m 625 694 q 576 714 596 694 q 555 764 555 735 q 576 812 555 792 q 625 833 596 833 q 674 812 653 833 q 694 764 694 792 q 674 714 694 735 q 625 694 653 694 m 208 833 q 159 853 179 833 q 138 903 138 873 q 159 951 138 931 q 208 972 179 972 q 257 951 237 972 q 277 903 277 931 q 257 853 277 873 q 208 833 237 833 m 347 833 q 298 853 318 833 q 277 903 277 873 q 298 951 277 931 q 347 972 318 972 q 396 951 376 972 q 416 903 416 931 q 396 853 416 873 q 347 833 376 833 m 486 833 q 437 853 457 833 q 416 903 416 873 q 437 951 416 931 q 486 972 457 972 q 535 951 515 972 q 555 903 555 931 q 535 853 555 873 q 486 833 515 833 m 625 833 q 576 853 596 833 q 555 903 555 873 q 576 951 555 931 q 625 972 596 972 q 674 951 653 972 q 694 903 694 931 q 674 853 694 873 q 625 833 653 833 m 764 833 q 714 853 735 833 q 694 903 694 873 q 714 951 694 931 q 764 972 735 972 q 812 951 792 972 q 833 903 833 931 q 812 853 833 873 q 764 833 792 833 m 69 972 q 20 992 41 972 q 0 1042 0 1013 q 20 1090 0 1070 q 69 1111 41 1111 q 118 1090 98 1111 q 138 1042 138 1070 q 118 992 138 1013 q 69 972 98 972 m 208 972 q 159 992 179 972 q 138 1042 138 1013 q 159 1090 138 1070 q 208 1111 179 1111 q 257 1090 237 1111 q 277 1042 277 1070 q 257 992 277 1013 q 208 972 237 972 m 347 972 q 298 992 318 972 q 277 1042 277 1013 q 298 1090 277 1070 q 347 1111 318 1111 q 396 1090 376 1111 q 416 1042 416 1070 q 396 992 416 1013 q 347 972 376 972 m 486 972 q 437 992 457 972 q 416 1042 416 1013 q 437 1090 416 1070 q 486 1111 457 1111 q 535 1090 515 1111 q 555 1042 555 1070 q 535 992 555 1013 q 486 972 515 972 m 625 972 q 576 992 596 972 q 555 1042 555 1013 q 576 1090 555 1070 q 625 1111 596 1111 q 674 1090 653 1111 q 694 1042 694 1070 q 674 992 694 1013 q 625 972 653 972 m 764 972 q 714 992 735 972 q 694 1042 694 1013 q 714 1090 694 1070 q 764 1111 735 1111 q 812 1090 792 1111 q 833 1042 833 1070 q 812 992 833 1013 q 764 972 792 972 m 903 972 q 853 992 873 972 q 833 1042 833 1013 q 853 1090 833 1070 q 903 1111 873 1111 q 951 1090 931 1111 q 972 1042 972 1070 q 951 992 972 1013 q 903 972 931 972 m 347 1111 q 298 1131 318 1111 q 277 1180 277 1152 q 298 1230 277 1209 q 347 1250 318 1250 q 396 1230 376 1250 q 416 1180 416 1209 q 396 1131 416 1152 q 347 1111 376 1111 m 486 1111 q 437 1131 457 1111 q 416 1180 416 1152 q 437 1230 416 1209 q 486 1250 457 1250 q 535 1230 515 1250 q 555 1180 555 1209 q 535 1131 555 1152 q 486 1111 515 1111 m 625 1111 q 576 1131 596 1111 q 555 1180 555 1152 q 576 1230 555 1209 q 625 1250 596 1250 q 674 1230 653 1250 q 694 1180 694 1209 q 674 1131 694 1152 q 625 1111 653 1111 m 347 1250 q 298 1270 318 1250 q 277 1319 277 1291 q 298 1369 277 1348 q 347 1389 318 1389 q 396 1369 376 1389 q 416 1319 416 1348 q 396 1270 416 1291 q 347 1250 376 1250 m 486 1250 q 437 1270 457 1250 q 416 1319 416 1291 q 437 1369 416 1348 q 486 1389 457 1389 q 535 1369 515 1389 q 555 1319 555 1348 q 535 1270 555 1291 q 486 1250 515 1250 m 625 1250 q 576 1270 596 1250 q 555 1319 555 1291 q 576 1369 555 1348 q 625 1389 596 1389 q 674 1369 653 1389 q 694 1319 694 1348 q 674 1270 694 1291 q 625 1250 653 1250 z "},"*":{"ha":1234,"x_min":277,"x_max":694,"o":"m 347 833 q 298 853 318 833 q 277 903 277 873 q 298 951 277 931 q 347 972 318 972 q 396 951 376 972 q 416 903 416 931 q 396 853 416 873 q 347 833 376 833 m 625 833 q 576 853 596 833 q 555 903 555 873 q 576 951 555 931 q 625 972 596 972 q 674 951 653 972 q 694 903 694 931 q 674 853 694 873 q 625 833 653 833 m 486 972 q 437 992 457 972 q 416 1042 416 1013 q 437 1090 416 1070 q 486 1111 457 1111 q 535 1090 515 1111 q 555 1042 555 1070 q 535 992 555 1013 q 486 972 515 972 m 347 1111 q 298 1131 318 1111 q 277 1180 277 1152 q 298 1230 277 1209 q 347 1250 318 1250 q 396 1230 376 1250 q 416 1180 416 1209 q 396 1131 416 1152 q 347 1111 376 1111 m 486 1111 q 437 1131 457 1111 q 416 1180 416 1152 q 437 1230 416 1209 q 486 1250 457 1250 q 535 1230 515 1250 q 555 1180 555 1209 q 535 1131 555 1152 q 486 1111 515 1111 m 625 1111 q 576 1131 596 1111 q 555 1180 555 1152 q 576 1230 555 1209 q 625 1250 596 1250 q 674 1230 653 1250 q 694 1180 694 1209 q 674 1131 694 1152 q 625 1111 653 1111 m 486 1250 q 437 1270 457 1250 q 416 1319 416 1291 q 437 1369 416 1348 q 486 1389 457 1389 q 535 1369 515 1389 q 555 1319 555 1348 q 535 1270 555 1291 q 486 1250 515 1250 z "},"+":{"ha":1373,"x_min":0,"x_max":833,"o":"m 347 277 q 298 298 318 277 q 277 347 277 318 q 298 396 277 376 q 347 416 318 416 q 396 396 376 416 q 416 347 416 376 q 396 298 416 318 q 347 277 376 277 m 486 277 q 437 298 457 277 q 416 347 416 318 q 437 396 416 376 q 486 416 457 416 q 535 396 515 416 q 555 347 555 376 q 535 298 555 318 q 486 277 515 277 m 347 416 q 298 437 318 416 q 277 486 277 457 q 298 535 277 515 q 347 555 318 555 q 396 535 376 555 q 416 486 416 515 q 396 437 416 457 q 347 416 376 416 m 486 416 q 437 437 457 416 q 416 486 416 457 q 437 535 416 515 q 486 555 457 555 q 535 535 515 555 q 555 486 555 515 q 535 437 555 457 q 486 416 515 416 m 69 555 q 20 576 41 555 q 0 625 0 596 q 20 674 0 653 q 69 694 41 694 q 118 674 98 694 q 138 625 138 653 q 118 576 138 596 q 69 555 98 555 m 208 555 q 159 576 179 555 q 138 625 138 596 q 159 674 138 653 q 208 694 179 694 q 257 674 237 694 q 277 625 277 653 q 257 576 277 596 q 208 555 237 555 m 347 555 q 298 576 318 555 q 277 625 277 596 q 298 674 277 653 q 347 694 318 694 q 396 674 376 694 q 416 625 416 653 q 396 576 416 596 q 347 555 376 555 m 486 555 q 437 576 457 555 q 416 625 416 596 q 437 674 416 653 q 486 694 457 694 q 535 674 515 694 q 555 625 555 653 q 535 576 555 596 q 486 555 515 555 m 625 555 q 576 576 596 555 q 555 625 555 596 q 576 674 555 653 q 625 694 596 694 q 674 674 653 694 q 694 625 694 653 q 674 576 694 596 q 625 555 653 555 m 764 555 q 714 576 735 555 q 694 625 694 596 q 714 674 694 653 q 764 694 735 694 q 812 674 792 694 q 833 625 833 653 q 812 576 833 596 q 764 555 792 555 m 69 694 q 20 714 41 694 q 0 764 0 735 q 20 812 0 792 q 69 833 41 833 q 118 812 98 833 q 138 764 138 792 q 118 714 138 735 q 69 694 98 694 m 208 694 q 159 714 179 694 q 138 764 138 735 q 159 812 138 792 q 208 833 179 833 q 257 812 237 833 q 277 764 277 792 q 257 714 277 735 q 208 694 237 694 m 347 694 q 298 714 318 694 q 277 764 277 735 q 298 812 277 792 q 347 833 318 833 q 396 812 376 833 q 416 764 416 792 q 396 714 416 735 q 347 694 376 694 m 486 694 q 437 714 457 694 q 416 764 416 735 q 437 812 416 792 q 486 833 457 833 q 535 812 515 833 q 555 764 555 792 q 535 714 555 735 q 486 694 515 694 m 625 694 q 576 714 596 694 q 555 764 555 735 q 576 812 555 792 q 625 833 596 833 q 674 812 653 833 q 694 764 694 792 q 674 714 694 735 q 625 694 653 694 m 764 694 q 714 714 735 694 q 694 764 694 735 q 714 812 694 792 q 764 833 735 833 q 812 812 792 833 q 833 764 833 792 q 812 714 833 735 q 764 694 792 694 m 347 833 q 298 853 318 833 q 277 903 277 873 q 298 951 277 931 q 347 972 318 972 q 396 951 376 972 q 416 903 416 931 q 396 853 416 873 q 347 833 376 833 m 486 833 q 437 853 457 833 q 416 903 416 873 q 437 951 416 931 q 486 972 457 972 q 535 951 515 972 q 555 903 555 931 q 535 853 555 873 q 486 833 515 833 m 347 972 q 298 992 318 972 q 277 1042 277 1013 q 298 1090 277 1070 q 347 1111 318 1111 q 396 1090 376 1111 q 416 1042 416 1070 q 396 992 416 1013 q 347 972 376 972 m 486 972 q 437 992 457 972 q 416 1042 416 1013 q 437 1090 416 1070 q 486 1111 457 1111 q 535 1090 515 1111 q 555 1042 555 1070 q 535 992 555 1013 q 486 972 515 972 z "},",":{"ha":1095,"x_min":138,"x_max":555,"o":"m 208 0 q 159 20 179 0 q 138 69 138 41 q 159 118 138 98 q 208 138 179 138 q 257 118 237 138 q 277 69 277 98 q 257 20 277 41 q 208 0 237 0 m 347 0 q 298 20 318 0 q 277 69 277 41 q 298 118 277 98 q 347 138 318 138 q 396 118 376 138 q 416 69 416 98 q 396 20 416 41 q 347 0 376 0 m 347 138 q 298 159 318 138 q 277 208 277 179 q 298 257 277 237 q 347 277 318 277 q 396 257 376 277 q 416 208 416 237 q 396 159 416 179 q 347 138 376 138 m 486 138 q 437 159 457 138 q 416 208 416 179 q 437 257 416 237 q 486 277 457 277 q 535 257 515 277 q 555 208 555 237 q 535 159 555 179 q 486 138 515 138 m 347 277 q 298 298 318 277 q 277 347 277 318 q 298 396 277 376 q 347 416 318 416 q 396 396 376 416 q 416 347 416 376 q 396 298 416 318 q 347 277 376 277 m 486 277 q 437 298 457 277 q 416 347 416 318 q 437 396 416 376 q 486 416 457 416 q 535 396 515 416 q 555 347 555 376 q 535 298 555 318 q 486 277 515 277 z "},"-":{"ha":1373,"x_min":0,"x_max":833,"o":"m 69 555 q 20 576 41 555 q 0 625 0 596 q 20 674 0 653 q 69 694 41 694 q 118 674 98 694 q 138 625 138 653 q 118 576 138 596 q 69 555 98 555 m 208 555 q 159 576 179 555 q 138 625 138 596 q 159 674 138 653 q 208 694 179 694 q 257 674 237 694 q 277 625 277 653 q 257 576 277 596 q 208 555 237 555 m 347 555 q 298 576 318 555 q 277 625 277 596 q 298 674 277 653 q 347 694 318 694 q 396 674 376 694 q 416 625 416 653 q 396 576 416 596 q 347 555 376 555 m 486 555 q 437 576 457 555 q 416 625 416 596 q 437 674 416 653 q 486 694 457 694 q 535 674 515 694 q 555 625 555 653 q 535 576 555 596 q 486 555 515 555 m 625 555 q 576 576 596 555 q 555 625 555 596 q 576 674 555 653 q 625 694 596 694 q 674 674 653 694 q 694 625 694 653 q 674 576 694 596 q 625 555 653 555 m 764 555 q 714 576 735 555 q 694 625 694 596 q 714 674 694 653 q 764 694 735 694 q 812 674 792 694 q 833 625 833 653 q 812 576 833 596 q 764 555 792 555 m 69 694 q 20 714 41 694 q 0 764 0 735 q 20 812 0 792 q 69 833 41 833 q 118 812 98 833 q 138 764 138 792 q 118 714 138 735 q 69 694 98 694 m 208 694 q 159 714 179 694 q 138 764 138 735 q 159 812 138 792 q 208 833 179 833 q 257 812 237 833 q 277 764 277 792 q 257 714 277 735 q 208 694 237 694 m 347 694 q 298 714 318 694 q 277 764 277 735 q 298 812 277 792 q 347 833 318 833 q 396 812 376 833 q 416 764 416 792 q 396 714 416 735 q 347 694 376 694 m 486 694 q 437 714 457 694 q 416 764 416 735 q 437 812 416 792 q 486 833 457 833 q 535 812 515 833 q 555 764 555 792 q 535 714 555 735 q 486 694 515 694 m 625 694 q 576 714 596 694 q 555 764 555 735 q 576 812 555 792 q 625 833 596 833 q 674 812 653 833 q 694 764 694 792 q 674 714 694 735 q 625 694 653 694 m 764 694 q 714 714 735 694 q 694 764 694 735 q 714 812 694 792 q 764 833 735 833 q 812 812 792 833 q 833 764 833 792 q 812 714 833 735 q 764 694 792 694 z "},".":{"ha":1095,"x_min":277,"x_max":555,"o":"m 347 0 q 298 20 318 0 q 277 69 277 41 q 298 118 277 98 q 347 138 318 138 q 396 118 376 138 q 416 69 416 98 q 396 20 416 41 q 347 0 376 0 m 486 0 q 437 20 457 0 q 416 69 416 41 q 437 118 416 98 q 486 138 457 138 q 535 118 515 138 q 555 69 555 98 q 535 20 555 41 q 486 0 515 0 m 347 138 q 298 159 318 138 q 277 208 277 179 q 298 257 277 237 q 347 277 318 277 q 396 257 376 277 q 416 208 416 237 q 396 159 416 179 q 347 138 376 138 m 486 138 q 437 159 457 138 q 416 208 416 179 q 437 257 416 237 q 486 277 457 277 q 535 257 515 277 q 555 208 555 237 q 535 159 555 179 q 486 138 515 138 z "},"/":{"ha":1512,"x_min":0,"x_max":972,"o":"m 69 0 q 20 20 41 0 q 0 69 0 41 q 20 118 0 98 q 69 138 41 138 q 118 118 98 138 q 138 69 138 98 q 118 20 138 41 q 69 0 98 0 m 208 0 q 159 20 179 0 q 138 69 138 41 q 159 118 138 98 q 208 138 179 138 q 257 118 237 138 q 277 69 277 98 q 257 20 277 41 q 208 0 237 0 m 208 138 q 159 159 179 138 q 138 208 138 179 q 159 257 138 237 q 208 277 179 277 q 257 257 237 277 q 277 208 277 237 q 257 159 277 179 q 208 138 237 138 m 347 138 q 298 159 318 138 q 277 208 277 179 q 298 257 277 237 q 347 277 318 277 q 396 257 376 277 q 416 208 416 237 q 396 159 416 179 q 347 138 376 138 m 208 277 q 159 298 179 277 q 138 347 138 318 q 159 396 138 376 q 208 416 179 416 q 257 396 237 416 q 277 347 277 376 q 257 298 277 318 q 208 277 237 277 m 347 277 q 298 298 318 277 q 277 347 277 318 q 298 396 277 376 q 347 416 318 416 q 396 396 376 416 q 416 347 416 376 q 396 298 416 318 q 347 277 376 277 m 347 416 q 298 437 318 416 q 277 486 277 457 q 298 535 277 515 q 347 555 318 555 q 396 535 376 555 q 416 486 416 515 q 396 437 416 457 q 347 416 376 416 m 486 416 q 437 437 457 416 q 416 486 416 457 q 437 535 416 515 q 486 555 457 555 q 535 535 515 555 q 555 486 555 515 q 535 437 555 457 q 486 416 515 416 m 347 555 q 298 576 318 555 q 277 625 277 596 q 298 674 277 653 q 347 694 318 694 q 396 674 376 694 q 416 625 416 653 q 396 576 416 596 q 347 555 376 555 m 486 555 q 437 576 457 555 q 416 625 416 596 q 437 674 416 653 q 486 694 457 694 q 535 674 515 694 q 555 625 555 653 q 535 576 555 596 q 486 555 515 555 m 486 694 q 437 714 457 694 q 416 764 416 735 q 437 812 416 792 q 486 833 457 833 q 535 812 515 833 q 555 764 555 792 q 535 714 555 735 q 486 694 515 694 m 625 694 q 576 714 596 694 q 555 764 555 735 q 576 812 555 792 q 625 833 596 833 q 674 812 653 833 q 694 764 694 792 q 674 714 694 735 q 625 694 653 694 m 486 833 q 437 853 457 833 q 416 903 416 873 q 437 951 416 931 q 486 972 457 972 q 535 951 515 972 q 555 903 555 931 q 535 853 555 873 q 486 833 515 833 m 625 833 q 576 853 596 833 q 555 903 555 873 q 576 951 555 931 q 625 972 596 972 q 674 951 653 972 q 694 903 694 931 q 674 853 694 873 q 625 833 653 833 m 625 972 q 576 992 596 972 q 555 1042 555 1013 q 576 1090 555 1070 q 625 1111 596 1111 q 674 1090 653 1111 q 694 1042 694 1070 q 674 992 694 1013 q 625 972 653 972 m 764 972 q 714 992 735 972 q 694 1042 694 1013 q 714 1090 694 1070 q 764 1111 735 1111 q 812 1090 792 1111 q 833 1042 833 1070 q 812 992 833 1013 q 764 972 792 972 m 625 1111 q 576 1131 596 1111 q 555 1180 555 1152 q 576 1230 555 1209 q 625 1250 596 1250 q 674 1230 653 1250 q 694 1180 694 1209 q 674 1131 694 1152 q 625 1111 653 1111 m 764 1111 q 714 1131 735 1111 q 694 1180 694 1152 q 714 1230 694 1209 q 764 1250 735 1250 q 812 1230 792 1250 q 833 1180 833 1209 q 812 1131 833 1152 q 764 1111 792 1111 m 764 1250 q 714 1270 735 1250 q 694 1319 694 1291 q 714 1369 694 1348 q 764 1389 735 1389 q 812 1369 792 1389 q 833 1319 833 1348 q 812 1270 833 1291 q 764 1250 792 1250 m 903 1250 q 853 1270 873 1250 q 833 1319 833 1291 q 853 1369 833 1348 q 903 1389 873 1389 q 951 1369 931 1389 q 972 1319 972 1348 q 951 1270 972 1291 q 903 1250 931 1250 z "},":":{"ha":1095,"x_min":277,"x_max":555,"o":"m 347 277 q 298 298 318 277 q 277 347 277 318 q 298 396 277 376 q 347 416 318 416 q 396 396 376 416 q 416 347 416 376 q 396 298 416 318 q 347 277 376 277 m 486 277 q 437 298 457 277 q 416 347 416 318 q 437 396 416 376 q 486 416 457 416 q 535 396 515 416 q 555 347 555 376 q 535 298 555 318 q 486 277 515 277 m 347 416 q 298 437 318 416 q 277 486 277 457 q 298 535 277 515 q 347 555 318 555 q 396 535 376 555 q 416 486 416 515 q 396 437 416 457 q 347 416 376 416 m 486 416 q 437 437 457 416 q 416 486 416 457 q 437 535 416 515 q 486 555 457 555 q 535 535 515 555 q 555 486 555 515 q 535 437 555 457 q 486 416 515 416 m 347 694 q 298 714 318 694 q 277 764 277 735 q 298 812 277 792 q 347 833 318 833 q 396 812 376 833 q 416 764 416 792 q 396 714 416 735 q 347 694 376 694 m 486 694 q 437 714 457 694 q 416 764 416 735 q 437 812 416 792 q 486 833 457 833 q 535 812 515 833 q 555 764 555 792 q 535 714 555 735 q 486 694 515 694 m 347 833 q 298 853 318 833 q 277 903 277 873 q 298 951 277 931 q 347 972 318 972 q 396 951 376 972 q 416 903 416 931 q 396 853 416 873 q 347 833 376 833 m 486 833 q 437 853 457 833 q 416 903 416 873 q 437 951 416 931 q 486 972 457 972 q 535 951 515 972 q 555 903 555 931 q 535 853 555 873 q 486 833 515 833 z "},";":{"ha":1095,"x_min":277,"x_max":555,"o":"m 347 0 q 298 20 318 0 q 277 69 277 41 q 298 118 277 98 q 347 138 318 138 q 396 118 376 138 q 416 69 416 98 q 396 20 416 41 q 347 0 376 0 m 486 138 q 437 159 457 138 q 416 208 416 179 q 437 257 416 237 q 486 277 457 277 q 535 257 515 277 q 555 208 555 237 q 535 159 555 179 q 486 138 515 138 m 347 277 q 298 298 318 277 q 277 347 277 318 q 298 396 277 376 q 347 416 318 416 q 396 396 376 416 q 416 347 416 376 q 396 298 416 318 q 347 277 376 277 m 486 277 q 437 298 457 277 q 416 347 416 318 q 437 396 416 376 q 486 416 457 416 q 535 396 515 416 q 555 347 555 376 q 535 298 555 318 q 486 277 515 277 m 347 416 q 298 437 318 416 q 277 486 277 457 q 298 535 277 515 q 347 555 318 555 q 396 535 376 555 q 416 486 416 515 q 396 437 416 457 q 347 416 376 416 m 486 416 q 437 437 457 416 q 416 486 416 457 q 437 535 416 515 q 486 555 457 555 q 535 535 515 555 q 555 486 555 515 q 535 437 555 457 q 486 416 515 416 m 347 694 q 298 714 318 694 q 277 764 277 735 q 298 812 277 792 q 347 833 318 833 q 396 812 376 833 q 416 764 416 792 q 396 714 416 735 q 347 694 376 694 m 486 694 q 437 714 457 694 q 416 764 416 735 q 437 812 416 792 q 486 833 457 833 q 535 812 515 833 q 555 764 555 792 q 535 714 555 735 q 486 694 515 694 m 347 833 q 298 853 318 833 q 277 903 277 873 q 298 951 277 931 q 347 972 318 972 q 396 951 376 972 q 416 903 416 931 q 396 853 416 873 q 347 833 376 833 m 486 833 q 437 853 457 833 q 416 903 416 873 q 437 951 416 931 q 486 972 457 972 q 535 951 515 972 q 555 903 555 931 q 535 853 555 873 q 486 833 515 833 z "},"<":{"ha":1512,"x_min":0,"x_max":972,"o":"m 903 138 q 853 159 873 138 q 833 208 833 179 q 853 257 833 237 q 903 277 873 277 q 951 257 931 277 q 972 208 972 237 q 951 159 972 179 q 903 138 931 138 m 625 277 q 576 298 596 277 q 555 347 555 318 q 576 396 555 376 q 625 416 596 416 q 674 396 653 416 q 694 347 694 376 q 674 298 694 318 q 625 277 653 277 m 764 277 q 714 298 735 277 q 694 347 694 318 q 714 396 694 376 q 764 416 735 416 q 812 396 792 416 q 833 347 833 376 q 812 298 833 318 q 764 277 792 277 m 347 416 q 298 437 318 416 q 277 486 277 457 q 298 535 277 515 q 347 555 318 555 q 396 535 376 555 q 416 486 416 515 q 396 437 416 457 q 347 416 376 416 m 486 416 q 437 437 457 416 q 416 486 416 457 q 437 535 416 515 q 486 555 457 555 q 535 535 515 555 q 555 486 555 515 q 535 437 555 457 q 486 416 515 416 m 69 555 q 20 576 41 555 q 0 625 0 596 q 20 674 0 653 q 69 694 41 694 q 118 674 98 694 q 138 625 138 653 q 118 576 138 596 q 69 555 98 555 m 208 555 q 159 576 179 555 q 138 625 138 596 q 159 674 138 653 q 208 694 179 694 q 257 674 237 694 q 277 625 277 653 q 257 576 277 596 q 208 555 237 555 m 347 694 q 298 714 318 694 q 277 764 277 735 q 298 812 277 792 q 347 833 318 833 q 396 812 376 833 q 416 764 416 792 q 396 714 416 735 q 347 694 376 694 m 486 694 q 437 714 457 694 q 416 764 416 735 q 437 812 416 792 q 486 833 457 833 q 535 812 515 833 q 555 764 555 792 q 535 714 555 735 q 486 694 515 694 m 625 833 q 576 853 596 833 q 555 903 555 873 q 576 951 555 931 q 625 972 596 972 q 674 951 653 972 q 694 903 694 931 q 674 853 694 873 q 625 833 653 833 m 764 833 q 714 853 735 833 q 694 903 694 873 q 714 951 694 931 q 764 972 735 972 q 812 951 792 972 q 833 903 833 931 q 812 853 833 873 q 764 833 792 833 m 903 972 q 853 992 873 972 q 833 1042 833 1013 q 853 1090 833 1070 q 903 1111 873 1111 q 951 1090 931 1111 q 972 1042 972 1070 q 951 992 972 1013 q 903 972 931 972 z "},"=":{"ha":1512,"x_min":0,"x_max":972,"o":"m 69 277 q 20 298 41 277 q 0 347 0 318 q 20 396 0 376 q 69 416 41 416 q 118 396 98 416 q 138 347 138 376 q 118 298 138 318 q 69 277 98 277 m 208 277 q 159 298 179 277 q 138 347 138 318 q 159 396 138 376 q 208 416 179 416 q 257 396 237 416 q 277 347 277 376 q 257 298 277 318 q 208 277 237 277 m 347 277 q 298 298 318 277 q 277 347 277 318 q 298 396 277 376 q 347 416 318 416 q 396 396 376 416 q 416 347 416 376 q 396 298 416 318 q 347 277 376 277 m 486 277 q 437 298 457 277 q 416 347 416 318 q 437 396 416 376 q 486 416 457 416 q 535 396 515 416 q 555 347 555 376 q 535 298 555 318 q 486 277 515 277 m 625 277 q 576 298 596 277 q 555 347 555 318 q 576 396 555 376 q 625 416 596 416 q 674 396 653 416 q 694 347 694 376 q 674 298 694 318 q 625 277 653 277 m 764 277 q 714 298 735 277 q 694 347 694 318 q 714 396 694 376 q 764 416 735 416 q 812 396 792 416 q 833 347 833 376 q 812 298 833 318 q 764 277 792 277 m 903 277 q 853 298 873 277 q 833 347 833 318 q 853 396 833 376 q 903 416 873 416 q 951 396 931 416 q 972 347 972 376 q 951 298 972 318 q 903 277 931 277 m 69 416 q 20 437 41 416 q 0 486 0 457 q 20 535 0 515 q 69 555 41 555 q 118 535 98 555 q 138 486 138 515 q 118 437 138 457 q 69 416 98 416 m 208 416 q 159 437 179 416 q 138 486 138 457 q 159 535 138 515 q 208 555 179 555 q 257 535 237 555 q 277 486 277 515 q 257 437 277 457 q 208 416 237 416 m 347 416 q 298 437 318 416 q 277 486 277 457 q 298 535 277 515 q 347 555 318 555 q 396 535 376 555 q 416 486 416 515 q 396 437 416 457 q 347 416 376 416 m 486 416 q 437 437 457 416 q 416 486 416 457 q 437 535 416 515 q 486 555 457 555 q 535 535 515 555 q 555 486 555 515 q 535 437 555 457 q 486 416 515 416 m 625 416 q 576 437 596 416 q 555 486 555 457 q 576 535 555 515 q 625 555 596 555 q 674 535 653 555 q 694 486 694 515 q 674 437 694 457 q 625 416 653 416 m 764 416 q 714 437 735 416 q 694 486 694 457 q 714 535 694 515 q 764 555 735 555 q 812 535 792 555 q 833 486 833 515 q 812 437 833 457 q 764 416 792 416 m 903 416 q 853 437 873 416 q 833 486 833 457 q 853 535 833 515 q 903 555 873 555 q 951 535 931 555 q 972 486 972 515 q 951 437 972 457 q 903 416 931 416 m 69 694 q 20 714 41 694 q 0 764 0 735 q 20 812 0 792 q 69 833 41 833 q 118 812 98 833 q 138 764 138 792 q 118 714 138 735 q 69 694 98 694 m 208 694 q 159 714 179 694 q 138 764 138 735 q 159 812 138 792 q 208 833 179 833 q 257 812 237 833 q 277 764 277 792 q 257 714 277 735 q 208 694 237 694 m 347 694 q 298 714 318 694 q 277 764 277 735 q 298 812 277 792 q 347 833 318 833 q 396 812 376 833 q 416 764 416 792 q 396 714 416 735 q 347 694 376 694 m 486 694 q 437 714 457 694 q 416 764 416 735 q 437 812 416 792 q 486 833 457 833 q 535 812 515 833 q 555 764 555 792 q 535 714 555 735 q 486 694 515 694 m 625 694 q 576 714 596 694 q 555 764 555 735 q 576 812 555 792 q 625 833 596 833 q 674 812 653 833 q 694 764 694 792 q 674 714 694 735 q 625 694 653 694 m 764 694 q 714 714 735 694 q 694 764 694 735 q 714 812 694 792 q 764 833 735 833 q 812 812 792 833 q 833 764 833 792 q 812 714 833 735 q 764 694 792 694 m 903 694 q 853 714 873 694 q 833 764 833 735 q 853 812 833 792 q 903 833 873 833 q 951 812 931 833 q 972 764 972 792 q 951 714 972 735 q 903 694 931 694 m 69 833 q 20 853 41 833 q 0 903 0 873 q 20 951 0 931 q 69 972 41 972 q 118 951 98 972 q 138 903 138 931 q 118 853 138 873 q 69 833 98 833 m 208 833 q 159 853 179 833 q 138 903 138 873 q 159 951 138 931 q 208 972 179 972 q 257 951 237 972 q 277 903 277 931 q 257 853 277 873 q 208 833 237 833 m 347 833 q 298 853 318 833 q 277 903 277 873 q 298 951 277 931 q 347 972 318 972 q 396 951 376 972 q 416 903 416 931 q 396 853 416 873 q 347 833 376 833 m 486 833 q 437 853 457 833 q 416 903 416 873 q 437 951 416 931 q 486 972 457 972 q 535 951 515 972 q 555 903 555 931 q 535 853 555 873 q 486 833 515 833 m 625 833 q 576 853 596 833 q 555 903 555 873 q 576 951 555 931 q 625 972 596 972 q 674 951 653 972 q 694 903 694 931 q 674 853 694 873 q 625 833 653 833 m 764 833 q 714 853 735 833 q 694 903 694 873 q 714 951 694 931 q 764 972 735 972 q 812 951 792 972 q 833 903 833 931 q 812 853 833 873 q 764 833 792 833 m 903 833 q 853 853 873 833 q 833 903 833 873 q 853 951 833 931 q 903 972 873 972 q 951 951 931 972 q 972 903 972 931 q 951 853 972 873 q 903 833 931 833 z "},">":{"ha":1512,"x_min":0,"x_max":972,"o":"m 69 138 q 20 159 41 138 q 0 208 0 179 q 20 257 0 237 q 69 277 41 277 q 118 257 98 277 q 138 208 138 237 q 118 159 138 179 q 69 138 98 138 m 208 277 q 159 298 179 277 q 138 347 138 318 q 159 396 138 376 q 208 416 179 416 q 257 396 237 416 q 277 347 277 376 q 257 298 277 318 q 208 277 237 277 m 347 277 q 298 298 318 277 q 277 347 277 318 q 298 396 277 376 q 347 416 318 416 q 396 396 376 416 q 416 347 416 376 q 396 298 416 318 q 347 277 376 277 m 486 416 q 437 437 457 416 q 416 486 416 457 q 437 535 416 515 q 486 555 457 555 q 535 535 515 555 q 555 486 555 515 q 535 437 555 457 q 486 416 515 416 m 625 416 q 576 437 596 416 q 555 486 555 457 q 576 535 555 515 q 625 555 596 555 q 674 535 653 555 q 694 486 694 515 q 674 437 694 457 q 625 416 653 416 m 764 555 q 714 576 735 555 q 694 625 694 596 q 714 674 694 653 q 764 694 735 694 q 812 674 792 694 q 833 625 833 653 q 812 576 833 596 q 764 555 792 555 m 903 555 q 853 576 873 555 q 833 625 833 596 q 853 674 833 653 q 903 694 873 694 q 951 674 931 694 q 972 625 972 653 q 951 576 972 596 q 903 555 931 555 m 486 694 q 437 714 457 694 q 416 764 416 735 q 437 812 416 792 q 486 833 457 833 q 535 812 515 833 q 555 764 555 792 q 535 714 555 735 q 486 694 515 694 m 625 694 q 576 714 596 694 q 555 764 555 735 q 576 812 555 792 q 625 833 596 833 q 674 812 653 833 q 694 764 694 792 q 674 714 694 735 q 625 694 653 694 m 208 833 q 159 853 179 833 q 138 903 138 873 q 159 951 138 931 q 208 972 179 972 q 257 951 237 972 q 277 903 277 931 q 257 853 277 873 q 208 833 237 833 m 347 833 q 298 853 318 833 q 277 903 277 873 q 298 951 277 931 q 347 972 318 972 q 396 951 376 972 q 416 903 416 931 q 396 853 416 873 q 347 833 376 833 m 69 972 q 20 992 41 972 q 0 1042 0 1013 q 20 1090 0 1070 q 69 1111 41 1111 q 118 1090 98 1111 q 138 1042 138 1070 q 118 992 138 1013 q 69 972 98 972 z "},"?":{"ha":1512,"x_min":0,"x_max":972,"o":"m 347 0 q 298 20 318 0 q 277 69 277 41 q 298 118 277 98 q 347 138 318 138 q 396 118 376 138 q 416 69 416 98 q 396 20 416 41 q 347 0 376 0 m 486 0 q 437 20 457 0 q 416 69 416 41 q 437 118 416 98 q 486 138 457 138 q 535 118 515 138 q 555 69 555 98 q 535 20 555 41 q 486 0 515 0 m 347 138 q 298 159 318 138 q 277 208 277 179 q 298 257 277 237 q 347 277 318 277 q 396 257 376 277 q 416 208 416 237 q 396 159 416 179 q 347 138 376 138 m 486 138 q 437 159 457 138 q 416 208 416 179 q 437 257 416 237 q 486 277 457 277 q 535 257 515 277 q 555 208 555 237 q 535 159 555 179 q 486 138 515 138 m 347 416 q 298 437 318 416 q 277 486 277 457 q 298 535 277 515 q 347 555 318 555 q 396 535 376 555 q 416 486 416 515 q 396 437 416 457 q 347 416 376 416 m 486 416 q 437 437 457 416 q 416 486 416 457 q 437 535 416 515 q 486 555 457 555 q 535 535 515 555 q 555 486 555 515 q 535 437 555 457 q 486 416 515 416 m 347 555 q 298 576 318 555 q 277 625 277 596 q 298 674 277 653 q 347 694 318 694 q 396 674 376 694 q 416 625 416 653 q 396 576 416 596 q 347 555 376 555 m 486 555 q 437 576 457 555 q 416 625 416 596 q 437 674 416 653 q 486 694 457 694 q 535 674 515 694 q 555 625 555 653 q 535 576 555 596 q 486 555 515 555 m 625 555 q 576 576 596 555 q 555 625 555 596 q 576 674 555 653 q 625 694 596 694 q 674 674 653 694 q 694 625 694 653 q 674 576 694 596 q 625 555 653 555 m 486 694 q 437 714 457 694 q 416 764 416 735 q 437 812 416 792 q 486 833 457 833 q 535 812 515 833 q 555 764 555 792 q 535 714 555 735 q 486 694 515 694 m 625 694 q 576 714 596 694 q 555 764 555 735 q 576 812 555 792 q 625 833 596 833 q 674 812 653 833 q 694 764 694 792 q 674 714 694 735 q 625 694 653 694 m 764 694 q 714 714 735 694 q 694 764 694 735 q 714 812 694 792 q 764 833 735 833 q 812 812 792 833 q 833 764 833 792 q 812 714 833 735 q 764 694 792 694 m 625 833 q 576 853 596 833 q 555 903 555 873 q 576 951 555 931 q 625 972 596 972 q 674 951 653 972 q 694 903 694 931 q 674 853 694 873 q 625 833 653 833 m 764 833 q 714 853 735 833 q 694 903 694 873 q 714 951 694 931 q 764 972 735 972 q 812 951 792 972 q 833 903 833 931 q 812 853 833 873 q 764 833 792 833 m 903 833 q 853 853 873 833 q 833 903 833 873 q 853 951 833 931 q 903 972 873 972 q 951 951 931 972 q 972 903 972 931 q 951 853 972 873 q 903 833 931 833 m 764 972 q 714 992 735 972 q 694 1042 694 1013 q 714 1090 694 1070 q 764 1111 735 1111 q 812 1090 792 1111 q 833 1042 833 1070 q 812 992 833 1013 q 764 972 792 972 m 903 972 q 853 992 873 972 q 833 1042 833 1013 q 853 1090 833 1070 q 903 1111 873 1111 q 951 1090 931 1111 q 972 1042 972 1070 q 951 992 972 1013 q 903 972 931 972 m 69 1111 q 20 1131 41 1111 q 0 1180 0 1152 q 20 1230 0 1209 q 69 1250 41 1250 q 118 1230 98 1250 q 138 1180 138 1209 q 118 1131 138 1152 q 69 1111 98 1111 m 208 1111 q 159 1131 179 1111 q 138 1180 138 1152 q 159 1230 138 1209 q 208 1250 179 1250 q 257 1230 237 1250 q 277 1180 277 1209 q 257 1131 277 1152 q 208 1111 237 1111 m 764 1111 q 714 1131 735 1111 q 694 1180 694 1152 q 714 1230 694 1209 q 764 1250 735 1250 q 812 1230 792 1250 q 833 1180 833 1209 q 812 1131 833 1152 q 764 1111 792 1111 m 903 1111 q 853 1131 873 1111 q 833 1180 833 1152 q 853 1230 833 1209 q 903 1250 873 1250 q 951 1230 931 1250 q 972 1180 972 1209 q 951 1131 972 1152 q 903 1111 931 1111 m 69 1250 q 20 1270 41 1250 q 0 1319 0 1291 q 20 1369 0 1348 q 69 1389 41 1389 q 118 1369 98 1389 q 138 1319 138 1348 q 118 1270 138 1291 q 69 1250 98 1250 m 208 1250 q 159 1270 179 1250 q 138 1319 138 1291 q 159 1369 138 1348 q 208 1389 179 1389 q 257 1369 237 1389 q 277 1319 277 1348 q 257 1270 277 1291 q 208 1250 237 1250 m 347 1250 q 298 1270 318 1250 q 277 1319 277 1291 q 298 1369 277 1348 q 347 1389 318 1389 q 396 1369 376 1389 q 416 1319 416 1348 q 396 1270 416 1291 q 347 1250 376 1250 m 486 1250 q 437 1270 457 1250 q 416 1319 416 1291 q 437 1369 416 1348 q 486 1389 457 1389 q 535 1369 515 1389 q 555 1319 555 1348 q 535 1270 555 1291 q 486 1250 515 1250 m 625 1250 q 576 1270 596 1250 q 555 1319 555 1291 q 576 1369 555 1348 q 625 1389 596 1389 q 674 1369 653 1389 q 694 1319 694 1348 q 674 1270 694 1291 q 625 1250 653 1250 m 764 1250 q 714 1270 735 1250 q 694 1319 694 1291 q 714 1369 694 1348 q 764 1389 735 1389 q 812 1369 792 1389 q 833 1319 833 1348 q 812 1270 833 1291 q 764 1250 792 1250 m 903 1250 q 853 1270 873 1250 q 833 1319 833 1291 q 853 1369 833 1348 q 903 1389 873 1389 q 951 1369 931 1389 q 972 1319 972 1348 q 951 1270 972 1291 q 903 1250 931 1250 m 208 1389 q 159 1409 179 1389 q 138 1458 138 1430 q 159 1507 138 1487 q 208 1527 179 1527 q 257 1507 237 1527 q 277 1458 277 1487 q 257 1409 277 1430 q 208 1389 237 1389 m 347 1389 q 298 1409 318 1389 q 277 1458 277 1430 q 298 1507 277 1487 q 347 1527 318 1527 q 396 1507 376 1527 q 416 1458 416 1487 q 396 1409 416 1430 q 347 1389 376 1389 m 486 1389 q 437 1409 457 1389 q 416 1458 416 1430 q 437 1507 416 1487 q 486 1527 457 1527 q 535 1507 515 1527 q 555 1458 555 1487 q 535 1409 555 1430 q 486 1389 515 1389 m 625 1389 q 576 1409 596 1389 q 555 1458 555 1430 q 576 1507 555 1487 q 625 1527 596 1527 q 674 1507 653 1527 q 694 1458 694 1487 q 674 1409 694 1430 q 625 1389 653 1389 m 764 1389 q 714 1409 735 1389 q 694 1458 694 1430 q 714 1507 694 1487 q 764 1527 735 1527 q 812 1507 792 1527 q 833 1458 833 1487 q 812 1409 833 1430 q 764 1389 792 1389 z "},"@":{"ha":1512,"x_min":0,"x_max":972,"o":"m 347 0 q 298 20 318 0 q 277 69 277 41 q 298 118 277 98 q 347 138 318 138 q 396 118 376 138 q 416 69 416 98 q 396 20 416 41 q 347 0 376 0 m 486 0 q 437 20 457 0 q 416 69 416 41 q 437 118 416 98 q 486 138 457 138 q 535 118 515 138 q 555 69 555 98 q 535 20 555 41 q 486 0 515 0 m 625 0 q 576 20 596 0 q 555 69 555 41 q 576 118 555 98 q 625 138 596 138 q 674 118 653 138 q 694 69 694 98 q 674 20 694 41 q 625 0 653 0 m 764 0 q 714 20 735 0 q 694 69 694 41 q 714 118 694 98 q 764 138 735 138 q 812 118 792 138 q 833 69 833 98 q 812 20 833 41 q 764 0 792 0 m 208 138 q 159 159 179 138 q 138 208 138 179 q 159 257 138 237 q 208 277 179 277 q 257 257 237 277 q 277 208 277 237 q 257 159 277 179 q 208 138 237 138 m 347 138 q 298 159 318 138 q 277 208 277 179 q 298 257 277 237 q 347 277 318 277 q 396 257 376 277 q 416 208 416 237 q 396 159 416 179 q 347 138 376 138 m 486 138 q 437 159 457 138 q 416 208 416 179 q 437 257 416 237 q 486 277 457 277 q 535 257 515 277 q 555 208 555 237 q 535 159 555 179 q 486 138 515 138 m 625 138 q 576 159 596 138 q 555 208 555 179 q 576 257 555 237 q 625 277 596 277 q 674 257 653 277 q 694 208 694 237 q 674 159 694 179 q 625 138 653 138 m 764 138 q 714 159 735 138 q 694 208 694 179 q 714 257 694 237 q 764 277 735 277 q 812 257 792 277 q 833 208 833 237 q 812 159 833 179 q 764 138 792 138 m 903 138 q 853 159 873 138 q 833 208 833 179 q 853 257 833 237 q 903 277 873 277 q 951 257 931 277 q 972 208 972 237 q 951 159 972 179 q 903 138 931 138 m 69 277 q 20 298 41 277 q 0 347 0 318 q 20 396 0 376 q 69 416 41 416 q 118 396 98 416 q 138 347 138 376 q 118 298 138 318 q 69 277 98 277 m 208 277 q 159 298 179 277 q 138 347 138 318 q 159 396 138 376 q 208 416 179 416 q 257 396 237 416 q 277 347 277 376 q 257 298 277 318 q 208 277 237 277 m 69 416 q 20 437 41 416 q 0 486 0 457 q 20 535 0 515 q 69 555 41 555 q 118 535 98 555 q 138 486 138 515 q 118 437 138 457 q 69 416 98 416 m 208 416 q 159 437 179 416 q 138 486 138 457 q 159 535 138 515 q 208 555 179 555 q 257 535 237 555 q 277 486 277 515 q 257 437 277 457 q 208 416 237 416 m 486 416 q 437 437 457 416 q 416 486 416 457 q 437 535 416 515 q 486 555 457 555 q 535 535 515 555 q 555 486 555 515 q 535 437 555 457 q 486 416 515 416 m 625 416 q 576 437 596 416 q 555 486 555 457 q 576 535 555 515 q 625 555 596 555 q 674 535 653 555 q 694 486 694 515 q 674 437 694 457 q 625 416 653 416 m 764 416 q 714 437 735 416 q 694 486 694 457 q 714 535 694 515 q 764 555 735 555 q 812 535 792 555 q 833 486 833 515 q 812 437 833 457 q 764 416 792 416 m 903 416 q 853 437 873 416 q 833 486 833 457 q 853 535 833 515 q 903 555 873 555 q 951 535 931 555 q 972 486 972 515 q 951 437 972 457 q 903 416 931 416 m 69 555 q 20 576 41 555 q 0 625 0 596 q 20 674 0 653 q 69 694 41 694 q 118 674 98 694 q 138 625 138 653 q 118 576 138 596 q 69 555 98 555 m 208 555 q 159 576 179 555 q 138 625 138 596 q 159 674 138 653 q 208 694 179 694 q 257 674 237 694 q 277 625 277 653 q 257 576 277 596 q 208 555 237 555 m 486 555 q 437 576 457 555 q 416 625 416 596 q 437 674 416 653 q 486 694 457 694 q 535 674 515 694 q 555 625 555 653 q 535 576 555 596 q 486 555 515 555 m 764 555 q 714 576 735 555 q 694 625 694 596 q 714 674 694 653 q 764 694 735 694 q 812 674 792 694 q 833 625 833 653 q 812 576 833 596 q 764 555 792 555 m 69 694 q 20 714 41 694 q 0 764 0 735 q 20 812 0 792 q 69 833 41 833 q 118 812 98 833 q 138 764 138 792 q 118 714 138 735 q 69 694 98 694 m 208 694 q 159 714 179 694 q 138 764 138 735 q 159 812 138 792 q 208 833 179 833 q 257 812 237 833 q 277 764 277 792 q 257 714 277 735 q 208 694 237 694 m 486 694 q 437 714 457 694 q 416 764 416 735 q 437 812 416 792 q 486 833 457 833 q 535 812 515 833 q 555 764 555 792 q 535 714 555 735 q 486 694 515 694 m 764 694 q 714 714 735 694 q 694 764 694 735 q 714 812 694 792 q 764 833 735 833 q 812 812 792 833 q 833 764 833 792 q 812 714 833 735 q 764 694 792 694 m 69 833 q 20 853 41 833 q 0 903 0 873 q 20 951 0 931 q 69 972 41 972 q 118 951 98 972 q 138 903 138 931 q 118 853 138 873 q 69 833 98 833 m 208 833 q 159 853 179 833 q 138 903 138 873 q 159 951 138 931 q 208 972 179 972 q 257 951 237 972 q 277 903 277 931 q 257 853 277 873 q 208 833 237 833 m 486 833 q 437 853 457 833 q 416 903 416 873 q 437 951 416 931 q 486 972 457 972 q 535 951 515 972 q 555 903 555 931 q 535 853 555 873 q 486 833 515 833 m 625 833 q 576 853 596 833 q 555 903 555 873 q 576 951 555 931 q 625 972 596 972 q 674 951 653 972 q 694 903 694 931 q 674 853 694 873 q 625 833 653 833 m 764 833 q 714 853 735 833 q 694 903 694 873 q 714 951 694 931 q 764 972 735 972 q 812 951 792 972 q 833 903 833 931 q 812 853 833 873 q 764 833 792 833 m 69 972 q 20 992 41 972 q 0 1042 0 1013 q 20 1090 0 1070 q 69 1111 41 1111 q 118 1090 98 1111 q 138 1042 138 1070 q 118 992 138 1013 q 69 972 98 972 m 208 972 q 159 992 179 972 q 138 1042 138 1013 q 159 1090 138 1070 q 208 1111 179 1111 q 257 1090 237 1111 q 277 1042 277 1070 q 257 992 277 1013 q 208 972 237 972 m 764 972 q 714 992 735 972 q 694 1042 694 1013 q 714 1090 694 1070 q 764 1111 735 1111 q 812 1090 792 1111 q 833 1042 833 1070 q 812 992 833 1013 q 764 972 792 972 m 903 972 q 853 992 873 972 q 833 1042 833 1013 q 853 1090 833 1070 q 903 1111 873 1111 q 951 1090 931 1111 q 972 1042 972 1070 q 951 992 972 1013 q 903 972 931 972 m 208 1111 q 159 1131 179 1111 q 138 1180 138 1152 q 159 1230 138 1209 q 208 1250 179 1250 q 257 1230 237 1250 q 277 1180 277 1209 q 257 1131 277 1152 q 208 1111 237 1111 m 347 1111 q 298 1131 318 1111 q 277 1180 277 1152 q 298 1230 277 1209 q 347 1250 318 1250 q 396 1230 376 1250 q 416 1180 416 1209 q 396 1131 416 1152 q 347 1111 376 1111 m 486 1111 q 437 1131 457 1111 q 416 1180 416 1152 q 437 1230 416 1209 q 486 1250 457 1250 q 535 1230 515 1250 q 555 1180 555 1209 q 535 1131 555 1152 q 486 1111 515 1111 m 625 1111 q 576 1131 596 1111 q 555 1180 555 1152 q 576 1230 555 1209 q 625 1250 596 1250 q 674 1230 653 1250 q 694 1180 694 1209 q 674 1131 694 1152 q 625 1111 653 1111 m 764 1111 q 714 1131 735 1111 q 694 1180 694 1152 q 714 1230 694 1209 q 764 1250 735 1250 q 812 1230 792 1250 q 833 1180 833 1209 q 812 1131 833 1152 q 764 1111 792 1111 m 347 1250 q 298 1270 318 1250 q 277 1319 277 1291 q 298 1369 277 1348 q 347 1389 318 1389 q 396 1369 376 1389 q 416 1319 416 1348 q 396 1270 416 1291 q 347 1250 376 1250 m 486 1250 q 437 1270 457 1250 q 416 1319 416 1291 q 437 1369 416 1348 q 486 1389 457 1389 q 535 1369 515 1389 q 555 1319 555 1348 q 535 1270 555 1291 q 486 1250 515 1250 m 625 1250 q 576 1270 596 1250 q 555 1319 555 1291 q 576 1369 555 1348 q 625 1389 596 1389 q 674 1369 653 1389 q 694 1319 694 1348 q 674 1270 694 1291 q 625 1250 653 1250 z "},"A":{"ha":1512,"x_min":0,"x_max":972,"o":"m 69 0 q 20 20 41 0 q 0 69 0 41 q 20 118 0 98 q 69 138 41 138 q 118 118 98 138 q 138 69 138 98 q 118 20 138 41 q 69 0 98 0 m 208 0 q 159 20 179 0 q 138 69 138 41 q 159 118 138 98 q 208 138 179 138 q 257 118 237 138 q 277 69 277 98 q 257 20 277 41 q 208 0 237 0 m 764 0 q 714 20 735 0 q 694 69 694 41 q 714 118 694 98 q 764 138 735 138 q 812 118 792 138 q 833 69 833 98 q 812 20 833 41 q 764 0 792 0 m 903 0 q 853 20 873 0 q 833 69 833 41 q 853 118 833 98 q 903 138 873 138 q 951 118 931 138 q 972 69 972 98 q 951 20 972 41 q 903 0 931 0 m 69 138 q 20 159 41 138 q 0 208 0 179 q 20 257 0 237 q 69 277 41 277 q 118 257 98 277 q 138 208 138 237 q 118 159 138 179 q 69 138 98 138 m 208 138 q 159 159 179 138 q 138 208 138 179 q 159 257 138 237 q 208 277 179 277 q 257 257 237 277 q 277 208 277 237 q 257 159 277 179 q 208 138 237 138 m 764 138 q 714 159 735 138 q 694 208 694 179 q 714 257 694 237 q 764 277 735 277 q 812 257 792 277 q 833 208 833 237 q 812 159 833 179 q 764 138 792 138 m 903 138 q 853 159 873 138 q 833 208 833 179 q 853 257 833 237 q 903 277 873 277 q 951 257 931 277 q 972 208 972 237 q 951 159 972 179 q 903 138 931 138 m 69 277 q 20 298 41 277 q 0 347 0 318 q 20 396 0 376 q 69 416 41 416 q 118 396 98 416 q 138 347 138 376 q 118 298 138 318 q 69 277 98 277 m 208 277 q 159 298 179 277 q 138 347 138 318 q 159 396 138 376 q 208 416 179 416 q 257 396 237 416 q 277 347 277 376 q 257 298 277 318 q 208 277 237 277 m 764 277 q 714 298 735 277 q 694 347 694 318 q 714 396 694 376 q 764 416 735 416 q 812 396 792 416 q 833 347 833 376 q 812 298 833 318 q 764 277 792 277 m 903 277 q 853 298 873 277 q 833 347 833 318 q 853 396 833 376 q 903 416 873 416 q 951 396 931 416 q 972 347 972 376 q 951 298 972 318 q 903 277 931 277 m 69 416 q 20 437 41 416 q 0 486 0 457 q 20 535 0 515 q 69 555 41 555 q 118 535 98 555 q 138 486 138 515 q 118 437 138 457 q 69 416 98 416 m 208 416 q 159 437 179 416 q 138 486 138 457 q 159 535 138 515 q 208 555 179 555 q 257 535 237 555 q 277 486 277 515 q 257 437 277 457 q 208 416 237 416 m 347 416 q 298 437 318 416 q 277 486 277 457 q 298 535 277 515 q 347 555 318 555 q 396 535 376 555 q 416 486 416 515 q 396 437 416 457 q 347 416 376 416 m 486 416 q 437 437 457 416 q 416 486 416 457 q 437 535 416 515 q 486 555 457 555 q 535 535 515 555 q 555 486 555 515 q 535 437 555 457 q 486 416 515 416 m 625 416 q 576 437 596 416 q 555 486 555 457 q 576 535 555 515 q 625 555 596 555 q 674 535 653 555 q 694 486 694 515 q 674 437 694 457 q 625 416 653 416 m 764 416 q 714 437 735 416 q 694 486 694 457 q 714 535 694 515 q 764 555 735 555 q 812 535 792 555 q 833 486 833 515 q 812 437 833 457 q 764 416 792 416 m 903 416 q 853 437 873 416 q 833 486 833 457 q 853 535 833 515 q 903 555 873 555 q 951 535 931 555 q 972 486 972 515 q 951 437 972 457 q 903 416 931 416 m 69 555 q 20 576 41 555 q 0 625 0 596 q 20 674 0 653 q 69 694 41 694 q 118 674 98 694 q 138 625 138 653 q 118 576 138 596 q 69 555 98 555 m 208 555 q 159 576 179 555 q 138 625 138 596 q 159 674 138 653 q 208 694 179 694 q 257 674 237 694 q 277 625 277 653 q 257 576 277 596 q 208 555 237 555 m 347 555 q 298 576 318 555 q 277 625 277 596 q 298 674 277 653 q 347 694 318 694 q 396 674 376 694 q 416 625 416 653 q 396 576 416 596 q 347 555 376 555 m 486 555 q 437 576 457 555 q 416 625 416 596 q 437 674 416 653 q 486 694 457 694 q 535 674 515 694 q 555 625 555 653 q 535 576 555 596 q 486 555 515 555 m 625 555 q 576 576 596 555 q 555 625 555 596 q 576 674 555 653 q 625 694 596 694 q 674 674 653 694 q 694 625 694 653 q 674 576 694 596 q 625 555 653 555 m 764 555 q 714 576 735 555 q 694 625 694 596 q 714 674 694 653 q 764 694 735 694 q 812 674 792 694 q 833 625 833 653 q 812 576 833 596 q 764 555 792 555 m 903 555 q 853 576 873 555 q 833 625 833 596 q 853 674 833 653 q 903 694 873 694 q 951 674 931 694 q 972 625 972 653 q 951 576 972 596 q 903 555 931 555 m 69 694 q 20 714 41 694 q 0 764 0 735 q 20 812 0 792 q 69 833 41 833 q 118 812 98 833 q 138 764 138 792 q 118 714 138 735 q 69 694 98 694 m 208 694 q 159 714 179 694 q 138 764 138 735 q 159 812 138 792 q 208 833 179 833 q 257 812 237 833 q 277 764 277 792 q 257 714 277 735 q 208 694 237 694 m 764 694 q 714 714 735 694 q 694 764 694 735 q 714 812 694 792 q 764 833 735 833 q 812 812 792 833 q 833 764 833 792 q 812 714 833 735 q 764 694 792 694 m 903 694 q 853 714 873 694 q 833 764 833 735 q 853 812 833 792 q 903 833 873 833 q 951 812 931 833 q 972 764 972 792 q 951 714 972 735 q 903 694 931 694 m 69 833 q 20 853 41 833 q 0 903 0 873 q 20 951 0 931 q 69 972 41 972 q 118 951 98 972 q 138 903 138 931 q 118 853 138 873 q 69 833 98 833 m 208 833 q 159 853 179 833 q 138 903 138 873 q 159 951 138 931 q 208 972 179 972 q 257 951 237 972 q 277 903 277 931 q 257 853 277 873 q 208 833 237 833 m 764 833 q 714 853 735 833 q 694 903 694 873 q 714 951 694 931 q 764 972 735 972 q 812 951 792 972 q 833 903 833 931 q 812 853 833 873 q 764 833 792 833 m 903 833 q 853 853 873 833 q 833 903 833 873 q 853 951 833 931 q 903 972 873 972 q 951 951 931 972 q 972 903 972 931 q 951 853 972 873 q 903 833 931 833 m 69 972 q 20 992 41 972 q 0 1042 0 1013 q 20 1090 0 1070 q 69 1111 41 1111 q 118 1090 98 1111 q 138 1042 138 1070 q 118 992 138 1013 q 69 972 98 972 m 208 972 q 159 992 179 972 q 138 1042 138 1013 q 159 1090 138 1070 q 208 1111 179 1111 q 257 1090 237 1111 q 277 1042 277 1070 q 257 992 277 1013 q 208 972 237 972 m 764 972 q 714 992 735 972 q 694 1042 694 1013 q 714 1090 694 1070 q 764 1111 735 1111 q 812 1090 792 1111 q 833 1042 833 1070 q 812 992 833 1013 q 764 972 792 972 m 903 972 q 853 992 873 972 q 833 1042 833 1013 q 853 1090 833 1070 q 903 1111 873 1111 q 951 1090 931 1111 q 972 1042 972 1070 q 951 992 972 1013 q 903 972 931 972 m 208 1111 q 159 1131 179 1111 q 138 1180 138 1152 q 159 1230 138 1209 q 208 1250 179 1250 q 257 1230 237 1250 q 277 1180 277 1209 q 257 1131 277 1152 q 208 1111 237 1111 m 347 1111 q 298 1131 318 1111 q 277 1180 277 1152 q 298 1230 277 1209 q 347 1250 318 1250 q 396 1230 376 1250 q 416 1180 416 1209 q 396 1131 416 1152 q 347 1111 376 1111 m 486 1111 q 437 1131 457 1111 q 416 1180 416 1152 q 437 1230 416 1209 q 486 1250 457 1250 q 535 1230 515 1250 q 555 1180 555 1209 q 535 1131 555 1152 q 486 1111 515 1111 m 625 1111 q 576 1131 596 1111 q 555 1180 555 1152 q 576 1230 555 1209 q 625 1250 596 1250 q 674 1230 653 1250 q 694 1180 694 1209 q 674 1131 694 1152 q 625 1111 653 1111 m 764 1111 q 714 1131 735 1111 q 694 1180 694 1152 q 714 1230 694 1209 q 764 1250 735 1250 q 812 1230 792 1250 q 833 1180 833 1209 q 812 1131 833 1152 q 764 1111 792 1111 m 347 1250 q 298 1270 318 1250 q 277 1319 277 1291 q 298 1369 277 1348 q 347 1389 318 1389 q 396 1369 376 1389 q 416 1319 416 1348 q 396 1270 416 1291 q 347 1250 376 1250 m 486 1250 q 437 1270 457 1250 q 416 1319 416 1291 q 437 1369 416 1348 q 486 1389 457 1389 q 535 1369 515 1389 q 555 1319 555 1348 q 535 1270 555 1291 q 486 1250 515 1250 m 625 1250 q 576 1270 596 1250 q 555 1319 555 1291 q 576 1369 555 1348 q 625 1389 596 1389 q 674 1369 653 1389 q 694 1319 694 1348 q 674 1270 694 1291 q 625 1250 653 1250 z "},"B":{"ha":1512,"x_min":0,"x_max":972,"o":"m 69 0 q 20 20 41 0 q 0 69 0 41 q 20 118 0 98 q 69 138 41 138 q 118 118 98 138 q 138 69 138 98 q 118 20 138 41 q 69 0 98 0 m 208 0 q 159 20 179 0 q 138 69 138 41 q 159 118 138 98 q 208 138 179 138 q 257 118 237 138 q 277 69 277 98 q 257 20 277 41 q 208 0 237 0 m 347 0 q 298 20 318 0 q 277 69 277 41 q 298 118 277 98 q 347 138 318 138 q 396 118 376 138 q 416 69 416 98 q 396 20 416 41 q 347 0 376 0 m 486 0 q 437 20 457 0 q 416 69 416 41 q 437 118 416 98 q 486 138 457 138 q 535 118 515 138 q 555 69 555 98 q 535 20 555 41 q 486 0 515 0 m 625 0 q 576 20 596 0 q 555 69 555 41 q 576 118 555 98 q 625 138 596 138 q 674 118 653 138 q 694 69 694 98 q 674 20 694 41 q 625 0 653 0 m 69 138 q 20 159 41 138 q 0 208 0 179 q 20 257 0 237 q 69 277 41 277 q 118 257 98 277 q 138 208 138 237 q 118 159 138 179 q 69 138 98 138 m 208 138 q 159 159 179 138 q 138 208 138 179 q 159 257 138 237 q 208 277 179 277 q 257 257 237 277 q 277 208 277 237 q 257 159 277 179 q 208 138 237 138 m 347 138 q 298 159 318 138 q 277 208 277 179 q 298 257 277 237 q 347 277 318 277 q 396 257 376 277 q 416 208 416 237 q 396 159 416 179 q 347 138 376 138 m 486 138 q 437 159 457 138 q 416 208 416 179 q 437 257 416 237 q 486 277 457 277 q 535 257 515 277 q 555 208 555 237 q 535 159 555 179 q 486 138 515 138 m 625 138 q 576 159 596 138 q 555 208 555 179 q 576 257 555 237 q 625 277 596 277 q 674 257 653 277 q 694 208 694 237 q 674 159 694 179 q 625 138 653 138 m 764 138 q 714 159 735 138 q 694 208 694 179 q 714 257 694 237 q 764 277 735 277 q 812 257 792 277 q 833 208 833 237 q 812 159 833 179 q 764 138 792 138 m 69 277 q 20 298 41 277 q 0 347 0 318 q 20 396 0 376 q 69 416 41 416 q 118 396 98 416 q 138 347 138 376 q 118 298 138 318 q 69 277 98 277 m 208 277 q 159 298 179 277 q 138 347 138 318 q 159 396 138 376 q 208 416 179 416 q 257 396 237 416 q 277 347 277 376 q 257 298 277 318 q 208 277 237 277 m 764 277 q 714 298 735 277 q 694 347 694 318 q 714 396 694 376 q 764 416 735 416 q 812 396 792 416 q 833 347 833 376 q 812 298 833 318 q 764 277 792 277 m 903 277 q 853 298 873 277 q 833 347 833 318 q 853 396 833 376 q 903 416 873 416 q 951 396 931 416 q 972 347 972 376 q 951 298 972 318 q 903 277 931 277 m 69 416 q 20 437 41 416 q 0 486 0 457 q 20 535 0 515 q 69 555 41 555 q 118 535 98 555 q 138 486 138 515 q 118 437 138 457 q 69 416 98 416 m 208 416 q 159 437 179 416 q 138 486 138 457 q 159 535 138 515 q 208 555 179 555 q 257 535 237 555 q 277 486 277 515 q 257 437 277 457 q 208 416 237 416 m 764 416 q 714 437 735 416 q 694 486 694 457 q 714 535 694 515 q 764 555 735 555 q 812 535 792 555 q 833 486 833 515 q 812 437 833 457 q 764 416 792 416 m 903 416 q 853 437 873 416 q 833 486 833 457 q 853 535 833 515 q 903 555 873 555 q 951 535 931 555 q 972 486 972 515 q 951 437 972 457 q 903 416 931 416 m 69 555 q 20 576 41 555 q 0 625 0 596 q 20 674 0 653 q 69 694 41 694 q 118 674 98 694 q 138 625 138 653 q 118 576 138 596 q 69 555 98 555 m 208 555 q 159 576 179 555 q 138 625 138 596 q 159 674 138 653 q 208 694 179 694 q 257 674 237 694 q 277 625 277 653 q 257 576 277 596 q 208 555 237 555 m 347 555 q 298 576 318 555 q 277 625 277 596 q 298 674 277 653 q 347 694 318 694 q 396 674 376 694 q 416 625 416 653 q 396 576 416 596 q 347 555 376 555 m 486 555 q 437 576 457 555 q 416 625 416 596 q 437 674 416 653 q 486 694 457 694 q 535 674 515 694 q 555 625 555 653 q 535 576 555 596 q 486 555 515 555 m 625 555 q 576 576 596 555 q 555 625 555 596 q 576 674 555 653 q 625 694 596 694 q 674 674 653 694 q 694 625 694 653 q 674 576 694 596 q 625 555 653 555 m 764 555 q 714 576 735 555 q 694 625 694 596 q 714 674 694 653 q 764 694 735 694 q 812 674 792 694 q 833 625 833 653 q 812 576 833 596 q 764 555 792 555 m 69 694 q 20 714 41 694 q 0 764 0 735 q 20 812 0 792 q 69 833 41 833 q 118 812 98 833 q 138 764 138 792 q 118 714 138 735 q 69 694 98 694 m 208 694 q 159 714 179 694 q 138 764 138 735 q 159 812 138 792 q 208 833 179 833 q 257 812 237 833 q 277 764 277 792 q 257 714 277 735 q 208 694 237 694 m 347 694 q 298 714 318 694 q 277 764 277 735 q 298 812 277 792 q 347 833 318 833 q 396 812 376 833 q 416 764 416 792 q 396 714 416 735 q 347 694 376 694 m 486 694 q 437 714 457 694 q 416 764 416 735 q 437 812 416 792 q 486 833 457 833 q 535 812 515 833 q 555 764 555 792 q 535 714 555 735 q 486 694 515 694 m 625 694 q 576 714 596 694 q 555 764 555 735 q 576 812 555 792 q 625 833 596 833 q 674 812 653 833 q 694 764 694 792 q 674 714 694 735 q 625 694 653 694 m 764 694 q 714 714 735 694 q 694 764 694 735 q 714 812 694 792 q 764 833 735 833 q 812 812 792 833 q 833 764 833 792 q 812 714 833 735 q 764 694 792 694 m 69 833 q 20 853 41 833 q 0 903 0 873 q 20 951 0 931 q 69 972 41 972 q 118 951 98 972 q 138 903 138 931 q 118 853 138 873 q 69 833 98 833 m 208 833 q 159 853 179 833 q 138 903 138 873 q 159 951 138 931 q 208 972 179 972 q 257 951 237 972 q 277 903 277 931 q 257 853 277 873 q 208 833 237 833 m 764 833 q 714 853 735 833 q 694 903 694 873 q 714 951 694 931 q 764 972 735 972 q 812 951 792 972 q 833 903 833 931 q 812 853 833 873 q 764 833 792 833 m 903 833 q 853 853 873 833 q 833 903 833 873 q 853 951 833 931 q 903 972 873 972 q 951 951 931 972 q 972 903 972 931 q 951 853 972 873 q 903 833 931 833 m 69 972 q 20 992 41 972 q 0 1042 0 1013 q 20 1090 0 1070 q 69 1111 41 1111 q 118 1090 98 1111 q 138 1042 138 1070 q 118 992 138 1013 q 69 972 98 972 m 208 972 q 159 992 179 972 q 138 1042 138 1013 q 159 1090 138 1070 q 208 1111 179 1111 q 257 1090 237 1111 q 277 1042 277 1070 q 257 992 277 1013 q 208 972 237 972 m 764 972 q 714 992 735 972 q 694 1042 694 1013 q 714 1090 694 1070 q 764 1111 735 1111 q 812 1090 792 1111 q 833 1042 833 1070 q 812 992 833 1013 q 764 972 792 972 m 903 972 q 853 992 873 972 q 833 1042 833 1013 q 853 1090 833 1070 q 903 1111 873 1111 q 951 1090 931 1111 q 972 1042 972 1070 q 951 992 972 1013 q 903 972 931 972 m 69 1111 q 20 1131 41 1111 q 0 1180 0 1152 q 20 1230 0 1209 q 69 1250 41 1250 q 118 1230 98 1250 q 138 1180 138 1209 q 118 1131 138 1152 q 69 1111 98 1111 m 208 1111 q 159 1131 179 1111 q 138 1180 138 1152 q 159 1230 138 1209 q 208 1250 179 1250 q 257 1230 237 1250 q 277 1180 277 1209 q 257 1131 277 1152 q 208 1111 237 1111 m 347 1111 q 298 1131 318 1111 q 277 1180 277 1152 q 298 1230 277 1209 q 347 1250 318 1250 q 396 1230 376 1250 q 416 1180 416 1209 q 396 1131 416 1152 q 347 1111 376 1111 m 486 1111 q 437 1131 457 1111 q 416 1180 416 1152 q 437 1230 416 1209 q 486 1250 457 1250 q 535 1230 515 1250 q 555 1180 555 1209 q 535 1131 555 1152 q 486 1111 515 1111 m 625 1111 q 576 1131 596 1111 q 555 1180 555 1152 q 576 1230 555 1209 q 625 1250 596 1250 q 674 1230 653 1250 q 694 1180 694 1209 q 674 1131 694 1152 q 625 1111 653 1111 m 764 1111 q 714 1131 735 1111 q 694 1180 694 1152 q 714 1230 694 1209 q 764 1250 735 1250 q 812 1230 792 1250 q 833 1180 833 1209 q 812 1131 833 1152 q 764 1111 792 1111 m 69 1250 q 20 1270 41 1250 q 0 1319 0 1291 q 20 1369 0 1348 q 69 1389 41 1389 q 118 1369 98 1389 q 138 1319 138 1348 q 118 1270 138 1291 q 69 1250 98 1250 m 208 1250 q 159 1270 179 1250 q 138 1319 138 1291 q 159 1369 138 1348 q 208 1389 179 1389 q 257 1369 237 1389 q 277 1319 277 1348 q 257 1270 277 1291 q 208 1250 237 1250 m 347 1250 q 298 1270 318 1250 q 277 1319 277 1291 q 298 1369 277 1348 q 347 1389 318 1389 q 396 1369 376 1389 q 416 1319 416 1348 q 396 1270 416 1291 q 347 1250 376 1250 m 486 1250 q 437 1270 457 1250 q 416 1319 416 1291 q 437 1369 416 1348 q 486 1389 457 1389 q 535 1369 515 1389 q 555 1319 555 1348 q 535 1270 555 1291 q 486 1250 515 1250 m 625 1250 q 576 1270 596 1250 q 555 1319 555 1291 q 576 1369 555 1348 q 625 1389 596 1389 q 674 1369 653 1389 q 694 1319 694 1348 q 674 1270 694 1291 q 625 1250 653 1250 z "},"C":{"ha":1512,"x_min":0,"x_max":972,"o":"m 347 0 q 298 20 318 0 q 277 69 277 41 q 298 118 277 98 q 347 138 318 138 q 396 118 376 138 q 416 69 416 98 q 396 20 416 41 q 347 0 376 0 m 486 0 q 437 20 457 0 q 416 69 416 41 q 437 118 416 98 q 486 138 457 138 q 535 118 515 138 q 555 69 555 98 q 535 20 555 41 q 486 0 515 0 m 625 0 q 576 20 596 0 q 555 69 555 41 q 576 118 555 98 q 625 138 596 138 q 674 118 653 138 q 694 69 694 98 q 674 20 694 41 q 625 0 653 0 m 208 138 q 159 159 179 138 q 138 208 138 179 q 159 257 138 237 q 208 277 179 277 q 257 257 237 277 q 277 208 277 237 q 257 159 277 179 q 208 138 237 138 m 347 138 q 298 159 318 138 q 277 208 277 179 q 298 257 277 237 q 347 277 318 277 q 396 257 376 277 q 416 208 416 237 q 396 159 416 179 q 347 138 376 138 m 486 138 q 437 159 457 138 q 416 208 416 179 q 437 257 416 237 q 486 277 457 277 q 535 257 515 277 q 555 208 555 237 q 535 159 555 179 q 486 138 515 138 m 625 138 q 576 159 596 138 q 555 208 555 179 q 576 257 555 237 q 625 277 596 277 q 674 257 653 277 q 694 208 694 237 q 674 159 694 179 q 625 138 653 138 m 764 138 q 714 159 735 138 q 694 208 694 179 q 714 257 694 237 q 764 277 735 277 q 812 257 792 277 q 833 208 833 237 q 812 159 833 179 q 764 138 792 138 m 69 277 q 20 298 41 277 q 0 347 0 318 q 20 396 0 376 q 69 416 41 416 q 118 396 98 416 q 138 347 138 376 q 118 298 138 318 q 69 277 98 277 m 208 277 q 159 298 179 277 q 138 347 138 318 q 159 396 138 376 q 208 416 179 416 q 257 396 237 416 q 277 347 277 376 q 257 298 277 318 q 208 277 237 277 m 764 277 q 714 298 735 277 q 694 347 694 318 q 714 396 694 376 q 764 416 735 416 q 812 396 792 416 q 833 347 833 376 q 812 298 833 318 q 764 277 792 277 m 903 277 q 853 298 873 277 q 833 347 833 318 q 853 396 833 376 q 903 416 873 416 q 951 396 931 416 q 972 347 972 376 q 951 298 972 318 q 903 277 931 277 m 69 416 q 20 437 41 416 q 0 486 0 457 q 20 535 0 515 q 69 555 41 555 q 118 535 98 555 q 138 486 138 515 q 118 437 138 457 q 69 416 98 416 m 208 416 q 159 437 179 416 q 138 486 138 457 q 159 535 138 515 q 208 555 179 555 q 257 535 237 555 q 277 486 277 515 q 257 437 277 457 q 208 416 237 416 m 903 416 q 853 437 873 416 q 833 486 833 457 q 853 535 833 515 q 903 555 873 555 q 951 535 931 555 q 972 486 972 515 q 951 437 972 457 q 903 416 931 416 m 69 555 q 20 576 41 555 q 0 625 0 596 q 20 674 0 653 q 69 694 41 694 q 118 674 98 694 q 138 625 138 653 q 118 576 138 596 q 69 555 98 555 m 208 555 q 159 576 179 555 q 138 625 138 596 q 159 674 138 653 q 208 694 179 694 q 257 674 237 694 q 277 625 277 653 q 257 576 277 596 q 208 555 237 555 m 69 694 q 20 714 41 694 q 0 764 0 735 q 20 812 0 792 q 69 833 41 833 q 118 812 98 833 q 138 764 138 792 q 118 714 138 735 q 69 694 98 694 m 208 694 q 159 714 179 694 q 138 764 138 735 q 159 812 138 792 q 208 833 179 833 q 257 812 237 833 q 277 764 277 792 q 257 714 277 735 q 208 694 237 694 m 69 833 q 20 853 41 833 q 0 903 0 873 q 20 951 0 931 q 69 972 41 972 q 118 951 98 972 q 138 903 138 931 q 118 853 138 873 q 69 833 98 833 m 208 833 q 159 853 179 833 q 138 903 138 873 q 159 951 138 931 q 208 972 179 972 q 257 951 237 972 q 277 903 277 931 q 257 853 277 873 q 208 833 237 833 m 903 833 q 853 853 873 833 q 833 903 833 873 q 853 951 833 931 q 903 972 873 972 q 951 951 931 972 q 972 903 972 931 q 951 853 972 873 q 903 833 931 833 m 69 972 q 20 992 41 972 q 0 1042 0 1013 q 20 1090 0 1070 q 69 1111 41 1111 q 118 1090 98 1111 q 138 1042 138 1070 q 118 992 138 1013 q 69 972 98 972 m 208 972 q 159 992 179 972 q 138 1042 138 1013 q 159 1090 138 1070 q 208 1111 179 1111 q 257 1090 237 1111 q 277 1042 277 1070 q 257 992 277 1013 q 208 972 237 972 m 764 972 q 714 992 735 972 q 694 1042 694 1013 q 714 1090 694 1070 q 764 1111 735 1111 q 812 1090 792 1111 q 833 1042 833 1070 q 812 992 833 1013 q 764 972 792 972 m 903 972 q 853 992 873 972 q 833 1042 833 1013 q 853 1090 833 1070 q 903 1111 873 1111 q 951 1090 931 1111 q 972 1042 972 1070 q 951 992 972 1013 q 903 972 931 972 m 208 1111 q 159 1131 179 1111 q 138 1180 138 1152 q 159 1230 138 1209 q 208 1250 179 1250 q 257 1230 237 1250 q 277 1180 277 1209 q 257 1131 277 1152 q 208 1111 237 1111 m 347 1111 q 298 1131 318 1111 q 277 1180 277 1152 q 298 1230 277 1209 q 347 1250 318 1250 q 396 1230 376 1250 q 416 1180 416 1209 q 396 1131 416 1152 q 347 1111 376 1111 m 486 1111 q 437 1131 457 1111 q 416 1180 416 1152 q 437 1230 416 1209 q 486 1250 457 1250 q 535 1230 515 1250 q 555 1180 555 1209 q 535 1131 555 1152 q 486 1111 515 1111 m 625 1111 q 576 1131 596 1111 q 555 1180 555 1152 q 576 1230 555 1209 q 625 1250 596 1250 q 674 1230 653 1250 q 694 1180 694 1209 q 674 1131 694 1152 q 625 1111 653 1111 m 764 1111 q 714 1131 735 1111 q 694 1180 694 1152 q 714 1230 694 1209 q 764 1250 735 1250 q 812 1230 792 1250 q 833 1180 833 1209 q 812 1131 833 1152 q 764 1111 792 1111 m 347 1250 q 298 1270 318 1250 q 277 1319 277 1291 q 298 1369 277 1348 q 347 1389 318 1389 q 396 1369 376 1389 q 416 1319 416 1348 q 396 1270 416 1291 q 347 1250 376 1250 m 486 1250 q 437 1270 457 1250 q 416 1319 416 1291 q 437 1369 416 1348 q 486 1389 457 1389 q 535 1369 515 1389 q 555 1319 555 1348 q 535 1270 555 1291 q 486 1250 515 1250 m 625 1250 q 576 1270 596 1250 q 555 1319 555 1291 q 576 1369 555 1348 q 625 1389 596 1389 q 674 1369 653 1389 q 694 1319 694 1348 q 674 1270 694 1291 q 625 1250 653 1250 z "},"D":{"ha":1512,"x_min":0,"x_max":972,"o":"m 69 0 q 20 20 41 0 q 0 69 0 41 q 20 118 0 98 q 69 138 41 138 q 118 118 98 138 q 138 69 138 98 q 118 20 138 41 q 69 0 98 0 m 208 0 q 159 20 179 0 q 138 69 138 41 q 159 118 138 98 q 208 138 179 138 q 257 118 237 138 q 277 69 277 98 q 257 20 277 41 q 208 0 237 0 m 347 0 q 298 20 318 0 q 277 69 277 41 q 298 118 277 98 q 347 138 318 138 q 396 118 376 138 q 416 69 416 98 q 396 20 416 41 q 347 0 376 0 m 486 0 q 437 20 457 0 q 416 69 416 41 q 437 118 416 98 q 486 138 457 138 q 535 118 515 138 q 555 69 555 98 q 535 20 555 41 q 486 0 515 0 m 625 0 q 576 20 596 0 q 555 69 555 41 q 576 118 555 98 q 625 138 596 138 q 674 118 653 138 q 694 69 694 98 q 674 20 694 41 q 625 0 653 0 m 69 138 q 20 159 41 138 q 0 208 0 179 q 20 257 0 237 q 69 277 41 277 q 118 257 98 277 q 138 208 138 237 q 118 159 138 179 q 69 138 98 138 m 208 138 q 159 159 179 138 q 138 208 138 179 q 159 257 138 237 q 208 277 179 277 q 257 257 237 277 q 277 208 277 237 q 257 159 277 179 q 208 138 237 138 m 347 138 q 298 159 318 138 q 277 208 277 179 q 298 257 277 237 q 347 277 318 277 q 396 257 376 277 q 416 208 416 237 q 396 159 416 179 q 347 138 376 138 m 486 138 q 437 159 457 138 q 416 208 416 179 q 437 257 416 237 q 486 277 457 277 q 535 257 515 277 q 555 208 555 237 q 535 159 555 179 q 486 138 515 138 m 625 138 q 576 159 596 138 q 555 208 555 179 q 576 257 555 237 q 625 277 596 277 q 674 257 653 277 q 694 208 694 237 q 674 159 694 179 q 625 138 653 138 m 764 138 q 714 159 735 138 q 694 208 694 179 q 714 257 694 237 q 764 277 735 277 q 812 257 792 277 q 833 208 833 237 q 812 159 833 179 q 764 138 792 138 m 69 277 q 20 298 41 277 q 0 347 0 318 q 20 396 0 376 q 69 416 41 416 q 118 396 98 416 q 138 347 138 376 q 118 298 138 318 q 69 277 98 277 m 208 277 q 159 298 179 277 q 138 347 138 318 q 159 396 138 376 q 208 416 179 416 q 257 396 237 416 q 277 347 277 376 q 257 298 277 318 q 208 277 237 277 m 764 277 q 714 298 735 277 q 694 347 694 318 q 714 396 694 376 q 764 416 735 416 q 812 396 792 416 q 833 347 833 376 q 812 298 833 318 q 764 277 792 277 m 903 277 q 853 298 873 277 q 833 347 833 318 q 853 396 833 376 q 903 416 873 416 q 951 396 931 416 q 972 347 972 376 q 951 298 972 318 q 903 277 931 277 m 69 416 q 20 437 41 416 q 0 486 0 457 q 20 535 0 515 q 69 555 41 555 q 118 535 98 555 q 138 486 138 515 q 118 437 138 457 q 69 416 98 416 m 208 416 q 159 437 179 416 q 138 486 138 457 q 159 535 138 515 q 208 555 179 555 q 257 535 237 555 q 277 486 277 515 q 257 437 277 457 q 208 416 237 416 m 764 416 q 714 437 735 416 q 694 486 694 457 q 714 535 694 515 q 764 555 735 555 q 812 535 792 555 q 833 486 833 515 q 812 437 833 457 q 764 416 792 416 m 903 416 q 853 437 873 416 q 833 486 833 457 q 853 535 833 515 q 903 555 873 555 q 951 535 931 555 q 972 486 972 515 q 951 437 972 457 q 903 416 931 416 m 69 555 q 20 576 41 555 q 0 625 0 596 q 20 674 0 653 q 69 694 41 694 q 118 674 98 694 q 138 625 138 653 q 118 576 138 596 q 69 555 98 555 m 208 555 q 159 576 179 555 q 138 625 138 596 q 159 674 138 653 q 208 694 179 694 q 257 674 237 694 q 277 625 277 653 q 257 576 277 596 q 208 555 237 555 m 764 555 q 714 576 735 555 q 694 625 694 596 q 714 674 694 653 q 764 694 735 694 q 812 674 792 694 q 833 625 833 653 q 812 576 833 596 q 764 555 792 555 m 903 555 q 853 576 873 555 q 833 625 833 596 q 853 674 833 653 q 903 694 873 694 q 951 674 931 694 q 972 625 972 653 q 951 576 972 596 q 903 555 931 555 m 69 694 q 20 714 41 694 q 0 764 0 735 q 20 812 0 792 q 69 833 41 833 q 118 812 98 833 q 138 764 138 792 q 118 714 138 735 q 69 694 98 694 m 208 694 q 159 714 179 694 q 138 764 138 735 q 159 812 138 792 q 208 833 179 833 q 257 812 237 833 q 277 764 277 792 q 257 714 277 735 q 208 694 237 694 m 764 694 q 714 714 735 694 q 694 764 694 735 q 714 812 694 792 q 764 833 735 833 q 812 812 792 833 q 833 764 833 792 q 812 714 833 735 q 764 694 792 694 m 903 694 q 853 714 873 694 q 833 764 833 735 q 853 812 833 792 q 903 833 873 833 q 951 812 931 833 q 972 764 972 792 q 951 714 972 735 q 903 694 931 694 m 69 833 q 20 853 41 833 q 0 903 0 873 q 20 951 0 931 q 69 972 41 972 q 118 951 98 972 q 138 903 138 931 q 118 853 138 873 q 69 833 98 833 m 208 833 q 159 853 179 833 q 138 903 138 873 q 159 951 138 931 q 208 972 179 972 q 257 951 237 972 q 277 903 277 931 q 257 853 277 873 q 208 833 237 833 m 764 833 q 714 853 735 833 q 694 903 694 873 q 714 951 694 931 q 764 972 735 972 q 812 951 792 972 q 833 903 833 931 q 812 853 833 873 q 764 833 792 833 m 903 833 q 853 853 873 833 q 833 903 833 873 q 853 951 833 931 q 903 972 873 972 q 951 951 931 972 q 972 903 972 931 q 951 853 972 873 q 903 833 931 833 m 69 972 q 20 992 41 972 q 0 1042 0 1013 q 20 1090 0 1070 q 69 1111 41 1111 q 118 1090 98 1111 q 138 1042 138 1070 q 118 992 138 1013 q 69 972 98 972 m 208 972 q 159 992 179 972 q 138 1042 138 1013 q 159 1090 138 1070 q 208 1111 179 1111 q 257 1090 237 1111 q 277 1042 277 1070 q 257 992 277 1013 q 208 972 237 972 m 764 972 q 714 992 735 972 q 694 1042 694 1013 q 714 1090 694 1070 q 764 1111 735 1111 q 812 1090 792 1111 q 833 1042 833 1070 q 812 992 833 1013 q 764 972 792 972 m 903 972 q 853 992 873 972 q 833 1042 833 1013 q 853 1090 833 1070 q 903 1111 873 1111 q 951 1090 931 1111 q 972 1042 972 1070 q 951 992 972 1013 q 903 972 931 972 m 69 1111 q 20 1131 41 1111 q 0 1180 0 1152 q 20 1230 0 1209 q 69 1250 41 1250 q 118 1230 98 1250 q 138 1180 138 1209 q 118 1131 138 1152 q 69 1111 98 1111 m 208 1111 q 159 1131 179 1111 q 138 1180 138 1152 q 159 1230 138 1209 q 208 1250 179 1250 q 257 1230 237 1250 q 277 1180 277 1209 q 257 1131 277 1152 q 208 1111 237 1111 m 347 1111 q 298 1131 318 1111 q 277 1180 277 1152 q 298 1230 277 1209 q 347 1250 318 1250 q 396 1230 376 1250 q 416 1180 416 1209 q 396 1131 416 1152 q 347 1111 376 1111 m 486 1111 q 437 1131 457 1111 q 416 1180 416 1152 q 437 1230 416 1209 q 486 1250 457 1250 q 535 1230 515 1250 q 555 1180 555 1209 q 535 1131 555 1152 q 486 1111 515 1111 m 625 1111 q 576 1131 596 1111 q 555 1180 555 1152 q 576 1230 555 1209 q 625 1250 596 1250 q 674 1230 653 1250 q 694 1180 694 1209 q 674 1131 694 1152 q 625 1111 653 1111 m 764 1111 q 714 1131 735 1111 q 694 1180 694 1152 q 714 1230 694 1209 q 764 1250 735 1250 q 812 1230 792 1250 q 833 1180 833 1209 q 812 1131 833 1152 q 764 1111 792 1111 m 69 1250 q 20 1270 41 1250 q 0 1319 0 1291 q 20 1369 0 1348 q 69 1389 41 1389 q 118 1369 98 1389 q 138 1319 138 1348 q 118 1270 138 1291 q 69 1250 98 1250 m 208 1250 q 159 1270 179 1250 q 138 1319 138 1291 q 159 1369 138 1348 q 208 1389 179 1389 q 257 1369 237 1389 q 277 1319 277 1348 q 257 1270 277 1291 q 208 1250 237 1250 m 347 1250 q 298 1270 318 1250 q 277 1319 277 1291 q 298 1369 277 1348 q 347 1389 318 1389 q 396 1369 376 1389 q 416 1319 416 1348 q 396 1270 416 1291 q 347 1250 376 1250 m 486 1250 q 437 1270 457 1250 q 416 1319 416 1291 q 437 1369 416 1348 q 486 1389 457 1389 q 535 1369 515 1389 q 555 1319 555 1348 q 535 1270 555 1291 q 486 1250 515 1250 m 625 1250 q 576 1270 596 1250 q 555 1319 555 1291 q 576 1369 555 1348 q 625 1389 596 1389 q 674 1369 653 1389 q 694 1319 694 1348 q 674 1270 694 1291 q 625 1250 653 1250 z "},"E":{"ha":1512,"x_min":0,"x_max":972,"o":"m 69 0 q 20 20 41 0 q 0 69 0 41 q 20 118 0 98 q 69 138 41 138 q 118 118 98 138 q 138 69 138 98 q 118 20 138 41 q 69 0 98 0 m 208 0 q 159 20 179 0 q 138 69 138 41 q 159 118 138 98 q 208 138 179 138 q 257 118 237 138 q 277 69 277 98 q 257 20 277 41 q 208 0 237 0 m 347 0 q 298 20 318 0 q 277 69 277 41 q 298 118 277 98 q 347 138 318 138 q 396 118 376 138 q 416 69 416 98 q 396 20 416 41 q 347 0 376 0 m 486 0 q 437 20 457 0 q 416 69 416 41 q 437 118 416 98 q 486 138 457 138 q 535 118 515 138 q 555 69 555 98 q 535 20 555 41 q 486 0 515 0 m 625 0 q 576 20 596 0 q 555 69 555 41 q 576 118 555 98 q 625 138 596 138 q 674 118 653 138 q 694 69 694 98 q 674 20 694 41 q 625 0 653 0 m 764 0 q 714 20 735 0 q 694 69 694 41 q 714 118 694 98 q 764 138 735 138 q 812 118 792 138 q 833 69 833 98 q 812 20 833 41 q 764 0 792 0 m 903 0 q 853 20 873 0 q 833 69 833 41 q 853 118 833 98 q 903 138 873 138 q 951 118 931 138 q 972 69 972 98 q 951 20 972 41 q 903 0 931 0 m 69 138 q 20 159 41 138 q 0 208 0 179 q 20 257 0 237 q 69 277 41 277 q 118 257 98 277 q 138 208 138 237 q 118 159 138 179 q 69 138 98 138 m 208 138 q 159 159 179 138 q 138 208 138 179 q 159 257 138 237 q 208 277 179 277 q 257 257 237 277 q 277 208 277 237 q 257 159 277 179 q 208 138 237 138 m 347 138 q 298 159 318 138 q 277 208 277 179 q 298 257 277 237 q 347 277 318 277 q 396 257 376 277 q 416 208 416 237 q 396 159 416 179 q 347 138 376 138 m 486 138 q 437 159 457 138 q 416 208 416 179 q 437 257 416 237 q 486 277 457 277 q 535 257 515 277 q 555 208 555 237 q 535 159 555 179 q 486 138 515 138 m 625 138 q 576 159 596 138 q 555 208 555 179 q 576 257 555 237 q 625 277 596 277 q 674 257 653 277 q 694 208 694 237 q 674 159 694 179 q 625 138 653 138 m 764 138 q 714 159 735 138 q 694 208 694 179 q 714 257 694 237 q 764 277 735 277 q 812 257 792 277 q 833 208 833 237 q 812 159 833 179 q 764 138 792 138 m 903 138 q 853 159 873 138 q 833 208 833 179 q 853 257 833 237 q 903 277 873 277 q 951 257 931 277 q 972 208 972 237 q 951 159 972 179 q 903 138 931 138 m 69 277 q 20 298 41 277 q 0 347 0 318 q 20 396 0 376 q 69 416 41 416 q 118 396 98 416 q 138 347 138 376 q 118 298 138 318 q 69 277 98 277 m 208 277 q 159 298 179 277 q 138 347 138 318 q 159 396 138 376 q 208 416 179 416 q 257 396 237 416 q 277 347 277 376 q 257 298 277 318 q 208 277 237 277 m 69 416 q 20 437 41 416 q 0 486 0 457 q 20 535 0 515 q 69 555 41 555 q 118 535 98 555 q 138 486 138 515 q 118 437 138 457 q 69 416 98 416 m 208 416 q 159 437 179 416 q 138 486 138 457 q 159 535 138 515 q 208 555 179 555 q 257 535 237 555 q 277 486 277 515 q 257 437 277 457 q 208 416 237 416 m 69 555 q 20 576 41 555 q 0 625 0 596 q 20 674 0 653 q 69 694 41 694 q 118 674 98 694 q 138 625 138 653 q 118 576 138 596 q 69 555 98 555 m 208 555 q 159 576 179 555 q 138 625 138 596 q 159 674 138 653 q 208 694 179 694 q 257 674 237 694 q 277 625 277 653 q 257 576 277 596 q 208 555 237 555 m 347 555 q 298 576 318 555 q 277 625 277 596 q 298 674 277 653 q 347 694 318 694 q 396 674 376 694 q 416 625 416 653 q 396 576 416 596 q 347 555 376 555 m 486 555 q 437 576 457 555 q 416 625 416 596 q 437 674 416 653 q 486 694 457 694 q 535 674 515 694 q 555 625 555 653 q 535 576 555 596 q 486 555 515 555 m 625 555 q 576 576 596 555 q 555 625 555 596 q 576 674 555 653 q 625 694 596 694 q 674 674 653 694 q 694 625 694 653 q 674 576 694 596 q 625 555 653 555 m 764 555 q 714 576 735 555 q 694 625 694 596 q 714 674 694 653 q 764 694 735 694 q 812 674 792 694 q 833 625 833 653 q 812 576 833 596 q 764 555 792 555 m 69 694 q 20 714 41 694 q 0 764 0 735 q 20 812 0 792 q 69 833 41 833 q 118 812 98 833 q 138 764 138 792 q 118 714 138 735 q 69 694 98 694 m 208 694 q 159 714 179 694 q 138 764 138 735 q 159 812 138 792 q 208 833 179 833 q 257 812 237 833 q 277 764 277 792 q 257 714 277 735 q 208 694 237 694 m 347 694 q 298 714 318 694 q 277 764 277 735 q 298 812 277 792 q 347 833 318 833 q 396 812 376 833 q 416 764 416 792 q 396 714 416 735 q 347 694 376 694 m 486 694 q 437 714 457 694 q 416 764 416 735 q 437 812 416 792 q 486 833 457 833 q 535 812 515 833 q 555 764 555 792 q 535 714 555 735 q 486 694 515 694 m 625 694 q 576 714 596 694 q 555 764 555 735 q 576 812 555 792 q 625 833 596 833 q 674 812 653 833 q 694 764 694 792 q 674 714 694 735 q 625 694 653 694 m 764 694 q 714 714 735 694 q 694 764 694 735 q 714 812 694 792 q 764 833 735 833 q 812 812 792 833 q 833 764 833 792 q 812 714 833 735 q 764 694 792 694 m 69 833 q 20 853 41 833 q 0 903 0 873 q 20 951 0 931 q 69 972 41 972 q 118 951 98 972 q 138 903 138 931 q 118 853 138 873 q 69 833 98 833 m 208 833 q 159 853 179 833 q 138 903 138 873 q 159 951 138 931 q 208 972 179 972 q 257 951 237 972 q 277 903 277 931 q 257 853 277 873 q 208 833 237 833 m 69 972 q 20 992 41 972 q 0 1042 0 1013 q 20 1090 0 1070 q 69 1111 41 1111 q 118 1090 98 1111 q 138 1042 138 1070 q 118 992 138 1013 q 69 972 98 972 m 208 972 q 159 992 179 972 q 138 1042 138 1013 q 159 1090 138 1070 q 208 1111 179 1111 q 257 1090 237 1111 q 277 1042 277 1070 q 257 992 277 1013 q 208 972 237 972 m 69 1111 q 20 1131 41 1111 q 0 1180 0 1152 q 20 1230 0 1209 q 69 1250 41 1250 q 118 1230 98 1250 q 138 1180 138 1209 q 118 1131 138 1152 q 69 1111 98 1111 m 208 1111 q 159 1131 179 1111 q 138 1180 138 1152 q 159 1230 138 1209 q 208 1250 179 1250 q 257 1230 237 1250 q 277 1180 277 1209 q 257 1131 277 1152 q 208 1111 237 1111 m 347 1111 q 298 1131 318 1111 q 277 1180 277 1152 q 298 1230 277 1209 q 347 1250 318 1250 q 396 1230 376 1250 q 416 1180 416 1209 q 396 1131 416 1152 q 347 1111 376 1111 m 486 1111 q 437 1131 457 1111 q 416 1180 416 1152 q 437 1230 416 1209 q 486 1250 457 1250 q 535 1230 515 1250 q 555 1180 555 1209 q 535 1131 555 1152 q 486 1111 515 1111 m 625 1111 q 576 1131 596 1111 q 555 1180 555 1152 q 576 1230 555 1209 q 625 1250 596 1250 q 674 1230 653 1250 q 694 1180 694 1209 q 674 1131 694 1152 q 625 1111 653 1111 m 764 1111 q 714 1131 735 1111 q 694 1180 694 1152 q 714 1230 694 1209 q 764 1250 735 1250 q 812 1230 792 1250 q 833 1180 833 1209 q 812 1131 833 1152 q 764 1111 792 1111 m 903 1111 q 853 1131 873 1111 q 833 1180 833 1152 q 853 1230 833 1209 q 903 1250 873 1250 q 951 1230 931 1250 q 972 1180 972 1209 q 951 1131 972 1152 q 903 1111 931 1111 m 69 1250 q 20 1270 41 1250 q 0 1319 0 1291 q 20 1369 0 1348 q 69 1389 41 1389 q 118 1369 98 1389 q 138 1319 138 1348 q 118 1270 138 1291 q 69 1250 98 1250 m 208 1250 q 159 1270 179 1250 q 138 1319 138 1291 q 159 1369 138 1348 q 208 1389 179 1389 q 257 1369 237 1389 q 277 1319 277 1348 q 257 1270 277 1291 q 208 1250 237 1250 m 347 1250 q 298 1270 318 1250 q 277 1319 277 1291 q 298 1369 277 1348 q 347 1389 318 1389 q 396 1369 376 1389 q 416 1319 416 1348 q 396 1270 416 1291 q 347 1250 376 1250 m 486 1250 q 437 1270 457 1250 q 416 1319 416 1291 q 437 1369 416 1348 q 486 1389 457 1389 q 535 1369 515 1389 q 555 1319 555 1348 q 535 1270 555 1291 q 486 1250 515 1250 m 625 1250 q 576 1270 596 1250 q 555 1319 555 1291 q 576 1369 555 1348 q 625 1389 596 1389 q 674 1369 653 1389 q 694 1319 694 1348 q 674 1270 694 1291 q 625 1250 653 1250 m 764 1250 q 714 1270 735 1250 q 694 1319 694 1291 q 714 1369 694 1348 q 764 1389 735 1389 q 812 1369 792 1389 q 833 1319 833 1348 q 812 1270 833 1291 q 764 1250 792 1250 m 903 1250 q 853 1270 873 1250 q 833 1319 833 1291 q 853 1369 833 1348 q 903 1389 873 1389 q 951 1369 931 1389 q 972 1319 972 1348 q 951 1270 972 1291 q 903 1250 931 1250 z "},"F":{"ha":1512,"x_min":0,"x_max":972,"o":"m 69 0 q 20 20 41 0 q 0 69 0 41 q 20 118 0 98 q 69 138 41 138 q 118 118 98 138 q 138 69 138 98 q 118 20 138 41 q 69 0 98 0 m 208 0 q 159 20 179 0 q 138 69 138 41 q 159 118 138 98 q 208 138 179 138 q 257 118 237 138 q 277 69 277 98 q 257 20 277 41 q 208 0 237 0 m 69 138 q 20 159 41 138 q 0 208 0 179 q 20 257 0 237 q 69 277 41 277 q 118 257 98 277 q 138 208 138 237 q 118 159 138 179 q 69 138 98 138 m 208 138 q 159 159 179 138 q 138 208 138 179 q 159 257 138 237 q 208 277 179 277 q 257 257 237 277 q 277 208 277 237 q 257 159 277 179 q 208 138 237 138 m 69 277 q 20 298 41 277 q 0 347 0 318 q 20 396 0 376 q 69 416 41 416 q 118 396 98 416 q 138 347 138 376 q 118 298 138 318 q 69 277 98 277 m 208 277 q 159 298 179 277 q 138 347 138 318 q 159 396 138 376 q 208 416 179 416 q 257 396 237 416 q 277 347 277 376 q 257 298 277 318 q 208 277 237 277 m 69 416 q 20 437 41 416 q 0 486 0 457 q 20 535 0 515 q 69 555 41 555 q 118 535 98 555 q 138 486 138 515 q 118 437 138 457 q 69 416 98 416 m 208 416 q 159 437 179 416 q 138 486 138 457 q 159 535 138 515 q 208 555 179 555 q 257 535 237 555 q 277 486 277 515 q 257 437 277 457 q 208 416 237 416 m 69 555 q 20 576 41 555 q 0 625 0 596 q 20 674 0 653 q 69 694 41 694 q 118 674 98 694 q 138 625 138 653 q 118 576 138 596 q 69 555 98 555 m 208 555 q 159 576 179 555 q 138 625 138 596 q 159 674 138 653 q 208 694 179 694 q 257 674 237 694 q 277 625 277 653 q 257 576 277 596 q 208 555 237 555 m 347 555 q 298 576 318 555 q 277 625 277 596 q 298 674 277 653 q 347 694 318 694 q 396 674 376 694 q 416 625 416 653 q 396 576 416 596 q 347 555 376 555 m 486 555 q 437 576 457 555 q 416 625 416 596 q 437 674 416 653 q 486 694 457 694 q 535 674 515 694 q 555 625 555 653 q 535 576 555 596 q 486 555 515 555 m 625 555 q 576 576 596 555 q 555 625 555 596 q 576 674 555 653 q 625 694 596 694 q 674 674 653 694 q 694 625 694 653 q 674 576 694 596 q 625 555 653 555 m 764 555 q 714 576 735 555 q 694 625 694 596 q 714 674 694 653 q 764 694 735 694 q 812 674 792 694 q 833 625 833 653 q 812 576 833 596 q 764 555 792 555 m 69 694 q 20 714 41 694 q 0 764 0 735 q 20 812 0 792 q 69 833 41 833 q 118 812 98 833 q 138 764 138 792 q 118 714 138 735 q 69 694 98 694 m 208 694 q 159 714 179 694 q 138 764 138 735 q 159 812 138 792 q 208 833 179 833 q 257 812 237 833 q 277 764 277 792 q 257 714 277 735 q 208 694 237 694 m 347 694 q 298 714 318 694 q 277 764 277 735 q 298 812 277 792 q 347 833 318 833 q 396 812 376 833 q 416 764 416 792 q 396 714 416 735 q 347 694 376 694 m 486 694 q 437 714 457 694 q 416 764 416 735 q 437 812 416 792 q 486 833 457 833 q 535 812 515 833 q 555 764 555 792 q 535 714 555 735 q 486 694 515 694 m 625 694 q 576 714 596 694 q 555 764 555 735 q 576 812 555 792 q 625 833 596 833 q 674 812 653 833 q 694 764 694 792 q 674 714 694 735 q 625 694 653 694 m 764 694 q 714 714 735 694 q 694 764 694 735 q 714 812 694 792 q 764 833 735 833 q 812 812 792 833 q 833 764 833 792 q 812 714 833 735 q 764 694 792 694 m 69 833 q 20 853 41 833 q 0 903 0 873 q 20 951 0 931 q 69 972 41 972 q 118 951 98 972 q 138 903 138 931 q 118 853 138 873 q 69 833 98 833 m 208 833 q 159 853 179 833 q 138 903 138 873 q 159 951 138 931 q 208 972 179 972 q 257 951 237 972 q 277 903 277 931 q 257 853 277 873 q 208 833 237 833 m 69 972 q 20 992 41 972 q 0 1042 0 1013 q 20 1090 0 1070 q 69 1111 41 1111 q 118 1090 98 1111 q 138 1042 138 1070 q 118 992 138 1013 q 69 972 98 972 m 208 972 q 159 992 179 972 q 138 1042 138 1013 q 159 1090 138 1070 q 208 1111 179 1111 q 257 1090 237 1111 q 277 1042 277 1070 q 257 992 277 1013 q 208 972 237 972 m 69 1111 q 20 1131 41 1111 q 0 1180 0 1152 q 20 1230 0 1209 q 69 1250 41 1250 q 118 1230 98 1250 q 138 1180 138 1209 q 118 1131 138 1152 q 69 1111 98 1111 m 208 1111 q 159 1131 179 1111 q 138 1180 138 1152 q 159 1230 138 1209 q 208 1250 179 1250 q 257 1230 237 1250 q 277 1180 277 1209 q 257 1131 277 1152 q 208 1111 237 1111 m 347 1111 q 298 1131 318 1111 q 277 1180 277 1152 q 298 1230 277 1209 q 347 1250 318 1250 q 396 1230 376 1250 q 416 1180 416 1209 q 396 1131 416 1152 q 347 1111 376 1111 m 486 1111 q 437 1131 457 1111 q 416 1180 416 1152 q 437 1230 416 1209 q 486 1250 457 1250 q 535 1230 515 1250 q 555 1180 555 1209 q 535 1131 555 1152 q 486 1111 515 1111 m 625 1111 q 576 1131 596 1111 q 555 1180 555 1152 q 576 1230 555 1209 q 625 1250 596 1250 q 674 1230 653 1250 q 694 1180 694 1209 q 674 1131 694 1152 q 625 1111 653 1111 m 764 1111 q 714 1131 735 1111 q 694 1180 694 1152 q 714 1230 694 1209 q 764 1250 735 1250 q 812 1230 792 1250 q 833 1180 833 1209 q 812 1131 833 1152 q 764 1111 792 1111 m 903 1111 q 853 1131 873 1111 q 833 1180 833 1152 q 853 1230 833 1209 q 903 1250 873 1250 q 951 1230 931 1250 q 972 1180 972 1209 q 951 1131 972 1152 q 903 1111 931 1111 m 69 1250 q 20 1270 41 1250 q 0 1319 0 1291 q 20 1369 0 1348 q 69 1389 41 1389 q 118 1369 98 1389 q 138 1319 138 1348 q 118 1270 138 1291 q 69 1250 98 1250 m 208 1250 q 159 1270 179 1250 q 138 1319 138 1291 q 159 1369 138 1348 q 208 1389 179 1389 q 257 1369 237 1389 q 277 1319 277 1348 q 257 1270 277 1291 q 208 1250 237 1250 m 347 1250 q 298 1270 318 1250 q 277 1319 277 1291 q 298 1369 277 1348 q 347 1389 318 1389 q 396 1369 376 1389 q 416 1319 416 1348 q 396 1270 416 1291 q 347 1250 376 1250 m 486 1250 q 437 1270 457 1250 q 416 1319 416 1291 q 437 1369 416 1348 q 486 1389 457 1389 q 535 1369 515 1389 q 555 1319 555 1348 q 535 1270 555 1291 q 486 1250 515 1250 m 625 1250 q 576 1270 596 1250 q 555 1319 555 1291 q 576 1369 555 1348 q 625 1389 596 1389 q 674 1369 653 1389 q 694 1319 694 1348 q 674 1270 694 1291 q 625 1250 653 1250 m 764 1250 q 714 1270 735 1250 q 694 1319 694 1291 q 714 1369 694 1348 q 764 1389 735 1389 q 812 1369 792 1389 q 833 1319 833 1348 q 812 1270 833 1291 q 764 1250 792 1250 m 903 1250 q 853 1270 873 1250 q 833 1319 833 1291 q 853 1369 833 1348 q 903 1389 873 1389 q 951 1369 931 1389 q 972 1319 972 1348 q 951 1270 972 1291 q 903 1250 931 1250 z "},"G":{"ha":1512,"x_min":0,"x_max":972,"o":"m 347 0 q 298 20 318 0 q 277 69 277 41 q 298 118 277 98 q 347 138 318 138 q 396 118 376 138 q 416 69 416 98 q 396 20 416 41 q 347 0 376 0 m 486 0 q 437 20 457 0 q 416 69 416 41 q 437 118 416 98 q 486 138 457 138 q 535 118 515 138 q 555 69 555 98 q 535 20 555 41 q 486 0 515 0 m 625 0 q 576 20 596 0 q 555 69 555 41 q 576 118 555 98 q 625 138 596 138 q 674 118 653 138 q 694 69 694 98 q 674 20 694 41 q 625 0 653 0 m 208 138 q 159 159 179 138 q 138 208 138 179 q 159 257 138 237 q 208 277 179 277 q 257 257 237 277 q 277 208 277 237 q 257 159 277 179 q 208 138 237 138 m 347 138 q 298 159 318 138 q 277 208 277 179 q 298 257 277 237 q 347 277 318 277 q 396 257 376 277 q 416 208 416 237 q 396 159 416 179 q 347 138 376 138 m 486 138 q 437 159 457 138 q 416 208 416 179 q 437 257 416 237 q 486 277 457 277 q 535 257 515 277 q 555 208 555 237 q 535 159 555 179 q 486 138 515 138 m 625 138 q 576 159 596 138 q 555 208 555 179 q 576 257 555 237 q 625 277 596 277 q 674 257 653 277 q 694 208 694 237 q 674 159 694 179 q 625 138 653 138 m 764 138 q 714 159 735 138 q 694 208 694 179 q 714 257 694 237 q 764 277 735 277 q 812 257 792 277 q 833 208 833 237 q 812 159 833 179 q 764 138 792 138 m 69 277 q 20 298 41 277 q 0 347 0 318 q 20 396 0 376 q 69 416 41 416 q 118 396 98 416 q 138 347 138 376 q 118 298 138 318 q 69 277 98 277 m 208 277 q 159 298 179 277 q 138 347 138 318 q 159 396 138 376 q 208 416 179 416 q 257 396 237 416 q 277 347 277 376 q 257 298 277 318 q 208 277 237 277 m 764 277 q 714 298 735 277 q 694 347 694 318 q 714 396 694 376 q 764 416 735 416 q 812 396 792 416 q 833 347 833 376 q 812 298 833 318 q 764 277 792 277 m 903 277 q 853 298 873 277 q 833 347 833 318 q 853 396 833 376 q 903 416 873 416 q 951 396 931 416 q 972 347 972 376 q 951 298 972 318 q 903 277 931 277 m 69 416 q 20 437 41 416 q 0 486 0 457 q 20 535 0 515 q 69 555 41 555 q 118 535 98 555 q 138 486 138 515 q 118 437 138 457 q 69 416 98 416 m 208 416 q 159 437 179 416 q 138 486 138 457 q 159 535 138 515 q 208 555 179 555 q 257 535 237 555 q 277 486 277 515 q 257 437 277 457 q 208 416 237 416 m 764 416 q 714 437 735 416 q 694 486 694 457 q 714 535 694 515 q 764 555 735 555 q 812 535 792 555 q 833 486 833 515 q 812 437 833 457 q 764 416 792 416 m 903 416 q 853 437 873 416 q 833 486 833 457 q 853 535 833 515 q 903 555 873 555 q 951 535 931 555 q 972 486 972 515 q 951 437 972 457 q 903 416 931 416 m 69 555 q 20 576 41 555 q 0 625 0 596 q 20 674 0 653 q 69 694 41 694 q 118 674 98 694 q 138 625 138 653 q 118 576 138 596 q 69 555 98 555 m 208 555 q 159 576 179 555 q 138 625 138 596 q 159 674 138 653 q 208 694 179 694 q 257 674 237 694 q 277 625 277 653 q 257 576 277 596 q 208 555 237 555 m 764 555 q 714 576 735 555 q 694 625 694 596 q 714 674 694 653 q 764 694 735 694 q 812 674 792 694 q 833 625 833 653 q 812 576 833 596 q 764 555 792 555 m 903 555 q 853 576 873 555 q 833 625 833 596 q 853 674 833 653 q 903 694 873 694 q 951 674 931 694 q 972 625 972 653 q 951 576 972 596 q 903 555 931 555 m 69 694 q 20 714 41 694 q 0 764 0 735 q 20 812 0 792 q 69 833 41 833 q 118 812 98 833 q 138 764 138 792 q 118 714 138 735 q 69 694 98 694 m 208 694 q 159 714 179 694 q 138 764 138 735 q 159 812 138 792 q 208 833 179 833 q 257 812 237 833 q 277 764 277 792 q 257 714 277 735 q 208 694 237 694 m 486 694 q 437 714 457 694 q 416 764 416 735 q 437 812 416 792 q 486 833 457 833 q 535 812 515 833 q 555 764 555 792 q 535 714 555 735 q 486 694 515 694 m 625 694 q 576 714 596 694 q 555 764 555 735 q 576 812 555 792 q 625 833 596 833 q 674 812 653 833 q 694 764 694 792 q 674 714 694 735 q 625 694 653 694 m 764 694 q 714 714 735 694 q 694 764 694 735 q 714 812 694 792 q 764 833 735 833 q 812 812 792 833 q 833 764 833 792 q 812 714 833 735 q 764 694 792 694 m 903 694 q 853 714 873 694 q 833 764 833 735 q 853 812 833 792 q 903 833 873 833 q 951 812 931 833 q 972 764 972 792 q 951 714 972 735 q 903 694 931 694 m 69 833 q 20 853 41 833 q 0 903 0 873 q 20 951 0 931 q 69 972 41 972 q 118 951 98 972 q 138 903 138 931 q 118 853 138 873 q 69 833 98 833 m 208 833 q 159 853 179 833 q 138 903 138 873 q 159 951 138 931 q 208 972 179 972 q 257 951 237 972 q 277 903 277 931 q 257 853 277 873 q 208 833 237 833 m 69 972 q 20 992 41 972 q 0 1042 0 1013 q 20 1090 0 1070 q 69 1111 41 1111 q 118 1090 98 1111 q 138 1042 138 1070 q 118 992 138 1013 q 69 972 98 972 m 208 972 q 159 992 179 972 q 138 1042 138 1013 q 159 1090 138 1070 q 208 1111 179 1111 q 257 1090 237 1111 q 277 1042 277 1070 q 257 992 277 1013 q 208 972 237 972 m 903 972 q 853 992 873 972 q 833 1042 833 1013 q 853 1090 833 1070 q 903 1111 873 1111 q 951 1090 931 1111 q 972 1042 972 1070 q 951 992 972 1013 q 903 972 931 972 m 208 1111 q 159 1131 179 1111 q 138 1180 138 1152 q 159 1230 138 1209 q 208 1250 179 1250 q 257 1230 237 1250 q 277 1180 277 1209 q 257 1131 277 1152 q 208 1111 237 1111 m 347 1111 q 298 1131 318 1111 q 277 1180 277 1152 q 298 1230 277 1209 q 347 1250 318 1250 q 396 1230 376 1250 q 416 1180 416 1209 q 396 1131 416 1152 q 347 1111 376 1111 m 486 1111 q 437 1131 457 1111 q 416 1180 416 1152 q 437 1230 416 1209 q 486 1250 457 1250 q 535 1230 515 1250 q 555 1180 555 1209 q 535 1131 555 1152 q 486 1111 515 1111 m 625 1111 q 576 1131 596 1111 q 555 1180 555 1152 q 576 1230 555 1209 q 625 1250 596 1250 q 674 1230 653 1250 q 694 1180 694 1209 q 674 1131 694 1152 q 625 1111 653 1111 m 764 1111 q 714 1131 735 1111 q 694 1180 694 1152 q 714 1230 694 1209 q 764 1250 735 1250 q 812 1230 792 1250 q 833 1180 833 1209 q 812 1131 833 1152 q 764 1111 792 1111 m 903 1111 q 853 1131 873 1111 q 833 1180 833 1152 q 853 1230 833 1209 q 903 1250 873 1250 q 951 1230 931 1250 q 972 1180 972 1209 q 951 1131 972 1152 q 903 1111 931 1111 m 347 1250 q 298 1270 318 1250 q 277 1319 277 1291 q 298 1369 277 1348 q 347 1389 318 1389 q 396 1369 376 1389 q 416 1319 416 1348 q 396 1270 416 1291 q 347 1250 376 1250 m 486 1250 q 437 1270 457 1250 q 416 1319 416 1291 q 437 1369 416 1348 q 486 1389 457 1389 q 535 1369 515 1389 q 555 1319 555 1348 q 535 1270 555 1291 q 486 1250 515 1250 m 625 1250 q 576 1270 596 1250 q 555 1319 555 1291 q 576 1369 555 1348 q 625 1389 596 1389 q 674 1369 653 1389 q 694 1319 694 1348 q 674 1270 694 1291 q 625 1250 653 1250 m 764 1250 q 714 1270 735 1250 q 694 1319 694 1291 q 714 1369 694 1348 q 764 1389 735 1389 q 812 1369 792 1389 q 833 1319 833 1348 q 812 1270 833 1291 q 764 1250 792 1250 z "},"H":{"ha":1512,"x_min":0,"x_max":972,"o":"m 69 0 q 20 20 41 0 q 0 69 0 41 q 20 118 0 98 q 69 138 41 138 q 118 118 98 138 q 138 69 138 98 q 118 20 138 41 q 69 0 98 0 m 208 0 q 159 20 179 0 q 138 69 138 41 q 159 118 138 98 q 208 138 179 138 q 257 118 237 138 q 277 69 277 98 q 257 20 277 41 q 208 0 237 0 m 764 0 q 714 20 735 0 q 694 69 694 41 q 714 118 694 98 q 764 138 735 138 q 812 118 792 138 q 833 69 833 98 q 812 20 833 41 q 764 0 792 0 m 903 0 q 853 20 873 0 q 833 69 833 41 q 853 118 833 98 q 903 138 873 138 q 951 118 931 138 q 972 69 972 98 q 951 20 972 41 q 903 0 931 0 m 69 138 q 20 159 41 138 q 0 208 0 179 q 20 257 0 237 q 69 277 41 277 q 118 257 98 277 q 138 208 138 237 q 118 159 138 179 q 69 138 98 138 m 208 138 q 159 159 179 138 q 138 208 138 179 q 159 257 138 237 q 208 277 179 277 q 257 257 237 277 q 277 208 277 237 q 257 159 277 179 q 208 138 237 138 m 764 138 q 714 159 735 138 q 694 208 694 179 q 714 257 694 237 q 764 277 735 277 q 812 257 792 277 q 833 208 833 237 q 812 159 833 179 q 764 138 792 138 m 903 138 q 853 159 873 138 q 833 208 833 179 q 853 257 833 237 q 903 277 873 277 q 951 257 931 277 q 972 208 972 237 q 951 159 972 179 q 903 138 931 138 m 69 277 q 20 298 41 277 q 0 347 0 318 q 20 396 0 376 q 69 416 41 416 q 118 396 98 416 q 138 347 138 376 q 118 298 138 318 q 69 277 98 277 m 208 277 q 159 298 179 277 q 138 347 138 318 q 159 396 138 376 q 208 416 179 416 q 257 396 237 416 q 277 347 277 376 q 257 298 277 318 q 208 277 237 277 m 764 277 q 714 298 735 277 q 694 347 694 318 q 714 396 694 376 q 764 416 735 416 q 812 396 792 416 q 833 347 833 376 q 812 298 833 318 q 764 277 792 277 m 903 277 q 853 298 873 277 q 833 347 833 318 q 853 396 833 376 q 903 416 873 416 q 951 396 931 416 q 972 347 972 376 q 951 298 972 318 q 903 277 931 277 m 69 416 q 20 437 41 416 q 0 486 0 457 q 20 535 0 515 q 69 555 41 555 q 118 535 98 555 q 138 486 138 515 q 118 437 138 457 q 69 416 98 416 m 208 416 q 159 437 179 416 q 138 486 138 457 q 159 535 138 515 q 208 555 179 555 q 257 535 237 555 q 277 486 277 515 q 257 437 277 457 q 208 416 237 416 m 764 416 q 714 437 735 416 q 694 486 694 457 q 714 535 694 515 q 764 555 735 555 q 812 535 792 555 q 833 486 833 515 q 812 437 833 457 q 764 416 792 416 m 903 416 q 853 437 873 416 q 833 486 833 457 q 853 535 833 515 q 903 555 873 555 q 951 535 931 555 q 972 486 972 515 q 951 437 972 457 q 903 416 931 416 m 69 555 q 20 576 41 555 q 0 625 0 596 q 20 674 0 653 q 69 694 41 694 q 118 674 98 694 q 138 625 138 653 q 118 576 138 596 q 69 555 98 555 m 208 555 q 159 576 179 555 q 138 625 138 596 q 159 674 138 653 q 208 694 179 694 q 257 674 237 694 q 277 625 277 653 q 257 576 277 596 q 208 555 237 555 m 347 555 q 298 576 318 555 q 277 625 277 596 q 298 674 277 653 q 347 694 318 694 q 396 674 376 694 q 416 625 416 653 q 396 576 416 596 q 347 555 376 555 m 486 555 q 437 576 457 555 q 416 625 416 596 q 437 674 416 653 q 486 694 457 694 q 535 674 515 694 q 555 625 555 653 q 535 576 555 596 q 486 555 515 555 m 625 555 q 576 576 596 555 q 555 625 555 596 q 576 674 555 653 q 625 694 596 694 q 674 674 653 694 q 694 625 694 653 q 674 576 694 596 q 625 555 653 555 m 764 555 q 714 576 735 555 q 694 625 694 596 q 714 674 694 653 q 764 694 735 694 q 812 674 792 694 q 833 625 833 653 q 812 576 833 596 q 764 555 792 555 m 903 555 q 853 576 873 555 q 833 625 833 596 q 853 674 833 653 q 903 694 873 694 q 951 674 931 694 q 972 625 972 653 q 951 576 972 596 q 903 555 931 555 m 69 694 q 20 714 41 694 q 0 764 0 735 q 20 812 0 792 q 69 833 41 833 q 118 812 98 833 q 138 764 138 792 q 118 714 138 735 q 69 694 98 694 m 208 694 q 159 714 179 694 q 138 764 138 735 q 159 812 138 792 q 208 833 179 833 q 257 812 237 833 q 277 764 277 792 q 257 714 277 735 q 208 694 237 694 m 347 694 q 298 714 318 694 q 277 764 277 735 q 298 812 277 792 q 347 833 318 833 q 396 812 376 833 q 416 764 416 792 q 396 714 416 735 q 347 694 376 694 m 486 694 q 437 714 457 694 q 416 764 416 735 q 437 812 416 792 q 486 833 457 833 q 535 812 515 833 q 555 764 555 792 q 535 714 555 735 q 486 694 515 694 m 625 694 q 576 714 596 694 q 555 764 555 735 q 576 812 555 792 q 625 833 596 833 q 674 812 653 833 q 694 764 694 792 q 674 714 694 735 q 625 694 653 694 m 764 694 q 714 714 735 694 q 694 764 694 735 q 714 812 694 792 q 764 833 735 833 q 812 812 792 833 q 833 764 833 792 q 812 714 833 735 q 764 694 792 694 m 903 694 q 853 714 873 694 q 833 764 833 735 q 853 812 833 792 q 903 833 873 833 q 951 812 931 833 q 972 764 972 792 q 951 714 972 735 q 903 694 931 694 m 69 833 q 20 853 41 833 q 0 903 0 873 q 20 951 0 931 q 69 972 41 972 q 118 951 98 972 q 138 903 138 931 q 118 853 138 873 q 69 833 98 833 m 208 833 q 159 853 179 833 q 138 903 138 873 q 159 951 138 931 q 208 972 179 972 q 257 951 237 972 q 277 903 277 931 q 257 853 277 873 q 208 833 237 833 m 764 833 q 714 853 735 833 q 694 903 694 873 q 714 951 694 931 q 764 972 735 972 q 812 951 792 972 q 833 903 833 931 q 812 853 833 873 q 764 833 792 833 m 903 833 q 853 853 873 833 q 833 903 833 873 q 853 951 833 931 q 903 972 873 972 q 951 951 931 972 q 972 903 972 931 q 951 853 972 873 q 903 833 931 833 m 69 972 q 20 992 41 972 q 0 1042 0 1013 q 20 1090 0 1070 q 69 1111 41 1111 q 118 1090 98 1111 q 138 1042 138 1070 q 118 992 138 1013 q 69 972 98 972 m 208 972 q 159 992 179 972 q 138 1042 138 1013 q 159 1090 138 1070 q 208 1111 179 1111 q 257 1090 237 1111 q 277 1042 277 1070 q 257 992 277 1013 q 208 972 237 972 m 764 972 q 714 992 735 972 q 694 1042 694 1013 q 714 1090 694 1070 q 764 1111 735 1111 q 812 1090 792 1111 q 833 1042 833 1070 q 812 992 833 1013 q 764 972 792 972 m 903 972 q 853 992 873 972 q 833 1042 833 1013 q 853 1090 833 1070 q 903 1111 873 1111 q 951 1090 931 1111 q 972 1042 972 1070 q 951 992 972 1013 q 903 972 931 972 m 69 1111 q 20 1131 41 1111 q 0 1180 0 1152 q 20 1230 0 1209 q 69 1250 41 1250 q 118 1230 98 1250 q 138 1180 138 1209 q 118 1131 138 1152 q 69 1111 98 1111 m 208 1111 q 159 1131 179 1111 q 138 1180 138 1152 q 159 1230 138 1209 q 208 1250 179 1250 q 257 1230 237 1250 q 277 1180 277 1209 q 257 1131 277 1152 q 208 1111 237 1111 m 764 1111 q 714 1131 735 1111 q 694 1180 694 1152 q 714 1230 694 1209 q 764 1250 735 1250 q 812 1230 792 1250 q 833 1180 833 1209 q 812 1131 833 1152 q 764 1111 792 1111 m 903 1111 q 853 1131 873 1111 q 833 1180 833 1152 q 853 1230 833 1209 q 903 1250 873 1250 q 951 1230 931 1250 q 972 1180 972 1209 q 951 1131 972 1152 q 903 1111 931 1111 m 69 1250 q 20 1270 41 1250 q 0 1319 0 1291 q 20 1369 0 1348 q 69 1389 41 1389 q 118 1369 98 1389 q 138 1319 138 1348 q 118 1270 138 1291 q 69 1250 98 1250 m 208 1250 q 159 1270 179 1250 q 138 1319 138 1291 q 159 1369 138 1348 q 208 1389 179 1389 q 257 1369 237 1389 q 277 1319 277 1348 q 257 1270 277 1291 q 208 1250 237 1250 m 764 1250 q 714 1270 735 1250 q 694 1319 694 1291 q 714 1369 694 1348 q 764 1389 735 1389 q 812 1369 792 1389 q 833 1319 833 1348 q 812 1270 833 1291 q 764 1250 792 1250 m 903 1250 q 853 1270 873 1250 q 833 1319 833 1291 q 853 1369 833 1348 q 903 1389 873 1389 q 951 1369 931 1389 q 972 1319 972 1348 q 951 1270 972 1291 q 903 1250 931 1250 z "},"I":{"ha":1234,"x_min":277,"x_max":694,"o":"m 347 0 q 298 20 318 0 q 277 69 277 41 q 298 118 277 98 q 347 138 318 138 q 396 118 376 138 q 416 69 416 98 q 396 20 416 41 q 347 0 376 0 m 486 0 q 437 20 457 0 q 416 69 416 41 q 437 118 416 98 q 486 138 457 138 q 535 118 515 138 q 555 69 555 98 q 535 20 555 41 q 486 0 515 0 m 625 0 q 576 20 596 0 q 555 69 555 41 q 576 118 555 98 q 625 138 596 138 q 674 118 653 138 q 694 69 694 98 q 674 20 694 41 q 625 0 653 0 m 347 138 q 298 159 318 138 q 277 208 277 179 q 298 257 277 237 q 347 277 318 277 q 396 257 376 277 q 416 208 416 237 q 396 159 416 179 q 347 138 376 138 m 486 138 q 437 159 457 138 q 416 208 416 179 q 437 257 416 237 q 486 277 457 277 q 535 257 515 277 q 555 208 555 237 q 535 159 555 179 q 486 138 515 138 m 625 138 q 576 159 596 138 q 555 208 555 179 q 576 257 555 237 q 625 277 596 277 q 674 257 653 277 q 694 208 694 237 q 674 159 694 179 q 625 138 653 138 m 347 277 q 298 298 318 277 q 277 347 277 318 q 298 396 277 376 q 347 416 318 416 q 396 396 376 416 q 416 347 416 376 q 396 298 416 318 q 347 277 376 277 m 486 277 q 437 298 457 277 q 416 347 416 318 q 437 396 416 376 q 486 416 457 416 q 535 396 515 416 q 555 347 555 376 q 535 298 555 318 q 486 277 515 277 m 625 277 q 576 298 596 277 q 555 347 555 318 q 576 396 555 376 q 625 416 596 416 q 674 396 653 416 q 694 347 694 376 q 674 298 694 318 q 625 277 653 277 m 347 416 q 298 437 318 416 q 277 486 277 457 q 298 535 277 515 q 347 555 318 555 q 396 535 376 555 q 416 486 416 515 q 396 437 416 457 q 347 416 376 416 m 486 416 q 437 437 457 416 q 416 486 416 457 q 437 535 416 515 q 486 555 457 555 q 535 535 515 555 q 555 486 555 515 q 535 437 555 457 q 486 416 515 416 m 625 416 q 576 437 596 416 q 555 486 555 457 q 576 535 555 515 q 625 555 596 555 q 674 535 653 555 q 694 486 694 515 q 674 437 694 457 q 625 416 653 416 m 347 555 q 298 576 318 555 q 277 625 277 596 q 298 674 277 653 q 347 694 318 694 q 396 674 376 694 q 416 625 416 653 q 396 576 416 596 q 347 555 376 555 m 486 555 q 437 576 457 555 q 416 625 416 596 q 437 674 416 653 q 486 694 457 694 q 535 674 515 694 q 555 625 555 653 q 535 576 555 596 q 486 555 515 555 m 625 555 q 576 576 596 555 q 555 625 555 596 q 576 674 555 653 q 625 694 596 694 q 674 674 653 694 q 694 625 694 653 q 674 576 694 596 q 625 555 653 555 m 347 694 q 298 714 318 694 q 277 764 277 735 q 298 812 277 792 q 347 833 318 833 q 396 812 376 833 q 416 764 416 792 q 396 714 416 735 q 347 694 376 694 m 486 694 q 437 714 457 694 q 416 764 416 735 q 437 812 416 792 q 486 833 457 833 q 535 812 515 833 q 555 764 555 792 q 535 714 555 735 q 486 694 515 694 m 625 694 q 576 714 596 694 q 555 764 555 735 q 576 812 555 792 q 625 833 596 833 q 674 812 653 833 q 694 764 694 792 q 674 714 694 735 q 625 694 653 694 m 347 833 q 298 853 318 833 q 277 903 277 873 q 298 951 277 931 q 347 972 318 972 q 396 951 376 972 q 416 903 416 931 q 396 853 416 873 q 347 833 376 833 m 486 833 q 437 853 457 833 q 416 903 416 873 q 437 951 416 931 q 486 972 457 972 q 535 951 515 972 q 555 903 555 931 q 535 853 555 873 q 486 833 515 833 m 625 833 q 576 853 596 833 q 555 903 555 873 q 576 951 555 931 q 625 972 596 972 q 674 951 653 972 q 694 903 694 931 q 674 853 694 873 q 625 833 653 833 m 347 972 q 298 992 318 972 q 277 1042 277 1013 q 298 1090 277 1070 q 347 1111 318 1111 q 396 1090 376 1111 q 416 1042 416 1070 q 396 992 416 1013 q 347 972 376 972 m 486 972 q 437 992 457 972 q 416 1042 416 1013 q 437 1090 416 1070 q 486 1111 457 1111 q 535 1090 515 1111 q 555 1042 555 1070 q 535 992 555 1013 q 486 972 515 972 m 625 972 q 576 992 596 972 q 555 1042 555 1013 q 576 1090 555 1070 q 625 1111 596 1111 q 674 1090 653 1111 q 694 1042 694 1070 q 674 992 694 1013 q 625 972 653 972 m 347 1111 q 298 1131 318 1111 q 277 1180 277 1152 q 298 1230 277 1209 q 347 1250 318 1250 q 396 1230 376 1250 q 416 1180 416 1209 q 396 1131 416 1152 q 347 1111 376 1111 m 486 1111 q 437 1131 457 1111 q 416 1180 416 1152 q 437 1230 416 1209 q 486 1250 457 1250 q 535 1230 515 1250 q 555 1180 555 1209 q 535 1131 555 1152 q 486 1111 515 1111 m 625 1111 q 576 1131 596 1111 q 555 1180 555 1152 q 576 1230 555 1209 q 625 1250 596 1250 q 674 1230 653 1250 q 694 1180 694 1209 q 674 1131 694 1152 q 625 1111 653 1111 m 347 1250 q 298 1270 318 1250 q 277 1319 277 1291 q 298 1369 277 1348 q 347 1389 318 1389 q 396 1369 376 1389 q 416 1319 416 1348 q 396 1270 416 1291 q 347 1250 376 1250 m 486 1250 q 437 1270 457 1250 q 416 1319 416 1291 q 437 1369 416 1348 q 486 1389 457 1389 q 535 1369 515 1389 q 555 1319 555 1348 q 535 1270 555 1291 q 486 1250 515 1250 m 625 1250 q 576 1270 596 1250 q 555 1319 555 1291 q 576 1369 555 1348 q 625 1389 596 1389 q 674 1369 653 1389 q 694 1319 694 1348 q 674 1270 694 1291 q 625 1250 653 1250 z "},"J":{"ha":1512,"x_min":0,"x_max":972,"o":"m 208 0 q 159 20 179 0 q 138 69 138 41 q 159 118 138 98 q 208 138 179 138 q 257 118 237 138 q 277 69 277 98 q 257 20 277 41 q 208 0 237 0 m 347 0 q 298 20 318 0 q 277 69 277 41 q 298 118 277 98 q 347 138 318 138 q 396 118 376 138 q 416 69 416 98 q 396 20 416 41 q 347 0 376 0 m 486 0 q 437 20 457 0 q 416 69 416 41 q 437 118 416 98 q 486 138 457 138 q 535 118 515 138 q 555 69 555 98 q 535 20 555 41 q 486 0 515 0 m 625 0 q 576 20 596 0 q 555 69 555 41 q 576 118 555 98 q 625 138 596 138 q 674 118 653 138 q 694 69 694 98 q 674 20 694 41 q 625 0 653 0 m 764 0 q 714 20 735 0 q 694 69 694 41 q 714 118 694 98 q 764 138 735 138 q 812 118 792 138 q 833 69 833 98 q 812 20 833 41 q 764 0 792 0 m 69 138 q 20 159 41 138 q 0 208 0 179 q 20 257 0 237 q 69 277 41 277 q 118 257 98 277 q 138 208 138 237 q 118 159 138 179 q 69 138 98 138 m 208 138 q 159 159 179 138 q 138 208 138 179 q 159 257 138 237 q 208 277 179 277 q 257 257 237 277 q 277 208 277 237 q 257 159 277 179 q 208 138 237 138 m 347 138 q 298 159 318 138 q 277 208 277 179 q 298 257 277 237 q 347 277 318 277 q 396 257 376 277 q 416 208 416 237 q 396 159 416 179 q 347 138 376 138 m 486 138 q 437 159 457 138 q 416 208 416 179 q 437 257 416 237 q 486 277 457 277 q 535 257 515 277 q 555 208 555 237 q 535 159 555 179 q 486 138 515 138 m 625 138 q 576 159 596 138 q 555 208 555 179 q 576 257 555 237 q 625 277 596 277 q 674 257 653 277 q 694 208 694 237 q 674 159 694 179 q 625 138 653 138 m 764 138 q 714 159 735 138 q 694 208 694 179 q 714 257 694 237 q 764 277 735 277 q 812 257 792 277 q 833 208 833 237 q 812 159 833 179 q 764 138 792 138 m 903 138 q 853 159 873 138 q 833 208 833 179 q 853 257 833 237 q 903 277 873 277 q 951 257 931 277 q 972 208 972 237 q 951 159 972 179 q 903 138 931 138 m 69 277 q 20 298 41 277 q 0 347 0 318 q 20 396 0 376 q 69 416 41 416 q 118 396 98 416 q 138 347 138 376 q 118 298 138 318 q 69 277 98 277 m 208 277 q 159 298 179 277 q 138 347 138 318 q 159 396 138 376 q 208 416 179 416 q 257 396 237 416 q 277 347 277 376 q 257 298 277 318 q 208 277 237 277 m 764 277 q 714 298 735 277 q 694 347 694 318 q 714 396 694 376 q 764 416 735 416 q 812 396 792 416 q 833 347 833 376 q 812 298 833 318 q 764 277 792 277 m 903 277 q 853 298 873 277 q 833 347 833 318 q 853 396 833 376 q 903 416 873 416 q 951 396 931 416 q 972 347 972 376 q 951 298 972 318 q 903 277 931 277 m 764 416 q 714 437 735 416 q 694 486 694 457 q 714 535 694 515 q 764 555 735 555 q 812 535 792 555 q 833 486 833 515 q 812 437 833 457 q 764 416 792 416 m 903 416 q 853 437 873 416 q 833 486 833 457 q 853 535 833 515 q 903 555 873 555 q 951 535 931 555 q 972 486 972 515 q 951 437 972 457 q 903 416 931 416 m 764 555 q 714 576 735 555 q 694 625 694 596 q 714 674 694 653 q 764 694 735 694 q 812 674 792 694 q 833 625 833 653 q 812 576 833 596 q 764 555 792 555 m 903 555 q 853 576 873 555 q 833 625 833 596 q 853 674 833 653 q 903 694 873 694 q 951 674 931 694 q 972 625 972 653 q 951 576 972 596 q 903 555 931 555 m 764 694 q 714 714 735 694 q 694 764 694 735 q 714 812 694 792 q 764 833 735 833 q 812 812 792 833 q 833 764 833 792 q 812 714 833 735 q 764 694 792 694 m 903 694 q 853 714 873 694 q 833 764 833 735 q 853 812 833 792 q 903 833 873 833 q 951 812 931 833 q 972 764 972 792 q 951 714 972 735 q 903 694 931 694 m 764 833 q 714 853 735 833 q 694 903 694 873 q 714 951 694 931 q 764 972 735 972 q 812 951 792 972 q 833 903 833 931 q 812 853 833 873 q 764 833 792 833 m 903 833 q 853 853 873 833 q 833 903 833 873 q 853 951 833 931 q 903 972 873 972 q 951 951 931 972 q 972 903 972 931 q 951 853 972 873 q 903 833 931 833 m 764 972 q 714 992 735 972 q 694 1042 694 1013 q 714 1090 694 1070 q 764 1111 735 1111 q 812 1090 792 1111 q 833 1042 833 1070 q 812 992 833 1013 q 764 972 792 972 m 903 972 q 853 992 873 972 q 833 1042 833 1013 q 853 1090 833 1070 q 903 1111 873 1111 q 951 1090 931 1111 q 972 1042 972 1070 q 951 992 972 1013 q 903 972 931 972 m 764 1111 q 714 1131 735 1111 q 694 1180 694 1152 q 714 1230 694 1209 q 764 1250 735 1250 q 812 1230 792 1250 q 833 1180 833 1209 q 812 1131 833 1152 q 764 1111 792 1111 m 903 1111 q 853 1131 873 1111 q 833 1180 833 1152 q 853 1230 833 1209 q 903 1250 873 1250 q 951 1230 931 1250 q 972 1180 972 1209 q 951 1131 972 1152 q 903 1111 931 1111 m 764 1250 q 714 1270 735 1250 q 694 1319 694 1291 q 714 1369 694 1348 q 764 1389 735 1389 q 812 1369 792 1389 q 833 1319 833 1348 q 812 1270 833 1291 q 764 1250 792 1250 m 903 1250 q 853 1270 873 1250 q 833 1319 833 1291 q 853 1369 833 1348 q 903 1389 873 1389 q 951 1369 931 1389 q 972 1319 972 1348 q 951 1270 972 1291 q 903 1250 931 1250 z "}}}
